<?xml version="1.0"?>
<svg xmlns:rdf="http://www.w3.org/1999/02/22-rdf-syntax-ns#" xmlns="http://www.w3.org/2000/svg" xmlns:cc="http://web.resource.org/cc/" xmlns:dc="http://purl.org/dc/elements/1.1/" id="svg2" viewBox="0 0 947 576" version="1.0">
  <path id="path2696" d="m492.25 25.656c-1.85-0.06-15.19 40.407-20.44 51.406-16.8 6.349-77.59 11.456-92 20.719 19.72-6.341 84.55-17.354 85.94-14.812 3.16-0.632 3.5 0.215 1.87 2.937-1.5 2.518-4.49 8.257-8.65 9.625-4.36 2.631-1.78 7.569 4.09 7.879 6.15 0.32 7.98-1.52 3.75-3.785-2.29-1.227-1.56-3.237-0.56-5 1.56-2.767 4.62-9.031 6.22-12.25 77.42-5.726 155.85-7.44 231.87 10.375 56.66 13.59 83.57 37.43 98.16 87.16 0.72 0.44 1.31 2.12 1.31 3.75 0 1.89 0.52 2.96 1.44 2.96 0.79 0 1.61 1.02 1.84 2.26 0.36 1.94 0.52 1.8 1.19-1 0.75-3.15 2.57-2.88 4.69-2.26 12.35 3.66 24.73 10.08 37.34 13.94 2.6 0.44 6.7 0.81 7.25 0.91 0.03 0 0.28 0.03 0.28 0.03 0.46 0.08 1.05 0.12 1.78 0.12 1.75 0 3.19 0.45 3.19 1 0 0.63-6.97 1.04-18.75 1.1-10.31 0.05-21 0.41-23.75 0.84-3.02 0.47 7.74 0.83 27.25 0.91 17.74 0.07 40.38-0.42 41.56 0.62 2.17 1.92 7.41 20.83 6.26 31.32-0.42 1.3-1.9 2.22-4.19 2.65-1.95 0.37-4.19 0.92-4.97 1.22-1.11 0.43-1.41-0.47-1.41-4 0-2.5-0.45-4.82-1-5.16-0.61-0.37-1 1.13-1 3.88 0 2.48 0.45 4.79 1 5.12 1.75 1.08 1.09 2.45-1.5 3.1-1.45 0.36-2.48 1.3-2.43 2.25 0.04 1.04 0.27 1.19 0.59 0.41 0.6-1.51 3.34-1.69 3.34-0.22 0 0.56-0.67 1.27-1.5 1.59-1.66 0.64-2.08 4.37-0.5 4.37 1.15 0 1.39 3.95 0.25 4.07-3.62 0.49-10 8.68-10.18 2.09-0.23-8.03-0.21-22.16-1.57-22.16-2.61 3.48 2.8 8.08-5.5 9.91-13.69 3.03-27.53 4.88-42 8.09-1.95 0.44-10 2-10 0.41 0-5.23-2.36-25.99-3-26.41-0.42-0.27-1.07-2.32-1.43-4.53-0.79-4.68-2.15-7.26-3.26-6.15-0.42 0.42-0.25 1.08 0.35 1.47 1.22 0.78 3.34 9.78 3.34 14.18 0 1.58 0.37 3.01 0.85 3.19 0.47 0.18 1.18 4.65 1.56 9.94 0.76 10.58 1.39 9.15-9.44 11.47-19.92 4.25-50.07 10.69-71.53 12.53-4.11 0.35-6.21 0.67-6.69-4.31-0.27-2.87-1-5.39-1.62-5.6-0.62-0.2-1.13-1.65-1.13-3.22 0-4.03-2.2-12.97-3.19-12.97-0.45 0-0.81-1.57-0.81-3.5 0-1.92-0.45-3.5-1-3.5s-1-0.67-1-1.5c0-2.27-7.11-8.5-9.72-8.5-1.26 0-2.28-0.45-2.28-1 0-1.68-6.18-1.14-7.5 0.66-0.84 1.16-3.21 1.84-7.59 2.16-5.39 0.39-8.91 1.76-8.91 3.47 0 0.23 1.24 0.27 2.75 0.06 2.47-0.35 2.53-0.29 0.6 0.56-3.11 1.38-3.7 2.88-1.1 2.78 1.24-0.04 5.97 0.28 10.53 0.72 8.3 0.8 8.32 0.8 7.69-2.06-0.47-2.17-0.08-1.77 1.69 1.62 1.28 2.47 3.04 4.65 3.91 4.82 2.07 0.4 4.19-4.12 2.65-5.66-0.61-0.61-0.82-1.4-0.47-1.75s1.34 0.08 2.19 0.94c0.85 0.85 2.4 1.8 3.41 2.12 1.75 0.56 4.15 7.87 4.15 12.63 0 1.06 0.4 1.93 0.91 1.93 0.94 0 2.41 10.31 2.5 17.5 0.05 3.91-0.07 3.77-3.69 4.32-34.8 5.29-68.6 16.93-103.37 22.47-5.58 0.88-6.35-0.36-6.35-8.35 0-1.53-0.43-2.94-0.93-3.12-1.51-7.28-3.88-14.26-6.19-21.38-2.21-6.85-6.51-13.58-11.5-18.81-4.63-4.63-4.63-4.63 9.5-4.63 36.04-3.33 71.48-11.28 107.12-17 21.14-5.92 67.75-12.91 89.03-14.09 4.47-0.25 4.74 4.5 6.97 5.78 0 0.72 0.45 1.31 1 1.31 1.62 0 1.16-1.84-1-4-3.23-3.22-2.42-4 4.25-4 6.28 0 6.28 0 6.28-4 0-4.44-1.54-5.24-3.84-1.96-2.84 4.05-8.69 3.82-8.69-0.35 0-1.95-1.05-7.52-2.34-12.37-7.06-25.33-17.25-61.41-45.28-71.28-22.23-2.22-43.32-3.07-67.35-1-17.25 1.34-34.41 3.17-51.68 4.12-15.89 1.24-64.17-0.28-65.32-2.06-0.62-0.97-17.67-3.1-24.87-3.1-2.75 0-5.16-0.41-5.35-0.9-0.18-0.49-9.08-1.45-19.81-2.16-10.72-0.71-19.72-1.61-20-2-0.27-0.39-9.5-1.28-20.5-1.97-11-0.68-20.28-1.68-20.62-2.21-0.39-0.6-17.12-1.04-43.75-1.13-23.72-0.08-43.13-0.46-43.13-0.87 0-0.42 1.13-0.76 2.5-0.76 1.38 0 2.5-0.42 2.5-0.93s0.79-1.15 1.75-1.44c0.48-0.14 0.43-0.23-0.06-0.22s-1.4 0.1-2.62 0.25c-2.45 0.31-5.09 1.21-5.85 1.97s-1.8 1.37-2.31 1.37-0.91 1.13-0.91 2.5c0 1.38-0.41 2.5-0.9 2.5s-1.16 0.68-1.47 1.5c-0.39 1.03 0.06 1.5 1.4 1.5 1.26 0 1.97-0.69 1.97-1.87 0-3.91 104.45-4.1 106.97-0.19 0.28 0.44 10.43 1.38 22.53 2.1 12.1 0.71 22.23 1.61 22.5 2 0.28 0.39 9.05 1.28 19.5 1.96 10.45 0.69 19.23 1.59 19.5 2 0.48 0.72 4.4 1.2 20.75 2.63 3.99 0.35 7.25 1.02 7.25 1.5s2.37 0.87 5.25 0.87c12.39 0.02 21.66 1.23 20.25 2.63-6.01 22.39-24.61 73.36-35.65 102.37-1.45 0-0.93 3.76 0.59 4.35 1.08 0.41 1.63-0.59 2.13-3.91 9.56-28.63 26.24-70.37 34.46-100.47 1.09-0.78 1.97-1.92 1.97-2.56 15.31-4.11 51.26-4.95 69.16-6.44 3.84 0.86 10.64 60.71 17.37 90.57 0.38 3.05 0.88 5.37 1.1 5.15-3.86-31.74-15.81-95.45-14.28-96.19 16.04-2.68 44.4-2.55 64.59 0.85 5.42 0.91 15.06 7.65 18.97 13.12 9.9 13.87 17.83 29.6 21.9 46.82 6.55 22.9 6.4 25.71 0.69 25.71-2.47 0-4.5 0.35-4.5 0.79-34.22 4.97-58.86 7.45-84.97 14.06-33.29 5.21-68.51 15-103.62 16.65-6.01 0.3-12.95 0.77-15.44 1.04-3.16 0.33-5.21-0.01-6.81-1.13-13.08-6.46-67.8-9.57-75.16-19.47 0-1.06-0.45-1.94-1-1.94s-1 0.45-1 1c0 0.56-0.67 1-1.5 1-0.82 0-1.5-0.84-1.5-1.87 0-1.76-6.55-3.92-7.87-2.59-0.26 0.25 0.27 0.46 1.18 0.46 0.92 0 1.69 0.45 1.69 1 0 0.56 0.9 1 2 1s2 0.48 2 1.07c0 0.58-0.78 0.83-1.75 0.56-6.68-1.88-8.25-1.83-8.25 0.28 0 1.73 0.63 2.08 3.75 2.09 2.06 0.01 4.43 0.47 5.25 1 1 0.65 1.09 0.96 0.25 0.97-0.68 0.01-1.25 0.71-1.25 1.53 0 2.36 1.94 1.76 3.19-1 1.37-3 3.44-3.24 4.31-0.5 0.7 2.21 2.48 2.74 2.5 0.76 0.01-0.96 0.21-0.98 0.78-0.07 23.24 8.6 48.56 9.65 72.22 17.07 0 0.53-3.48 1.53-7.75 2.21-8.44 1.36-22.92 5.69-23.81 7.13-0.31 0.49-1.66 0.9-3 0.9s-2.44 0.45-2.44 1c0 0.56-1.38 1-3.06 1-3.95 0-11.94 2.01-11.94 3 0 0.43-2.58 1.07-5.75 1.44-9.51 1.12-13.46 3.56-5.75 3.56 1.93 0 3.5-0.39 3.5-0.84s3.6-1.41 8-2.16c4.4-0.74 8-1.65 8-2.03 0-0.37 4.05-1.26 9-1.97 4.95-0.7 9-1.57 9-1.9 0-1.4 18.91-7.21 27.69-8.5 6.64-1.46 7.59 3.2 10.72 7 4.88 5.92 9.01 13.86 10.66 21.4 9.67 37.5 7.42 93.88 1.93 133.82-0.56 0.18-1 2.46-1 5.03s-0.42 6.12-0.93 7.91c-0.8 2.77-0.69 3.24 0.81 3.24 1.9 0 4.13-14.18 4.12-26.18 0-3.65 0.45-5.8 1.25-6.06 0.98-0.33 2.06-10.13 2.03-44.6-0.03-44.17-0.79-44.63 1.94-45.12 33.1-5.99 65.6-16.47 97.78-21.04 11.29-1.6 12.02 0.09 12.19 14.19 0.22 18.26-1.1 56.11-2.19 56.81-0.42 0.28-1.09 5.59-1.5 11.82-0.53 8.2-1.12 11.49-2.12 11.87-2.12 0.81-1.64 3.31 0.62 3.31 1.76 0 2-0.68 2-5.43 0-2.98 0.42-5.57 0.94-5.75 0.52-0.19 1.48-9.88 2.16-21.56 1.31-14.32 2.81-28.3 2.9-42.69 0-23.59 0.56-25.19 3.97-25.72 27.79-4.33 54.15-11.77 83.72-14.5 4.14-0.38 1 31.66-2.31 31.75-19.64 0.01-40.78 7.43-48.44 17.25-7.66 9.81-5.23 24.42-0.75 32.15 3.17 5.49 6.24 13.3 1.81 18.41-4.08 4.72-32.59 15.56-40.37 16.88-5.55 0.94-5.63 0.46-5.63 4.34 0 2.72-0.45 3.87-1.47 3.87-0.79 0-1.87 0.77-2.4 1.72-0.54 0.96-1.34 1.42-1.75 1-0.42-0.41 0.05-1.31 1.03-2.03 1.08-0.79 1.65-2.25 1.44-3.75-0.35-2.44-0.35-2.44-2.6-0.18-33.91 16.42-70.17 26.39-105.25 39.74-1.65 0.37-3 0.96-3 1.35-2.65 1.63-26.33 13.5-25.12 7.72 2.37-11.34-4.54-51-13.22-62.03-9.01-11.45-13.21-14.58-30.16-14.54-20.66 0.06-42.85 7.55-60.72 18-1.44 0.85-9.48 4.63-14.78 15.44s-7 41.25-18.31 49c-11.66 8-24.39 4.8-30.19 5.16-3.85 0.23-13.75 0.93-22 1.53-18.16 1.32-28.25 1.28-31.87-0.09-1.49-0.57-5.3-1.27-8.44-1.57-9.3-0.87-10.4-1.26-9.69-3.5 0.44-1.38 0.17-1.97-0.93-1.97-0.87 0-1.57-0.44-1.57-1 0-0.54 0.45-1 1-1s1-0.9 1-2-0.56-2.02-1.25-2.03c-0.86-0.01-0.91-0.24-0.15-0.75 0.6-0.4 1.34-1.39 1.65-2.22 0.46-1.19 0.6-1.14 0.66 0.26 0.05 1.16 0.88 1.74 2.5 1.74 1.33 0 3.07 0.61 3.84 1.38 1.58 1.58 13.13 3.62 20.6 3.62 3.06 0 5.15 0.46 5.4 1.22 0.55 1.64 27.99 1.52 28.53-0.12 0.2-0.6 2.34-1.1 4.72-1.1 5.63 0 7.5-0.79 7.5-3.12 0-1.04 0.41-1.88 0.94-1.88s1.26-1.59 1.63-3.53c0.36-1.93 1.22-3.84 1.9-4.25 1.99-1.17 3.79-10.39 2.63-13.43-1-2.61-1-2.6-23.13-2.03-21.36 0.54-41.97-0.8-41.97-2.72 0-0.42-3.03-1.06-6.75-1.44-3.71-0.38-7.76-0.94-9-1.25-1.98-0.49-2.25-0.19-2.25 2.59 0 1.86-0.41 2.93-1 2.56-0.55-0.33-1 0.02-1 0.82 0 1.21-1.97 2.68-3.59 2.68-0.23 0-0.41-1.1-0.41-2.43s-0.47-2.57-1.03-2.75c-1.09-0.37-2.97-14.39-2.94-21.82 0.02-3.89 0.19-4.23 1.19-2.5 0.64 1.1 1.83 2.68 2.66 3.5 1.33 1.34 1.25 1.51-0.6 1.79-3.4 0.5-1.75 4.21 1.88 4.21 2.45 0 2.71 0.23 1.62 1.41-0.71 0.77-1.44 1-1.62 0.5-0.56-1.5-3.16-1.01-3.16 0.59 0 0.83 0.45 1.5 1 1.5s1 1.58 1 3.5c0 6.5 3.67 0.94 4.5-6.81 0.62-5.77 0.96-6.56 3.07-6.97 1.29-0.24 2.16-0.1 1.9 0.32-0.25 0.41 0.2 1 1 1.31 0.81 0.31 1.74 0.12 2.06-0.41 0.33-0.52 1.31-0.94 2.19-0.94 1.44 0 1.43 0.17-0.06 1.82-2.56 2.82-1.98 3.81 0.75 1.25 1.33-1.26 2.91-1.99 3.5-1.63 0.59 0.37 1.09 0.27 1.09-0.22s0.64-0.9 1.41-0.9c0.85 0 1.17 0.62 0.81 1.56-0.46 1.21 0.17 1.07 2.94-0.56 2.4-1.42 4.04-1.79 5.12-1.19 0.96 0.54 1.83 0.49 2.19-0.09 0.33-0.54 1.2-0.72 1.94-0.44s1.61-0.18 1.94-1.03c0.32-0.86 1.43-1.57 2.46-1.57 1.28 0 2.19-1.06 2.82-3.24 0.51-1.79 1.6-3.25 2.4-3.26 1.01 0 1.35-0.86 1.13-2.74-0.21-1.82 0.15-2.76 1.06-2.76 0.94 0 1.8-2.4 2.66-7.5 0.69-4.12 1.72-7.5 2.31-7.5 1.93 0 0.3-16.87-2.19-22.5-4.28-11.86-11.21-18.63-22.06-23-12.55-5.05-28.42 3.64-33.94 13.94-0.75 1.4-1.67 2.56-2.06 2.56s-1.27 2.91-1.94 6.44c-0.66 3.54-1.8 6.66-2.53 6.94-0.83 0.32-1.59 3.14-2.03 7.56-0.38 3.88-1.05 7.06-1.47 7.06-0.41 0-10.34-1.79-22.09-3.96-11.75-2.18-22.73-4.09-24.38-4.25-1.65-0.17-3.22-0.58-3.5-0.91-0.41-0.5-9.72-2.03-26.5-4.41-1.65-0.23-7.5-1.32-13-2.4-17.64-3.49-43.54-7.29-46.56-6.85-1.61 0.24-2.94 0.05-2.94-0.4 0-0.46-1.33-0.82-2.93-0.82-1.61 0-3.07-0.4-3.26-0.87-0.28-0.73-17.57-3.47-28.81-4.56-7.83-0.76-23.67-2.68-26.25-3.19-2.39-0.47-2.75-1.02-2.75-4.16 11.7-51.11 76.26-72.59 121.72-85.4 2.62-0.22 3.86-0.84 4.09-2.06 0.42-2.19-2.37-2.34-4.46-0.26-41.86 15.08-106.69 29.42-121.35 77.85 0 1.36-0.41 2.63-0.9 2.81-4.26 1.57-2.47 12.84 2.06 13 6.42 0.23 8.64 0.52 19.84 2.38 29.74 4.93 72.87 11.71 88.75 13.96 10.05 1.43 21.53 3.26 25.5 4.07 3.98 0.8 9.95 1.91 13.25 2.47 3.3 0.55 10.5 1.87 16 2.93 5.5 1.07 15.18 2.64 21.5 3.5 16.8 2.3 16.16 2.08 14.81 5.03-0.62 1.37-1.45 2.5-1.84 2.5s-0.98 1.24-1.31 2.76c-0.33 1.51-0.9 3.76-1.25 5-0.52 1.82-0.25 2.24 1.47 2.24 1.16 0 2.12 0.48 2.12 1.1 0 0.71-0.99 0.9-2.75 0.47-7.12-1.74-10.85-0.48-11.68 3.97-0.37 1.96-1.34 3.82-2.13 4.12-1.89 0.73-1.87 2.34 0.03 2.34 0.82 0 1.78 1.13 2.13 2.5 0.34 1.38 1.01 2.5 1.5 2.5s0.9 0.68 0.9 1.5c0 2.22-2.76 1.83-3.5-0.5-0.35-1.1-1.02-2-1.47-2-3.74 0-2.71-13.34 1.13-14.56 2.48-0.78 2.36-3.44-0.16-3.44-2.86 0-5.78 3.31-6.56 7.44-1.01 5.4-4.97 5.22-4.09-0.18 0.33-2.06 1.02-3.9 1.53-4.07 3.92-1.3 5.34-4.19 2.06-4.19-4.17 0-7.92 3.92-8.03 8.41-0.04 1.7-0.29 2.53-0.56 1.85-0.68-1.69-2.35-1.6-2.35 0.12 0 0.76 0.9 1.62 2 1.91 1.2 0.31 2 1.37 2 2.62 0 1.15 0.44 2.09 0.97 2.09s1.44 1.8 2.03 4 1.42 4 1.85 4c0.42 0 1.4 1.58 2.15 3.5 0.76 1.93 1.73 3.5 2.16 3.5s1.28 1.02 1.94 2.26c0.66 1.25-0.8 0.26-3.32-2.26-2.47-2.47-4.78-5.76-5.15-7.28s-2.05-4.05-3.72-5.65c-5.7-5.45-4.35-19.07 1.87-19.07 0.67 0 1.22-0.52 1.22-1.15 0-2.01-3.39-3.78-7.25-3.81-2.06-0.02-3.75-0.48-3.75-1.04 0-0.54-0.67-1-1.5-1-1.8 0-2.04 1.97-0.25 2.07 0.69 0.03 0.24 0.56-1 1.15-1.24 0.6-2.25 1.93-2.25 2.94 0 1.02-0.37 1.84-0.81 1.84-2.69 0-2.84 10.03-0.19 12 1 0.75 3.08 7.24 2.5 7.82-0.8 0.8-5.5-5.18-5.5-7 0-0.92-0.49-1.83-1.09-2.03-1.5-0.5-1.73-11.01-0.25-11.5 2.35-0.79 6.87-5.28 5.31-5.29-0.84 0-2.17-0.9-2.97-2-1.84-2.55-3-2.56-3 0 0 2.13-1.88 6.04-3.43 7.16-1.31 0.94-1.31 10.76 0 11.63 0.59 0.39 1.72 2.18 2.5 3.97 0.77 1.78 1.77 3.24 2.18 3.24 0.42 0 0.75 0.88 0.75 1.97 0 1.1 0.9 2.57 2 3.25 1.1 0.69 2 1.73 2 2.32s0.91 2.07 2.03 3.28c1.13 1.2 1.59 2.18 1.04 2.18-0.56 0-2.03-1.15-3.29-2.56-1.25-1.4-3.22-3.54-4.37-4.75-1.15-1.2-2.41-3.44-2.78-4.97-0.38-1.52-1.57-3.66-2.66-4.75-1.08-1.08-1.97-3.09-1.97-4.47 0-1.37-0.45-2.5-1-2.5-2.4 0-0.99-7.07 2-10 3.43-3.35 3.89-6 1.07-6-2.43 0-4.9 2.41-5.69 5.57-0.34 1.33-0.96 2.43-1.38 2.43-1.95 0-1.92 7.4 0.03 9.22 1.09 1.01 1.97 2.75 1.97 3.85 0 1.09 0.68 2.24 1.5 2.56 0.83 0.32 1.5 1.65 1.5 2.97 0 1.46 1.56 3.97 4 6.4 2.2 2.2 4 4.41 4 4.91 0 0.51 0.57 1.13 1.25 1.38 0.69 0.24 1 0.72 0.69 1.06-0.66 0.72-7.94-5.93-7.94-7.25 0-0.49-1.13-1.96-2.5-3.25-1.36-1.3-2.48-3.02-2.5-3.85-0.02-0.82-1.16-2.57-2.53-3.87-1.36-1.3-2.47-3.43-2.47-4.75s-0.45-2.38-1-2.38-1-1.57-1-3.5c0-3.56 3.23-8.5 5.57-8.5 1.76 0 2.33-3.36 0.81-4.78-1.71-1.59-7.07-1.57-7.72 0.04-0.3 0.74-0.55 0.54-0.59-0.5-0.1-2.17-4.07-2.41-4.07-0.26 0 0.83-0.45 1.5-1 1.5s-1 0.87-1 1.94-0.45 2.23-1 2.56c-0.55 0.34-1 1.72-1 3.07 0 1.34-0.45 2.43-1 2.43-1.87 0-1.06 5.46 1 6.76 1.1 0.68 2 1.95 2 2.81s0.68 2.23 1.5 3.06c1.9 1.89 1.92 3.37 0.07 3.37-0.79 0-1.72-0.89-2.07-2-0.35-1.1-1.46-2.46-2.47-3-4-2.14-3.48-19 0.6-19 2.24 0 1.68-4.7-0.63-5.31-1.1-0.29-2-0.09-2 0.41s-0.9 0.9-2 0.9-2-0.5-2-1.12c0-0.73-1.23-0.96-3.5-0.59-2.79 0.45-3.7 0.2-4.53-1.35-1.22-2.29-3.97-2.59-3.97-0.44 0 0.83-0.67 1.5-1.5 1.5-0.82 0-1.5-0.67-1.5-1.5s-0.89-1.5-2-1.5-2 0.67-2 1.5c0 2.08-0.93 1.88-3.12-0.65-1.87-2.15-1.88-2.15-3.88 0.15-2 2.31-2 2.31-2 0.16 0-1.63-0.6-2.16-2.5-2.16-1.37 0-2.5 0.46-2.5 1 0 1.84-2.19 1.03-2.72-1-0.6-2.31-3.99-2.71-4.47-0.53-0.23 1.06-0.73 1.2-1.81 0.5-1.33-0.86-1.33-1.09 0-1.97 1.28-0.83 1.24-0.98-0.28-1-0.98 0-2.06 0.68-2.37 1.5-0.75 1.96-2.35 1.93-2.35-0.03 0-1.14-0.66-1.34-2.65-0.84-1.91 0.48-2.44 0.32-1.91-0.53s-0.01-1-1.87-0.53c-2.12 0.53-2.48 0.34-1.97-0.97 0.86-2.24-2.5-2.11-4.22 0.16-1.23 1.62-1.32 1.58-1.35-0.5-0.01-1.32-0.65-2.26-1.53-2.26-0.82 0-1.5 0.68-1.5 1.5 0 0.83-0.67 1.5-1.5 1.5-1.81 0-1.99-1.65-0.25-2.28 0.69-0.24 0.88-0.84 0.44-1.31s-1.73-0.25-2.88 0.47c-1.6 1-2.24 1.01-2.81 0.09s-1.25-0.92-2.97 0c-2.01 1.08-2.16 0.99-1.56-0.9 0.75-2.36-2.88-3.13-3.81-0.81-0.31 0.76-0.55 0.57-0.59-0.47-0.07-1.33-1.4-1.85-6.07-2.38-3.3-0.37-6-1.05-6-1.53 0-1.65-3.85-0.87-4.31 0.88-0.34 1.31-0.51 1.19-0.59-0.5-0.12-2.36-0.91-2.52-15.03-2.72-1.88-0.03-3.59-0.6-3.82-1.28-0.49-1.48-5.25-1.71-5.25-0.26 0 0.56-0.67 1-1.5 1-1.69 0-1.88-0.87-0.59-2.9 0.63-1 2.17-1.25 5.47-0.88 6.8 0.77 6.14-1.77-0.85-3.22-9.476-1.96-12.873-1.17-13.965 3.26-0.509 2.06-1.297 3.74-1.75 3.74-1.382 0-0.925 9.05 0.531 10.5 0.75 0.75 1.662 3.66 2.032 6.44 0.369 2.79 1.066 5.06 1.531 5.06 0.464 0 1.41 1.36 2.093 3 1.324 3.2 2.472 3.79 3.408 1.76 0.31-0.69 0.3-0.19-0.03 1.12-0.405 1.6-0.247 2.15 0.5 1.69 1.65-1.02 1.34 2-0.35 3.4-2.112 1.76-3.263 0.56-4.059-4.15-1.055-6.25-2.795-7.47-11.719-8.28-4.262-0.39-7.75-1.1-7.75-1.57 0-0.46-2.451-1.12-5.437-1.5-9.041-1.13-9.102-17.64-0.063-16.81 5.147 0.47 6.345 0.25 8.407-1.56 1.321-1.16 2.784-2.1 3.25-2.1s0.843-1.09 0.843-2.43c0-1.35 0.442-2.75 1-3.1 0.559-0.34 0.796-1.02 0.5-1.5-0.295-0.47 0.142-1.23 1-1.71 1.588-0.89 1.123-4.26-0.593-4.26-0.485 0-0.877-1.01-0.875-2.24 0.009-9.09-3.059-12.69-4.125-4.85-0.318 2.34-1.056 4.57-1.657 4.94-0.6 0.37-1.403 1.9-1.781 3.41-0.378 1.5-1.328 2.74-2.093 2.74-0.766 0-1.376 0.45-1.376 1 0 0.56-0.9 1-2 1s-2 0.45-2 1c0 0.56-0.9 1-2 1s-2-0.45-2-1c0-0.54 0.571-1 1.282-1 2.808 0 10.718-9.22 10.718-12.5 0-0.83 0.45-1.5 1-1.5s1-1.57 1-3.5c0-3.65-1.51-4.76-2.374-1.74-0.276 0.96-0.252 0.11 0.031-1.88 0.384-2.7 0.093-3.76-1.094-4.22-0.872-0.33-1.588-1.39-1.594-2.37-0.016-2.98-4.547-11.65-7.343-14.03-1.449-1.24-2.626-2.7-2.626-3.26 0-0.55-0.588-1-1.281-1-0.692 0-1.813-0.9-2.5-2s-1.929-2-2.75-2c-0.82 0-1.469-0.45-1.469-1 0-0.54-1.683-1-3.718-1-4.28 0-3.709-1.02 2.218-3.9 2.82-1.37 4.484-1.65 5.75-0.97 0.937 0.5 1.782 0.61 2.438 0.41 11.615 4.18 20.353 16.49 21.594 32.56-0.072 0.98-0.009 9.86 2.406 5.4 0.849-6.53-1.874-12.82-3.125-19.12-3.559-8.53-9.215-19.85-19.563-20.88 0.001-0.02 0-0.04 0-0.06 0-0.79 0.676-1.49 1.5-1.56 0.826-0.07 1.95-0.24 2.5-0.38 0.55-0.13 1.45-0.3 2-0.37 1.254-0.16 1.312-3.13 0.063-3.13-0.504 0-1.098 0.57-1.344 1.26-0.245 0.68-0.83 0.89-1.281 0.46 39.9-10.47 80.6-18.39 121.06-26.62 15.36-5.18 32.04-5.68 47.5-10.06 0.28-0.38 4.76-1.23 9.97-1.91 1.13-0.15 2.19-0.31 3.22-0.47-0.49 1.43-1.35 1.88-3.62 2.63-1.97 0.65-3.57 1.73-3.57 2.43 0 1.3 9.75 0.79 10.85-0.56 0.87-1.07 4.48-2.81 5.84-2.81 0.75 0 1.37-0.6 1.38-1.35 0-1.99-5.95-1.82-7.26 0.22-0.86 1.35-0.92 1.24-0.5-0.68 0.03-0.13 0.04-0.3 0.07-0.44 2.03-0.39 3.44-0.75 3.59-0.97 0.29-0.42 3.12-1.35 6.28-2.09 3.16-0.75 5.75-1.67 5.75-2.04 0-0.36 2.93-1.22 6.5-1.93 3.58-0.71 6.5-1.62 6.5-2.03 0-0.42 2.59-1.1 5.75-1.5 3.16-0.41 7.04-0.91 8.63-1.13s3.44-1.13 4.09-2.03c0.86-1.17 3.14-1.72 8.1-1.94 3.79-0.17 7.05-0.78 7.24-1.37 0.2-0.59 1.43-1.07 2.72-1.07 1.3 0 2.65-0.53 3.04-1.15 0.5-0.82-0.61-0.93-4.07-0.41-6.02 0.9-7.51 1.48-7.53 2.91-0.01 0.66-0.39 0.57-0.9-0.25-0.9-1.42 0.42-4.87 2.43-6.34 0.55-0.41 3.82-0.75 7.25-0.76 3.49 0 6.25-0.44 6.25-1s2.84-1 6.5-1c3.58 0 6.5-0.33 6.5-0.74 0-0.42-6.18-0.48-13.75-0.13-7.56 0.35-15.21 0.69-17 0.75-2.25 0.08-3.25 0.59-3.25 1.69 0 2-2.4 1.31-2.81-0.81-0.19-1 0.55-1.76 2-2.04 1.54-0.29 1.06-0.5-1.38-0.59-2.01-0.07-3.87-0.69-4.15-1.37-0.31-0.77-0.55-0.61-0.59 0.43-0.05 0.94 0.67 2.11 1.59 2.63 1.18 0.66 1.65 2.29 1.65 5.56 0 5.46-0.95 6.86-2.9 4.19-1.23-1.68-1.41-1.73-1.41-0.28 0 1.18-1.17 1.86-4 2.31-2.2 0.35-4 1.01-4 1.44s-3.15 1.32-7 1.96c-3.94 0.67-7.02 1.7-7.03 2.35s-0.42 0.5-0.97-0.35c-0.61-0.94-0.99-1.04-1-0.28-0.01 0.7-2.1 1.49-5 1.88 5.07-1.35 7.77-4.59 8.25-9.88-0.38-9.8-35.48-8.36-26.5 0.94 2.39 5.21 4.19 6.65 4.19 3.34-0.37-2.49-3.45-4.44-3.22-7.5 1.55-1.9 20.52-3.53 21.31 1.5 0.22 12.8-13.95 6.71-11.31 4.76 1.45-0.56 1.88-4.19 0.5-4.19-3.27 0.39-5.15 4.21-6.44 7-0.6 1.86-1.38 3.81-1.75 4.31-0.35 0.48-0.91 2.59-1.25 4.78-1.2 0.2-2.3 0.34-3.15 0.34-1.36 0-2.63 0.44-2.82 1-0.18 0.57-4.59 1.55-9.81 2.16-15.58 3.3-31.62 5.34-47 9.81-39.95 8.21-80.33 14.64-120 24.03-0.272 0.35-1.265 0.92-2.185 1.26-0.997 0.36-1.485 1.35-1.219 2.43 0.354 1.44-1.142 2.54-7.25 5.31-8.682 3.95-11.882 6.16-13.406 9.32-1.045 2.16-1.051 2.18 0.781 0.18 1.013-1.1 2.494-2.16 3.281-2.34 0.788-0.18-0.237 1.26-2.281 3.19-3.932 3.71-4.504 5.11-2.469 6.06 1 0.47 1 0.69 0 1.16-1.566 0.73-1.808 24.43-0.25 24.43 0.55 0 1 1.09 1 2.44 0 2.88 1.951 7.56 3.157 7.56 0.461 0 0.843 0.7 0.843 1.57 0 1.79 2.314 4.43 3.907 4.43 0.589 0 1.093 0.4 1.093 0.88s1.8 1.15 4 1.5c2.517 0.4 4 1.16 4 2.06 0 0.79 0.735 1.88 1.626 2.38 1.992 1.11 2.433 30.31 0.468 30.97-0.607 0.2-1.094 1.84-1.094 3.65s-0.696 3.87-1.531 4.56c-0.835 0.7-2.209 2.74-3.062 4.54-0.926 1.95-2.822 3.79-4.719 4.56-1.749 0.71-3.412 1.57-3.688 1.9-0.274 0.34-1.962 1.19-3.75 1.91-1.787 0.72-3.25 1.88-3.25 2.56 0 0.69-2.924 4.18-6.5 7.75-7.718 7.72-9.157 14.74-4 19.63 1.366 1.29 2.5 2.98 2.5 3.75s0.563 1.43 1.25 1.47c5.921 0.32 14.142 1.98 14.75 2.97 0.289 0.46 3.417 1.3 6.938 1.87s6.652 1.43 6.969 1.91c0.317 0.47 3.479 1.41 7 2.09 6.551 1.27 9.093 2.8 9.093 5.44 0 0.84 1.636 2.03 3.75 2.72 2.063 0.67 3.969 1.57 4.25 2 1.166 1.77 13.078 2.31 12.408 0.56-0.364-0.95-2.286-1.92-4.532-2.28-4.043-0.65-5.555-3.35-1.876-3.35 1.1 0 2 0.33 2 0.76 0 0.77 11.278 3.24 14.878 3.24 1.07 0 2.1 0.42 2.28 0.94 0.18 0.53 3.72 1.49 7.84 2.13 8.3 1.28 8.95 1.79 8.97 7.09 0.01 2.02 0.6 3.91 1.28 4.19 0.94 0.38 0.88 0.75-0.25 1.56-1.08 0.77-1.17 1.31-0.34 1.85 0.63 0.41 1.31 1.87 1.5 3.24 0.26 1.88 1.03 2.58 3.09 2.82 1.58 0.18 2.75 0.93 2.75 1.75 0 0.79 0.38 1.43 0.85 1.43 0.46 0 1.38 2.48 2.06 5.5 0.68 3.03 1.58 5.5 2 5.5s1.26 1.1 1.87 2.44c2.06 4.51 5.46 7.56 8.41 7.56 1.55 0 2.81 0.37 2.81 0.82 79.96 25.29 177.62 45.17 252.85 54.59 7.92 0.99 14.22-2.29 21.56-4.37 3.87-1.1 4.93-0.32 6.5 4.53 3.17 9.8 18.18 13.86 27.34 14.62 38.31 3.19 45.3-23.67 60.53-46.43 5.34-7.97 6.96 1.96 15.19-8.82 3.96-5.18 10.97-26.23 24.56-22.28 77.15 12.15 129.13-38.16 196.82-60.66 1.21-0.4 2.71 4.18 3.65 6.1 8.92 8.52 32.69 8.66 44.31 6.72 12.92-7.37 24.14-22.59 26.26-38.82 0.73-5.66 4.15-8.89 5.59-5.12 3.12 8.18 17.84 0.42 17.84-9.41 0-6.14 0.3-17.97 0.66-26.31 0.59-13.71 0.5-15.16-1-15.16-0.91 0-1.66-0.67-1.66-1.5 0-1 2.11-2.51 3.94-3.31 12.65-5.49 20.9-14.62 27.28-19.19 1.51-2.41 3.37-2.56 5.53-0.4 16.52 7.39 33.57-26.13 11.97-30.22-5.02-0.69-4.58 2.7-6.28-49.31-0.24-7.39-0.85-13.69-1.34-14-0.5-0.31-1.02-3.2-1.63-6.31-2.24-11.4-29.5-4.9-44.47-8.69-13.9-4.98-25.5-10.39-38-14.19-6.2-1.89-8.26-3.21-10.09-8.28-14.85-49.71-48.37-71.83-94.41-83.595-74.56-20.033-153.23-16.72-229.62-11.906-2.48-0.082-4.94-1.18-4.94-3.157 5.63-13.517 19.01-51.003 17.5-50.906zm-32.16 72c0.53 0 1.14 0.347 1.79 1 1.08 1.109 1.24 1.894 0.5 2.564-0.7 0.63-1.6 0.42-2.63-0.63-1.09-1.105-1.24-1.886-0.5-2.559 0.26-0.237 0.53-0.375 0.84-0.375zm-64.81 10.934c-1.18 0-2.36 0.02-3.53 0.03-7.02 0.11-13.94 0.59-20.66 2.57-14.48 4.66-35.02 40.35-54.28 68.9-2.09 4.18-6.69 8.53-9.03 8.53-1.08 0-1.97 0.45-1.97 1 0 2 7.19 1.09 9.13-1.15 1.02-1.19 1.87-2.55 1.87-3 0-0.46 1.58-2.43 3.5-4.41 10.98-17.82 34.88-59.73 49.5-65.81 9.63-4 12.33-2.77 19-2.63 23.89 0.97-4.38 2.95-11.78 4.85-2.86 0.73-12 50.34-18.44 65.15-1.64 3.8-5.03 3.82-9.03 4.26-6.25 0.35-6.25 0.36 1 0.56 8.47 0.22 10.68 2.74 3 3.44-3.75 0.33-3.59 0.4 1.41 0.56 5.29 0.16 5.61 0.03 5.09-1.94-0.62-2.4 6.26-2.29 7.75 0.12 0.98 1.59 1.87-0.76 1.22-3.24-3.02-3.33-8.14 3.33-7.22-3.76 4.23-19.75 10.43-37.54 15.94-57.18 1.35-7.21 5.66-8.82 27.56-8.82 12.34 0 13.57 0.4 19.5 1 3.22 0.33 6.55-0.09 3.53 5.35-5.44 15.5-12.57 53.81-24.37 63.65-7.67 0.92-15.85-4.44-23.56-0.43-1.3 3.68 2.33 2.07 5.28 2.43 16.35 0 6.91 2.72-11.07 3.19-10.74 0.28-18.26 0.89-18.65 1.5-4.99 3.13-24.68 4.53-31.63 3.5-0.15 1.46 0.03 5.85 1.38 4.44 0.07-1.75 0.89-1.83 13.09-1.28 12.16-0.08 23.86 1.62 36 2.65 15.06 0 13.86-1.6-1.84-2.46-11.7-0.65-16.47-1.57-15.09-2.94 0.91-0.91 23.16-2.73 31.43-2.56 11.66 0.23 15.43-0.72 9.75-2.44-0.96-0.29 0.8-0.29 3.91 0 3.46 0.32 5.91 0.12 6.31-0.53 1.06-1.71 2.53-1.24 2.53 0.81 0 2.35 0.97 2.73 9.31 3.62 15.63 1.97 33.06 9.18 49.19 11 7.71 0.94 4.55-2.93-3.34-4.09-7.04-1.22-15.57-3.64-21.5-6.59-0.4-1.52-0.93-1.66-3-0.88-6.64-0.11-27-0.58-26.31-6.68 0.48-3 3.2-13.88 5.65-14.26 1.31-0.19 2.26 0.7 2 2-0.86 4.35-5.23 17.31-3.12 15 8.21-16.52 14.35-52.01 16.81-52.65 2.14-0.56-7.28 27.81-10.75 41.65-1.74 1.16-2.15 12.32-0.56 11.41 4.03-2.3 3.91-8.66 10.03-11.06 5.79-2.28 25.72-1.46 29.56 0.59 3.99 2.14 35.5 2.42 37.63 0.22 3.13-3.23 5.75-6.32 10.06-7.97 15.65-5.99 31.08-0.34 43.62 10.31 3.01 3.08 7.32 6.79 11.72 6.5 3.99-0.25 6 0.45 6 1-1.8 7.39-5.47 13.75-10 19-1.08 1.28-3.73-0.35-4 0.94-0.19 0.94 1.79 1.2 2 2.56-3.98 5.48-12.04 6.28-18.25 6.44-4.51 0.04-5.67 0.77-4 2.5 6.76 1.17 13.85 0.17 19.69-3.44 9.85-6.07 13.31-18.93 17.59-29.03 7.14-16.01 26.4-47.23 9-59.81s-81.91-13.93-106.03-17.12c-27.28-2.59-54.65-4.54-82-5.04-1.18 0-2.35-0.02-3.53-0.03zm10.22 3.97c4.36-0.11 10.26 0.47 10.66 1.5 0.44 1.16-0.5 1.4-4.66 1.25-7.98-0.29-10.69-0.73-10.69-1.75 0-0.61 2.07-0.93 4.69-1zm23.31 2.19c0.64 0 1.27 0.06 1.75 0.19 0.96 0.25 0.18 0.44-1.75 0.44-1.92 0-2.71-0.19-1.75-0.44 0.48-0.13 1.12-0.19 1.75-0.19zm9.13 0c4.87-0.12 11.77 0.18 13.87 0.84 1.54 0.49-1.65 0.76-8.25 0.72-5.91-0.03-10.75-0.42-10.75-0.87 0-0.39 2.2-0.62 5.13-0.69zm29.37 1.87c0.83 0 1.5 0.46 1.5 1 0 0.56-0.67 1-1.5 1-0.82 0-1.5-0.44-1.5-1 0-0.54 0.68-1 1.5-1zm-5.4 0.47c0.05-0.01 0.1-0.01 0.15 0 0.88 0.22 0.83 4.03-0.68 5.82-4.23 5.38 3.29 6.28 5.9 2.71-2.13-1.65 0.18-2.43 2.41-2.9 5.88-1.11 11.7 4.66 16.81 2.22 6.14-3.07 13.63-1.41 19.59 1.22 5.92 5.4-2.18 11.85-1.65 18.22-1.16 6.05-4.69 12.49-4.97 17.56-2.74 5.86-1.63 15.39-10.5 15.37l-0.25 0.13c-8.74 2.31-18.06 1.61-27.06 1.68-7.13-1.21-18.71 1.59-22.94-3.56 1.62-5.8 2.35-11.73 3.03-17.65 3-2.98 0.71-11.65 5.19-11.25 5.43 2.92 11.58 4.82 17.87 4.12 7.4 1.3 12.03-11.03 6.03-14.75-5.07-0.28-10.34-1.09-15-3.41-4.7 3.3 4.75 4.51 7.07 4.44 7.63-0.67 9.01 9.24 1.31 10.25-6.18 2.17-12.86-0.64-17.53-4.75-6.51-5.73 5.13-8.28 3.65-14.4 5.31-0.11 8.75-3.32 10-8.63 0.65-1.66 1.18-2.35 1.57-2.44zm-29.57 0.94c1.25-0.37-15.18 48.49-17.62 64.59-1.07 2.12-2.36 4.41-6.28 3.44 7.53-1.96 19.53-67.15 23.84-68 0.03-0.03 0.04-0.02 0.06-0.03zm294.63 2.97c-11.44 0.07-23.43 1.27-33 2.19-4.19 0.4 12.8 79.84 13.53 88.78 0.39 0.38 1.85 0.51 3.25 0.25 22.74-3.61 49.11-5.64 69.53-11.78 7.04-2.12-10.88-54.99-13.94-63.28-1.96-5.34-6.39-11.04-15.12-13.6-6.81-1.99-15.36-2.61-24.25-2.56zm-356.53 0.78c-1.01 0.2-2.58 2.87-2.94 4-3.52 5.5-7.42 10.76-10.97 16.25-3.73 6.34-8.77 11.81-12.28 18.28-4.36 5.89-7.5 12.63-12.44 18.1-0.98 3.69-4.83 5.43-6.62 8.62l0.15 0.35 0.13 0.31c2.31 2.45 5.09-2.24 5.03-4.47 2.71-4.69 6.69-8.52 9.28-13.28 1.44-3.2 2.82-6.54 5.38-9.03 4.56-6.24 8.5-12.9 13.09-19.13 3.01-3.53 5.52-7.45 7.59-11.59 1.23-3.03 3.86-5.15 5.19-8.1-0.15-0.26-0.36-0.35-0.59-0.31zm178.37 2.84c1.1 0 2 0.46 2 1 0 0.56-0.9 1-2 1s-2-0.44-2-1c0-0.54 0.9-1 2-1zm123.5 0c-20.17 2.15-55.09 3.35-57.87 6.97-3.02 3.94-15.15 45.67-22.19 67.79-0.72 2.07-4.31 18.57-2.5 20.46 5.15 5.39 7.42 8.83 16.31 8.22 8.04-1.52 17.34 0.7 24.91-2.65 0.63-1 0.8-1.01 0.81-0.03 0.01 0.68 1.16 1.24 2.53 1.24 1.38 0 2.5-0.38 2.5-0.84 15.51-4.49 32.04-4.67 47.81-8.16 0.19-0.54 0.95-1 1.66-1 5.25-27.86-2.64-56.75-6.22-83.84-0.97-7.33-3.25-8.16-7.75-8.16zm-157.53 0.19c3.11 1.08 9.54 2.09 11.69 6.44 4.53 6.73-0.42 12.76-2.53 19.09-3.29 5.88-3.4 12.62-5.63 18.75-4.65 2.78-9.5 6.08-14.53 8.53-0.12-0.24-0.25-0.47-0.37-0.71-5.91-0.93 1.05-10.21 0.84-14.41 1.63-6.76 4.7-13.1 5.03-20.22 1.69-5.83 3.16-11.86 5.5-17.47zm45.97 1.81c1.13 0 2.06 0.46 2.06 1 0 1.3-2.7 1.3-3.5 0-0.34-0.54 0.31-1 1.44-1zm146.47 1.29c10.79-0.02 21.61 1.08 32.22 1.56 6.7 0.3 5.98 1.09 9.44 20.84 2.34 16.55 3.16 34.41 8.46 50.13 2.37 1.8-1.2 4.1-3.03 2.25-1.72-10.93-3.32-21.97-4.75-32.88-15.61-4.85-33.3-0.78-48.25-5.62-1.94-11.84-4.87-23.91-4.87-35.85 3.58-0.32 7.18-0.43 10.78-0.43zm-58.69 1.59c10.82-0.09 20.95 0.84 23.47 1.41 8.6 13.2 10.88 67.65 10.78 84.47-2.98-13.75-3.25-31.36-6.09-45.85-2.15-10.97-39.82-9.23-46.22-7.65-2.06 0.7-4.93-18.16-5.69-22.5-0.01-1.89-0.34-2.76-0.78-2.07-0.76 22.34 3.3 51.32 9.94 77.31 0.73 2.86 1.03 6.26 0.12 8.91-6.23-19.46-15.89-70.88-13.15-89.41 5.29-3.44 16.8-4.53 27.62-4.62zm-79.81 0.19c2.28-0.14 5.57 1.01 7.69 2.25 9.66 3.06 14.86 15.74 9.65 24.53-0.31 0.74-0.59 1.52-1.18 2.09-3.69-2.49-8.31 0.83-12.04-2.06-3.38-6.38-4.01-14.22-5.78-21.34-1.89-3.91-0.62-5.34 1.66-5.47zm181.72 0.81c14.26 0.25 21.4 28.67 21.47 40.38 0.01 2.21-17.24 1.22-18.16-0.91-2.25-5.23-4.13-31.5-6.25-39.13 1.01-0.24 1.99-0.36 2.94-0.34zm-134.69 6.28c0.97-0.09 2.07 0.47 2.19 1.5 0.2 7.08 1.51 14.56 0.5 21.47-2.7 1.89-7.16 1.35-10.13 0.22-1.01-5.66 4.5-16.55 6.07-22.28 0.26-0.57 0.79-0.85 1.37-0.91zm-87.19 41.69c-0.17-0.01-0.34 0-0.53 0.03-1.07 0.35-2.23 0.06-3.34 0.09-3.91 0.12-7.94 0.15-11.63 1.63-2.04 2.57-6 3.1-7.34 6.31 0.33 2.67 2.7 0.22 2.9-1.03 2.54-1.72 5.69-0.49 8.5-0.88 4.26-0.01 8.54 0.15 12.76-0.53 2.47-1.29 1.28-5.51-1.32-5.62zm11.47 2.47c-3.11 0.09-4.17 5.56-0.78 6.12 3.34-0.91 15.33 5.01 11.84 1.38-2.18-2.79-5.06-5.24-8.59-6.03-0.91-0.33-1.79-0.78-2.47-1.47zm-55.03 3.72c0.61 1.39-3.58 2.42-0.84 3.06 2.78 1.08 1.03 5-1.35 5.44-1.96 1.06-4.25 1.9-6.5 1.37-3.22 0.12-4.95 4.92-2.4 6.97 2.64 0.51 3.39-4.29 6.34-2.66 1.84 1.14 3.54 4.21 5.94 2.19 1.37-1.15 3.45 0.68 1.4 1.56-1.46 1.09-2.35 4.15-0.06 4.79 2.8 0.24 5.42 1.39 7.81 2.81 3.59 1.6 7.65 0.92 11.38 1.81 2.67 0.82 4.12-3.82 1.12-3.94-2.22-1.03 1.57-4.07 2.97-2.09 2.43 1.43 2.48 4.3 1.63 6.69-0.15 2.84 4.35-0.68 5 2.12 1.35 2.53 4.3-0.44 2.25-2.19-1.39-3.57-3.47-7.26-7.1-8.93-2.42-1.66-4.82-3.54-7.81-4-3.17-0.64-6.45-0.76-9.66-0.5-2.49 0.8-5.28 0.33-7-1.78-1.48-1.17-3.37-2.84-1.21-4.5 1.79-1.16 2.11-3.36 3.71-4.44 1.66-2.6-2.63-1.13-3.81-2.35-0.7-0.33-1.34-0.81-1.81-1.43zm-110.91 0.03c-0.74 0-1.28 0.65-1.28 1.93 0 1.47 0.66 2 2.5 2 2.26 0 2.38-0.19 1.25-2-0.8-1.28-1.73-1.93-2.47-1.93zm-36.65 1.93c-2.48 0-4.79 0.46-5.13 1-0.37 0.62 1.13 1 3.88 1 2.47 0 4.78-0.44 5.12-1 0.38-0.6-1.13-1-3.87-1zm199.84 1c-2.37 2.5-1.34 6.14-1.56 9.22 0.13 3.68 0.48 7.45 2 10.85 2.68 1.96 6.08 3 8.19 5.69 2.64 2.16 3.6-2.68 1.03-3.5-2.2-2.31-5.73-2.51-8-4.66-2.62-2.81-2.98-7.54-0.78-10.69 2.38-2.17 4.9 1.49 7.5 1.22 2.51-0.02 4.57 1.46 5.96 3.44 1.76 1.86 4.12 2.96 5.54 5.19 1.11 1.86 4.08 0.27 1.93-1.29-2.33-1.78-4.13-4.05-6.28-6.03-2.88-2.61-6.44-4.79-10.43-4.94-2.49-0.35-3.55-2.88-5.1-4.5zm-16.16 0.32c-0.16 0.02-0.37 0.07-0.65 0.15-2.78 0.17-5.68 0.09-8.28 1.22 2.05 2.3 5.8 1.69 7.97-0.12 0.82-0.13 2.14-1.39 0.96-1.25zm6.69 0.68c-2.7 3.65-8.56 2.79-10.84 6.91-1.19 1.67-2.06 4.39-0.53 6.09 3.17 1.35 2.49-4.03 4.62-5.18 2.13-1.97 4.8-3.18 7.22-4.66 0.82-0.92 0.75-2.61-0.47-3.16zm-23.47 0.57c-0.22 0.04-0.54 0.25-0.93 0.62-1.01 0.94-1.08 1.5-0.25 2.03 0.82 0.53 0.8 0.74-0.1 0.75-0.68 0.01-1.25 0.71-1.25 1.53 0 2.32 1.7 1.78 2.38-0.74 0.79-2.97 0.84-4.33 0.15-4.19zm50.22 2.5c-0.18 2.96 4.12 2.82 5.06 5.31 2.43 0.54-0.8-2.17-1.5-2.72-1.08-0.89-2.17-2.34-3.56-2.59zm13.19 0c-0.87 0.01-0.74 0.46 0.03 1.9 1.23 2.31 3.53 2.27 3.53-0.06 0-0.78-1.06-1.57-2.34-1.75-0.53-0.07-0.93-0.1-1.22-0.09zm242.66 0.06c-0.13 0.01-0.26 0.03-0.41 0.06-0.91 0.18-1.82 1.11-2 2.07-0.48 2.48 2.47 2.19 3.12-0.32 0.36-1.34 0.16-1.86-0.71-1.81zm-206.16 3.03c3.91-0.03 13.02 1.01 19.91 1.69 1.98 0.07 5.23 19.44 6.5 25.69-9.11 2.29-32.76 7.62-38.44-4.28 0.98-18.85 3.43-23.04 12.03-23.1zm-213.31 1.81c-0.2-0.02-0.41-0.01-0.63 0.03-4.25 0.7 1.64 4.66 3.6 2.97 7.38 0.67 14.92 0.58 22.03 2.94 4.62 0.21 9.22 0.49 13.68 1.72 1.54 0.22 5.63 0.56 5.57-0.31-5.05-0.74-9.94-2.1-14.88-3.28-8.51-1.36-17.13-2.03-25.75-2.22-1.38-0.19-2.27-1.7-3.62-1.85zm242.56 0.32c4.49 0 12.59 1.55 16.31 1.59 12.76 0.12 25.75 4.04 27.5 18.03-8.02-1.19-33.6 7.43-37.9 4.72-4.53-6.15-8.91-24-7.57-24.22 0.48-0.07 1.02-0.12 1.66-0.12zm-70.12 2.09c-0.11 0-0.19 0.01-0.26 0.03-0.44 0.14-0.14 0.93 0.66 3.03 1.23 3.23 3.03 3.31 3.03 0.16 0-1.54-0.7-2.57-2-2.91-0.65-0.17-1.13-0.3-1.43-0.31zm316.74 2.09c3-0.09 8.18 0.98 9.91 1.44 2.17 0.57-4.7 0.95-8.47 0.38-3.46-1.28-3.23-1.76-1.44-1.82zm-377.68 1.69c1.55-0.05 1.47 3.06-0.06 3.5-0.86 2.53-4.41 1.65-5.16-0.31-1.33 0.4-5.19 1.02-2.94-1.25 2.06-1.37 4.64-1.19 6.97-1.69l0.44-0.03c0.29-0.15 0.53-0.21 0.75-0.22zm-60.63 1.84c-4.48 0.46 3.63 3.19 0.75 0.13-0.25-0.04-0.49-0.09-0.75-0.13zm451.1 1.79c0.22 0.01 0.53 0.12 0.9 0.37 0.74-0.08 1.72 2 2.28 5.91 0.44 2.98 0.62 6.56 0.41 7.93-1.7-4.12-5.8-14.32-3.59-14.21zm-414.72 0.21c-0.83 0-1.22 0.46-0.88 1 0.34 0.56 1.3 1 2.13 1 0.82 0 1.21-0.44 0.87-1-0.34-0.54-1.3-1-2.12-1zm-30.63 0.29c-3.78 0.79 2.65 2.59 4.03 1.65 4.78 0.71 9.23 2.95 14.1 3.22 4.21 0.33 7.83 2.68 11.97 2.88 1.37 0.4 6.92 2.5 5.75 0.18-4.97-3.95-11.82-2.57-17.53-4.5-3.74-1.36-7.52-2.55-11.5-2.9-2.27-0.28-4.54-0.45-6.82-0.53zm-6.72 1.65c-0.25 0.01-0.5 0.03-0.75 0.06-5.47 2.22 6.24 5.13 2.91 0.41-0.66-0.38-1.4-0.49-2.16-0.47zm-177.09 3.22c-1.56 0.39-2.84 0.88-3.25 1.28-0.79 0.79-3.8 1.84-6.91 2.6 0.05-0.52 0.12-1.04 0.13-1.47 0.04-1.49 0.28-2.19 0.53-1.57 0.54 1.34 3.91 1.53 3.91 0.22 0-0.49 1.05-0.9 2.34-0.9 1.15 0 2.24-0.05 3.25-0.16zm183.75 0.22c4.46 3.66 10.45 4.11 15.94 4.81 6.09 3.64 13.89 2.11 19.84 6.13 1.53 1 6.12-0.07 2.38-1.35-4.85-2.18-10.38-2.26-15.13-4.71-4.99-1.55-10.41-1.53-15.19-3.79-2.54-0.74-5.2-1.02-7.84-1.09zm347.56 0.06c-3.56 0.04-7.05 0.86-10.59 1.19-2.2 0.11-4.62 0.45-6.63-0.69-0.87-0.44-2.39-0.58-2.62 0.66 0.02 1.4 0.13 2.94 1.03 4.09 1.68 1.61 4.12 1.97 6.34 2.19 2.66 0.4 5.4-0.15 8 0.62 1.52 0.05 1.9 2 3.32 2.26 0.53-0.84 2.41-1.78 2.9-0.26 0.55 0.71 1.5 0.8 2.31 0.6 2.21-0.58 4.05-2.29 5.04-4.31 0.63-1.02 0.68-2.89-0.78-3.19-3.63-0.08-7.24-0.05-10.85 0.31-1.4 0.01-2.72 0.48-4.09 0.66-1.34 0.29-1.59-1.48-0.35-1.78 1.9-0.52 3.93-0.22 5.85-0.6 0.99 0.25 2.79-1.45 1.12-1.75zm3.25 4.56c0.83 0 1.5 0.68 1.5 1.5 0 1.57-1.19 1.97-2.34 0.82s-0.72-2.32 0.84-2.32zm-98.62 10.57c0.95 0 2.4 0.23 4.37 0.69 5.07 1.15 6.37 2.74 2.25 2.74-1.37 0-2.5-0.44-2.5-1 0-0.54-0.66-1-1.43-1-0.78 0-1.57 0.42-1.76 0.91-0.18 0.5-0.88 0.27-1.56-0.47-1.16-1.26-0.96-1.88 0.63-1.87zm176.37 3.53c-2.91-0.07-5.25 0.35-5.25 0.9 0 1.14 3.06 1.14 7.5 0 2.57-0.65 2.24-0.8-2.25-0.9zm-185.65 0.59c0.96 0 1.78 0.14 1.97 0.44 0.29 0.48-0.82 0.87-2.5 0.87-1.69 0-3.07-0.19-3.07-0.4 0-0.53 1.98-0.9 3.6-0.91zm-172.63 1.44c-1.6 0.01-3.41 0.05-5.5 0.09-16.59 0.34-17 0.59-13.12 9.07 2.63 5.76 4.65 7.38 4.65 3.71 0-1.1-0.41-2-0.9-2s-1.17-1.08-1.5-2.4c-0.34-1.33-0.85-3.07-1.16-3.88-0.48-1.24 1.21-1.45 11-1.34 10.91 0.12 14.65 1.21 10.06 2.97-1.02 0.39-1.5 2.01-1.5 5.09 0 4.43-0.04 4.49-2.56 3.53-1.41-0.53-3.66-0.97-5-0.97-2.7 0-3.28-1.47-0.94-2.37 1.61-0.62 2.1-4.63 0.57-4.63-2.06 0-4.07 1.29-4.07 2.6 0 0.76-0.43 1.4-0.93 1.4-0.51 0-1.47 1.69-2.13 3.76-0.66 2.06-1.53 4.19-1.94 4.74-0.41 0.56-1.04 3.07-1.4 5.6-0.62 4.27-0.98 4.69-4.66 5.9-2.18 0.72-3.94 1.95-3.94 2.72 0 1.43 10.79 0.87 12-0.62 0.96-1.18 4.97-3.1 6.47-3.1 0.83 0 1.53-0.67 1.53-1.5 0-2.21-6.59-2-8.03 0.26-0.95 1.49-1.04 1.38-0.56-0.76 0.3-1.37 0.6-3.85 0.66-5.5 0.05-1.64 0.31-2.43 0.59-1.74 0.6 1.48 4.34 1.69 4.34 0.24 0-0.54 1.17-1 2.6-1 10.15 0 15.37-3.82 16.09-11.74 0.65-7.2 0.5-8.21-10.72-8.13zm377.34 6.63c5.39-0.1 2.83 8.23 3.69 24.24 0.16 5.91 1.04 12.26-2.5 17-1.54 3.54-6.21 8.31-2.93 12 0.79 0 1.43 0.68 1.43 1.5-7.58 12.28-19.34 24.79-33.4 28.82 3.7-4.81 4.32-12.72 5.4-18.41 0-8.87-2.3-7.36-3.15 2.06-1.31 7.5-3.53 14.38-8.19 20.16-1.28 2.68-5.21 1.63-6.66-0.63 4.36-3.93 9.91-10.15 7.78-23.4-0.63-5.44 6.09-1.11 4.85-4.6-1.67-1.66-3.73-1.29-8.63-0.5-11.17 1.81-25.66 2.18-48.28 16.5-9.58 11.69-8.75 28.56-18.19 39.88-2.47 2.88-2.5 2.88-1.87-4 1.73-15.79 3.55-43.26 23.28-46.78 5.07-0.67 5.06-0.66 5.06-6.13 0-4.52 0.3-5.49 1.75-5.53 4.36-0.1 29.3-3.64 29.91-4.25 1.55-1.55-25.86 0.97-29.91 2.75-1.62 0.72-1.75-0.37-1.75-15.34 0-13.65 0.04-16.69 1.31-16.69 12.97-6.13 25.81-4.61 41.5-9.03 17.65-4.97 13.66 0.92 15.19 11.19 0.92 6.13 14.02-1.88 13.97-6.81-0.28-6.8-0.7-12.05 7.53-13.44 1.13-0.36 2.05-0.55 2.81-0.56zm-384.21 9.24c3.11 0 3.88 1.39 1.31 2.38-2.98 1.14-5.39 0.71-4.78-0.88 0.33-0.85 1.82-1.5 3.47-1.5zm-12.1 4c-31.63 6.84-62.92 14.5-94 23.6-5.19 1.58-10.37 3.24-15.25 5.66 3.47 1.29 7.47-2.35 11.19-2.82 29.21-10.05 59.93-14.34 89.72-22.03 2.76-1.12 6-0.71 8.62-1.72 0.64-0.78 0.46-2.03-0.28-2.69zm214.5 6c-1.79 0-2.75 3.17-1.93 6.41 0.72 2.91 5.43 3.85 5.43 1.09 0-0.94-0.97-1.5-2.62-1.5-1.97 0-2.46-0.4-2-1.59 0.33-0.87 0.62-1.77 0.62-2s0.45-0.41 1-0.41 1 0.74 1 1.66 0.27 1.39 0.6 1.06c1-1-0.65-4.72-2.1-4.72zm-223.97 1.41c-5.09 1.28-10.5 2.7-15.4 3.85-0.94 0.21-2 2.66-0.89 2.35 5.45-1.54 10.62-1.95 15.98-3.4 0.93-0.25 1.97 0.21 2.81-0.3 0.77-0.39 1.03-1.72 0.16-2.12-0.85-0.25-1.76-0.39-2.66-0.38zm-23.68 6.22c-10.61 2.66-21.4 4.8-31.72 8.47-14.98 2.29-29.16 7.58-43.44 12.37-5.39-0.34-10.6 1.64-15.38 3.94-3.41-2.8-8-1.09-11.24 1.03-4.11 1.66-9.85 2.78-10.88 7.88-0.91 6.54 4.94 0.37 7-0.82 5.12-0.54 10.37-1.52 14.81-4.24 27.58-10.1 56.12-17.43 84.53-24.79 1.87-0.43 9.3-1.37 6.32-3.84zm-408.97 8.94c3.402-0.06 7.082 1.42 7.093 3.06 0.005 0.63 1.174 2.2 2.594 3.5 6.981 6.37 7.809 12.27 1.875 13.47-3.034 0.61-5.81 1.43-6.188 1.81-0.968 0.97 1.944 2.62 3.75 2.13 9.007-2.47 10.869 7.78 2.876 15.78-7.265 7.26-20.297 5.09-13.876-2.32 1.1-1.26 2-3.33 2-4.59 0-2.6 1.549-4.05 2.313-2.15 0.279 0.69 0.55 0.22 0.594-1.04 0.043-1.25 0.829-2.56 1.719-2.9 1.349-0.52 1.215-0.83-0.75-1.88-1.296-0.69-2.706-1.07-3.126-0.81-0.419 0.26-0.75 0.23-0.75-0.09 0-0.33 1.013-1.01 2.25-1.5 2.716-1.1-4.14-1.44-8-0.41-3.715 1-2.535 2.49 1.5 1.91 3.75-0.55 3.743-0.54-0.937 1.56-2.574 1.15-4.97 2.82-5.313 3.72-0.342 0.89-0.297 1.29 0.094 0.9s1.325-0.2 2.063 0.41c0.754 0.63 1.343 0.7 1.343 0.16 0-1.04 4.376-3.42 7.313-3.97 1.09-0.21 1.524 0.1 1.125 0.75-0.364 0.59-1.178 0.85-1.844 0.59-0.666-0.25-2.315 0.38-3.656 1.41-1.872 1.44-2.053 1.89-0.781 1.9 1.406 0.02 1.482 0.39 0.5 2.5-1.362 2.94-2.446 3.2-3.438 0.79-0.395-0.97-1.393-1.76-2.219-1.76-1.011 0-1.603-1.22-1.812-3.74-0.253-3.07 0.022-3.77 1.5-3.79 1.489-0.01 1.538-0.18 0.344-0.93-0.799-0.51-1.811-0.68-2.25-0.41s-0.782-0.43-0.782-1.56 0.338-2.04 0.75-1.97c0.413 0.06 4.036 0.06 8.063 0 11.78-0.19 6.046-3.71-6.563-4.03-4.153-0.11-1.761-10.21 2.876-12.13 1.573-0.65 2.874-1.75 2.874-2.44 0-0.68 1.54-1.5 3.438-1.81 0.462-0.07 0.951-0.11 1.438-0.12zm845.47 3.53c5.88 0.31 11.7 2.79 10.28 8.16-0.5 1.86-0.33 1.91-11.78 1-7.78-0.88-2.32-6.89 1.5-9.16zm-521.35 4.9c-0.55 0-1 0.63-1 1.41 0 0.79-0.78 1.66-1.75 1.91-0.96 0.25-1.23 0.5-0.59 0.56 2.11 0.21 4.34-1.08 4.34-2.5 0-0.77-0.45-1.38-1-1.38zm427.97 8.85c1.75 0.09 3.3 1.43 3.13 3.59-0.68 3.47-3.99 6.26-7.32 6.72-4.89 0.68-10.41 4.76-12.78 8.91-4.11 7.21-4.79 14.55-8.37 21.93-3.14 3.16-8.4 1.4-11.72 4.26-1.96 1.41-4.46 1.97-6.84 1.68-7.36-1.46-7.48-10.54-7.76-16.62-0.01-12.95 11.46-21.3 22.54-25.41 9.19-2.91 18.92-3.58 28.37-5.03 0.26-0.04 0.5-0.04 0.75-0.03zm91.41 2.91c1.68-0.09 3.55 0.54 4.62 1.74-2.63 0.01-5.14 5.87-6.5 6.5-1.08 0-1.5-1.11-1.5-4-0.63-2.83 1.22-4.13 3.38-4.24zm-303.88 2.28c-8.08 0.1-23.14 5.69-31.53 6.93-41.97 9.39-83.87 19.36-125.84 28.72-16.4 4.9-33.35 7.42-49.75 12.16 2.84-0.21 9.22-1.6 13.59-1.72 23-3.08 45.25-10.32 67.94-15.19 32.33-6.04 63.83-15.88 96.22-21.53 11.13-3.94 23.54-2.88 34.25-7.94-0.87-1.04-2.61-1.46-4.88-1.43zm-408.97 0.87c-4.47 0.39-0.56 9.57-7 7.63-4.26 0.76-8.01-2.23-12.18-1.5-5.22 2.37 4.22 4.16 6.43 4.37 3.54 1.73 6.51 4.8 10.44 5.81 3.95 1.07 7.59 1.96 10.81 3.13 4.05-3.77 9.55-2.91 14.63-3.25 2.88 0.32 10-1.29 3.94-2.97-4.73-0.14-9.24-1.53-13.57-3.37-2.2-0.89-8.68-0.27-4.81-3.72 1.03-4.69-4.63-6.32-8.22-6.13-0.16-0.01-0.32-0.01-0.47 0zm1.75 3.41c0.18-0.03 0.36-0.03 0.53 0 5.87 1.76-5.08 5.1-1.93 0.68 0.39-0.33 0.88-0.61 1.4-0.68zm-133.59 4.87c0.36-0.06 0.345 0.49 0.156 1.78-0.19 1.31-0.906 2.56-1.594 2.79-1.799 0.59-1.543-2.28 0.344-3.85 0.523-0.43 0.878-0.68 1.094-0.72zm290.69 0.03c8.39-0.32 13.2 4.3 19.31 9.54 7.92 6.79 14.72 26.19 8.16 26.37-8.61 0.24-16.36-0.33-16.69-1.22-0.46-1.23-3.16-1.15-3.16 0.09 0 0.56-1.12 1-2.5 1-1.37 0-2.5 0.49-2.5 1.1 0 0.68 0.96 0.89 2.5 0.5 1.85-0.46 2.5-0.25 2.5 0.87 0 1.39 3.78 2.08 9.88 1.79 1.51-0.08 0.87 8.62-0.72 9.68-0.46 0.31-1.35 2.04-1.97 3.85-1.68 4.9-5.75 8.21-10.12 8.21-1.14 0-2.07 0.46-2.07 1 0 0.56-1.57 1-3.5 1-1.92 0-3.5-0.44-3.5-1 0-0.54-1.12-1-2.5-1-1.37 0-2.5-0.44-2.5-1 0-0.54-0.37-0.88-0.81-0.74-1.56 0.48-6.5-5.85-9.44-12.07-5.61-11.86-2.45-32.19 5-32.19 0.69 0 1.25-0.45 1.25-1 0-1.43 2.7-1.23 3.41 0.26 0.33 0.68 0.44 0.34 0.25-0.76-0.29-1.62 0.24-2.02 2.75-2.12 5.24-0.21 12.59 1.68 12.59 3.25 0 0.79 0.79 1.73 1.75 2.09s2.3 1.36 2.97 2.22c1.6 2.05 2.08-0.55 0.16-3.72-2.63-4.32-7.51-7.11-12.1-9.34-0.59-0.25-3.04-1.17-6.47-1.25-6.81-0.17-5.29-1.74-0.93-3.72 4.35-1.98 5.81-1.56 9-1.69zm176.31 0.16c-4.01 0.47-8.02 1.05-12 1.72-10.75 2.35-21.77 3.09-32.5 5.56-5.42 1.46-11.7 1.01-16.19 4.91 1.19 2.76 4.49 0.22 6.16-0.75 9.96-3.07 20.47-3.51 30.75-4.85 8.1-1.29 16.75-1.93 23.78-6.59zm-334.19 0.06c4.56 2.1-3.55 4.75-1.31 0.28l0.41-0.18 0.9-0.1zm-5.22 0.6c0.17-0.01 0.33-0.01 0.5 0 1.57 2.11 2.11 6.49-1.59 3.81-2.92-1.44-1.34-3.68 1.09-3.81zm9.91 1.09c3.28 3.56 11.55 1.84 13.5 3.59-4.3-1.17-8.22 4.37-11.44 1.07-1.85-1.3-6.87 4.01-6.22-1 1.53-0.97 4.81-0.95 4.16-3.66zm-109.97 3.06c0.446 0.03 0.781 0.39 0.781 1.13 0 0.81-0.728 1.73-1.593 2.06-1.097 0.42-1.475 0.1-1.25-1.06 0.256-1.33 1.319-2.17 2.062-2.13zm243.85 6.81c0.51 0 0.03 0.9-1.07 2s-2 2.86-2 3.91c0 1.06-0.57 2.12-1.25 2.35-0.72 0.24-1.45 2.91-1.75 6.4-0.35 4.21-0.87 5.89-1.75 5.6-1.45-0.5-1.77-10.26-0.34-10.26 0.5 0 1.22-1.8 1.59-4 0.51-2.98 1.15-4 2.53-4 1.02 0 2.13-0.45 2.47-1 0.34-0.54 1.05-1 1.57-1zm-238.94 0.57c-1.176 0.13-1.752 1.07-1.907 2.93-0.112 1.37 0.238 2.5 0.781 2.5 0.544 0 1-0.64 1-1.43s1.013-1.77 2.25-2.16c2.171-0.69 2.18-0.75 0.25-1.44-0.711-0.25-1.328-0.37-1.843-0.4-0.194-0.01-0.364-0.02-0.531 0zm-8.626 1.43c2.072 0 1.89 1.64-0.25 2.26-0.962 0.27-2.65 0.8-3.75 1.15-1.519 0.49-1.459 0.37 0.25-0.53 1.238-0.65 2.25-1.57 2.25-2.03 0-0.47 0.676-0.85 1.5-0.85zm379 0c-0.82 0-1.5 0.45-1.5 1 0 0.56 0.68 1 1.5 1 0.83 0 1.5-0.45 1.5-1 0-0.54-0.67-1-1.5-1zm-9.62 2.94c-1.17-0.03-3.14 0.17-5.38 0.5-3.57 0.54-6.5 1.32-6.5 1.75 0 0.44-0.9 0.81-2 0.81s-2 0.36-2 0.82c0 0.45 2.7 0.4 6-0.13s6-1.37 6-1.84c0-0.48 1.13-0.85 2.5-0.85 1.38 0 2.5-0.35 2.5-0.78 0-0.16-0.42-0.26-1.12-0.28zm375.34 2.19c0.23-0.05 0.53 0.13 0.91 0.59 4.47 5.89 3.14 13.73 5.75 20.32 0.07 6.03 0.63 12.28-1.25 18.12-1.6 5.58-1 11.64-4.44 16.66-1.49 5.06-4.29 9.65-7.81 13.59-1.37 1.42-3.07 2.49-4.91 3.19-5.95 2.93-11.39-1.25-13.22-6.88-2.82-3.54-4.06-8.27-4.09-12.78 2.74 1.22 2.09 10.73 6.72 12.88 3.59 4.62 8.65 2.55 11.53-1.75 3.34-3.99 6.89-8.96 9.31-13.03-5.59-3.44-5.89 12.39-10.87 4.46 3.33-2.74 6.76-5.18 10.78-7.93 1.64-6.81 1.71-13.86 2.03-20.81 0.74-6.09-1.93-11.88-1.41-18 0.32-1.76-0.28-8.37 0.97-8.63zm-10.19 0.87c0.78 0.03 1.52 0.25 2.1 0.85 0.9 1.69-1.32 3.41-0.41 5.28 0.19 2.11 2.06 3.24 3.13 4.84 0.85 2.85 0.58 5.9 0.28 8.82-0.21 1.78-2.22 2.63-2.38 4.37-1.92 0.16-4.07 0.24-5.34 2.16-1.37 1.84-3.44 2.7-5.63 2-0.99 1.13-2.85 2.61-4.31 1.06-0.98-2.22-0.1-4.79-0.9-7.03-1.72 0.66-1.23 4.09-1.5 5.91-0.11 0.91 0.07 1.9-0.35 2.74-1.77 2.73-2.91-1.57-2.75-3.12 0.04-2.31-0.27-5.1 1.53-6.88 2.01-2.63 2.2-6.15 3.53-9.12 0.52-2.03 2.71-3.17 3.04-5.25 1.32-2.51 3.71-4.28 6.12-5.69 1.1-0.45 2.55-0.98 3.84-0.94zm-715.03 1c0.55 0 1 0.68 1 1.5 0 0.83-0.45 1.5-1 1.5s-1-0.67-1-1.5c0-0.82 0.45-1.5 1-1.5zm328.78 0.19c-0.6 0.03-1.36 0.11-2.31 0.25-2.73 0.41-5.19 1.12-5.47 1.56-0.27 0.45-2.19 1.12-4.25 1.5-2.19 0.42-3.75 1.29-3.75 2.1 0 1.55 1.64 1.9 2.16 0.47 0.18-0.51 3.27-1.5 6.84-2.22 7.26-1.46 11.04-3.85 6.78-3.66zm-332.78 0.81c0.55 0 1 0.68 1 1.5 0 0.83-0.45 1.5-1 1.5s-1-0.67-1-1.5c0-0.82 0.45-1.5 1-1.5zm719.66 6.04c-0.54 0.04-1.24 0.23-2.09 0.56-0.87 0.33-1.57 1.46-1.57 2.5s0.45 1.9 1 1.9 1-0.67 1-1.5c0-0.82 0.68-1.5 1.5-1.5 0.83 0 1.5-0.45 1.5-1 0-0.71-0.45-1.04-1.34-0.96zm-721.81 0.87c0.212-0.04 0.477 0.07 0.75 0.35 0.324 0.32 0.395 1.4 0.156 2.4-0.414 1.75-0.475 1.75-1.218 0.03-0.588-1.35-0.323-2.67 0.312-2.78zm5.75 0.09c0.767 0 1.406 0.68 1.406 1.5 0 0.83-0.45 1.5-1 1.5s-1 0.9-1 2 0.41 2 0.938 2 1.53 1.8 2.19 4 1.57 4 2.03 4 0.84 0.57 0.84 1.29c0 1.75 2.32 6.67 3.16 6.68 0.37 0.01 1.23 1.71 1.91 3.75 1.41 4.29 3.1 6.28 5.34 6.28 0.9 0 1.59 0.85 1.59 2 0 1.1-0.33 1.98-0.75 1.94-2.34-0.21-5.36-2.6-6.47-5.09-0.69-1.57-1.78-2.85-2.4-2.85s-1.43-1.8-1.78-4c-0.36-2.2-1-4-1.47-4s-1.43-2.68-2.13-5.96c-0.82-3.88-1.836-6.16-2.904-6.5-2.128-0.68-1.668-8.54 0.5-8.54zm17.684 0.07c0.06-0.03 0.13 0 0.19 0.06 0.26 0.26 0.21 2.12-0.12 4.16-0.68 4.17-2.35 5.04-2.35 1.21 0-1.37 0.45-2.5 1-2.5s1-0.77 1-1.68c0-0.69 0.12-1.17 0.28-1.25zm-13.31 0.15c0.55-0.05 1.03 0.44 1.03 1.6 0 1.08-0.7 2.23-1.56 2.56-1.17 0.45-1.49 0.06-1.25-1.56 0.23-1.57 1.07-2.53 1.78-2.6zm3.53 0.78c0.83 0 1.5 0.68 1.5 1.5 0 0.83-0.67 1.5-1.5 1.5-0.82 0-1.5-0.67-1.5-1.5 0-0.82 0.68-1.5 1.5-1.5zm224.5 0c-1.1 0-2 0.45-2 1 0 0.56-0.67 1-1.5 1s-1.5 0.89-1.5 2c0 1.34 0.67 2 2 2 1.1 0 2-0.44 2-0.96 0-0.53 2.59-1.1 5.75-1.28 5.75-0.34 5.75-0.32 1.5-1.16-2.34-0.47-4.25-1.24-4.25-1.72s-0.9-0.88-2-0.88zm-211.4 2c1.05 0 1.39 0.53 1 1.57-0.34 0.87-0.6 2.67-0.6 4s-0.45 2.43-1 2.43-1-1.8-1-4c0-3 0.39-4 1.6-4zm9.5 0.04c0.14-0.03 0.25 0 0.34 0.09 0.2 0.2 0.13 1.61-0.16 3.13-0.55 2.89-3.28 3.85-3.28 1.15 0-1.37 2.1-4.17 3.1-4.37zm-5.35 0.56c0.79-0.05 1.01 1.1 0.91 4.47-0.08 2.71-0.16 4.88-0.16 4.84s-0.56-0.28-1.25-0.56c-1.74-0.7-1.61-8.01 0.16-8.69 0.14-0.05 0.23-0.05 0.34-0.06zm9.35 0.4c0.67 0 0.89 0.9 0.53 2.26-0.33 1.23-0.62 2.81-0.63 3.5-0.01 0.68-0.67 1.24-1.5 1.24s-1.5-0.88-1.5-2c0-1.1 0.45-2 1-2s1-0.67 1-1.5c0-0.82 0.48-1.5 1.1-1.5zm182.78 0.54c0.36 0.02 0.72 0.25 1.09 0.72 0.35 2.79 3.92 2.94 5 5.24 1.4 9.26 6.39 18.07 14.1 23.5 2.27 0.75 3.66 4.03 1.71 5.82-1.81 2.42-4.77-0.32-3.81-2.72-0.97-1.64-4.47-2.41-5.22-4.91-0.09-2.47-3.04-0.92-2.4 0.88 1.46 3.13-3.16 2.89-4.91 3.81-2.74 0.13-4.81 2.88-4.63 5.53-2.07 1.84-1.56 5.59 0.76 7 1.08 0.83 0.71 2.64-0.32 3.35-2.77 0.82-3.48-3.48-4.09-5.44-0.87-3.18-0.99-7.09 1.59-9.53 3.05-0.53 1.57-6-1.31-4.5-1.79 1.96-3.14 4.28-4.25 6.68-1.43 2.3-0.62 5.04 0.03 7.44 1.44 2.55-2.45 4.31-3.78 1.91-1.01-2.61-0.81-5.5-1-8.25-0.12-3.09 3.26-4.46 4.37-7 1-2.52-1.54-4.51-1.71-6.91-0.07-3.35 3.03-5.33 4.9-7.69 2.22-2.88 1.65-6.75 1.88-10.15-0.82-1.52 0.45-4.9 2-4.78zm-178.88 0.46c1.15 0 1.22 0.62 0.38 3.76-0.67 2.5-3.38 3.1-3.38 0.74 0-0.82 0.45-1.5 1-1.5s1-0.67 1-1.5c0-0.82 0.45-1.5 1-1.5zm5.85 2.07c1.03 0.05 1.19 0.27 0.4 0.59-0.68 0.28-1.25 1.32-1.25 2.34 0 1.03-0.45 2.17-1 2.5-0.55 0.34-1-0.06-1-0.87 0-2.72 1.19-4.64 2.85-4.56zm192.59 0.19c-1.69 0.02-2.1 0.23-1.44 0.68 1.18 0.81 0.86 1.03-1.5 1.06-3 0.06-3 0.08-0.5 1.5 2.37 1.36 2.38 1.44 0.35 1.47-1.18 0.02-2.42 0.73-2.75 1.6-0.5 1.29-0.07 1.46 2.31 0.93 1.6-0.35 3.14-0.22 3.44 0.26 0.29 0.47-1.47 0.76-3.91 0.68s-4.44 0.31-4.44 0.85c0 0.56 1.5 0.73 3.5 0.4 3.23-0.52 4.7 0.44 2.63 1.72-0.48 0.3-0.88 1.67-0.88 3.03 0 2.49 0 2.5 2.88-0.22 1.58-1.49 3.32-2.77 3.87-2.84s1.23-0.24 1.5-0.38c0.64-0.32 2.22-0.71 3.5-0.87 0.55-0.07 1-1.33 1-2.78 0-2.49-0.21-2.6-4-2.09-2.2 0.29-4 0.37-4 0.15 0-0.75 7.25-3.41 9.28-3.41 4.87 0 0.34-1.1-6.4-1.56-1.95-0.13-3.43-0.2-4.44-0.18zm-188.59 0.74c0.63-0.01 1.15 0.48 1.15 1.5 0 0.83-0.38 1.5-0.84 1.5-0.47 0-1.34 1.02-1.94 2.26-1.21 2.5-1.57 0.66-0.59-3 0.37-1.41 1.4-2.24 2.22-2.26zm661.15 0c-0.55 0-1 0.94-1 2.07s0.45 1.77 1 1.43c1.3-0.8 1.3-3.5 0-3.5zm-657 0.19c0.59-0.01 1 0.65 1 1.72 0 1.15-0.45 2.09-1 2.09s-1 1.58-1 3.5c0 1.93 0.45 3.5 1 3.5s1 0.46 1 1c0 0.56-0.46 1-1 1-2.38 0-2.61-11.97-0.25-12.74 0.09-0.04 0.17-0.07 0.25-0.07zm3.97 0.5c0.07-0.02 0.13-0.01 0.19 0 0.82 0.16 1.45 2.89 1.41 7.38-0.06 5.54 0.3 7.34 1.62 8.31 0.93 0.68 1.99 2.48 2.38 4 0.38 1.52 1.3 3.02 2.06 3.31 0.75 0.29 1.37 1.14 1.37 1.91 0 2.42-1.77 1.52-3.15-1.6-0.73-1.64-1.64-3-2-3-0.37 0-1.12-1.35-1.69-3-0.58-1.64-1.47-3-1.97-3-1.2 0-2.37-8.5-1.59-11.59 0.43-1.71 0.92-2.59 1.37-2.72zm-38.56 0.81c0.26-0.18 0.71 0.95 1.06 2.76 0.41 2.06 1.14 3.74 1.63 3.74s0.9 0.68 0.9 1.5c0 0.83-0.44 1.5-0.97 1.5-1.13 0-3.34-7.62-2.72-9.34 0.03-0.08 0.06-0.13 0.1-0.16zm45.12 0.38c0.1-0.02-0.01 0.98-0.28 2.62-0.36 2.2-0.6 5.47-0.53 7.26 0.07 1.78 0.04 3.2-0.06 3.18-2.66-0.56-3.84-10.94-1.25-10.94 0.78 0 1.67-0.78 1.97-1.74 0.07-0.25 0.12-0.37 0.15-0.38zm660.57 1.12c1.52 0 1.02 9.01-0.6 10.63-0.82 0.83-1.5 2.38-1.5 3.44s-0.56 1.95-1.25 2c-5.98 0.39-13.1 2.13-14.53 3.56-0.74 0.75-1.98 1.37-2.72 1.37-1.02 0-1.2 1.4-0.78 6 0.3 3.3 0.35 6 0.09 6-1.28 0-1.81-1.78-1.81-6.18 0-2.66-0.45-4.82-1-4.82s-1-1.13-1-2.5c0-1.78 0.49-2.41 1.75-2.24 3.05 0.39 14.25-1.33 14.25-2.19 0-0.46 1.24-1.07 2.78-1.38 2.55-0.51 2.94-1.15 4.13-7.12 0.72-3.61 1.7-6.57 2.19-6.57zm-655.29 0.1c1.18 0.06 1.62 1.01 0.32 1.81-2.07 1.28-2.74 9.16-0.91 10.5 0.84 0.61 1.85 2.59 2.25 4.41 0.4 1.81 1.35 3.54 2.13 3.84 0.77 0.3 1.4 1.17 1.4 1.94 0 0.76-0.36 1.4-0.78 1.4-1.07 0-3.22-3.68-3.22-5.5 0-0.83-0.33-1.52-0.75-1.53-0.99-0.01-3.25-4.92-3.25-7.09 0-0.94-0.56-1.99-1.25-2.31-1-0.47-1-0.69 0-1.16 0.69-0.32 1.25-1.68 1.25-3.03s0.69-2.71 1.53-3.03c0.25-0.1 0.5-0.18 0.72-0.22 0.2-0.03 0.4-0.04 0.56-0.03zm-69.808 0.9c0.55 0 1 1.13 1 2.5 0 1.38 0.45 2.5 1 2.5s1 0.68 1 1.5c0 2.12-1.739 1.86-2.968-0.43-1.319-2.47-1.336-6.07-0.032-6.07zm74.468 0c2.01 0 1.95 2.44-0.12 4.5-1.74 1.74-2.12 7.39-0.57 8.41 0.94 0.62 3.22 4.53 3.22 5.53 0 0.31-0.45 0.56-1 0.56s-1-0.52-1-1.15-0.68-1.64-1.5-2.25c-3.45-2.57-2.65-15.6 0.97-15.6zm-39.25 0.04c0.12 0 0.36 0.59 0.81 1.72 0.5 1.23 1.27 2.24 1.72 2.24 0.46 0 1.32 1.8 1.91 4s0.66 4 0.19 4c-0.48 0-0.85-0.67-0.85-1.5 0-0.82-0.45-1.5-1-1.5s-1-0.86-1-1.93-0.45-2.23-1-2.57c-0.55-0.33-0.97-1.6-0.93-2.81 0.03-1.09 0.03-1.66 0.15-1.65zm-11.56 0.31c0.09 0.01 0.21 0.07 0.34 0.15 0.55 0.34 1 1.5 1 2.57s0.39 1.93 0.88 1.93c0.48 0 1.12 0.9 1.4 2 0.59 2.25 0.59 2.23-0.81 1.22-2.03-1.46-4.25-8.1-2.81-7.87zm-54.564 0.56c1.138 0.07 2.494 1.08 3.313 1.69 7.148 2.07 14.868 2.3 21.656 5.59 2.409 0.67 2.119 3.45 2.875 5.31 1.422 4.87 2.637 10.18 6.44 13.82 0.37 1.2-2.531 0.62-3.002 0.15-2.855-4.1-5.044-8.6-7.094-13.15-0.696-1.96-1.595-4.49-4.125-4.38-1.831-0.01-3.671-0.14-5.407-0.78-4.494-0.71-9.198-1.17-13.187-3.56-1.246-0.91-3.213-1.7-3.094-3.53 0.34-0.91 0.943-1.2 1.625-1.16zm116.4 0.09c1.68 0 2.06 2.63 0.47 3.16-1.73 0.58-2.41 10.25-0.84 11.94 2.05 2.22 3.87 5.67 3.87 7.37 0 0.84 0.45 1.53 1 1.53s1 0.68 1 1.5c0 2.65-1.6 1.6-3-1.96-0.74-1.91-1.95-3.69-2.69-3.97-0.73-0.28-1.31-1.19-1.31-2 0-0.82-0.79-1.94-1.75-2.5-0.97-0.57-1.19-1.02-0.5-1.03 1.47-0.04 1.72-3.04 0.25-3.04-1.64 0-1.18-6.72 0.5-7.37 0.83-0.32 1.5-1.25 1.5-2.09 0-0.85 0.68-1.54 1.5-1.54zm-5.09 0.16c0.05 0 0.07 0.01 0.09 0.03 0.58 0.58-1.96 7.81-2.75 7.81-0.41 0-0.75 0.68-0.75 1.5 0 0.83 0.39 1.5 0.88 1.5 0.48 0 1.12 0.9 1.4 2 0.63 2.42 0.34 2.47-1.71 0.41-2.39-2.39-2.06-9.53 0.53-11.75 1-0.86 1.96-1.48 2.31-1.5zm-64.13 0.5c0.27-0.05 0.7 0.16 1.22 0.69 0.83 0.82 1.5 2.2 1.5 3.06 0 2.04-1.62 2.04-2.4 0-0.85-2.2-0.91-3.63-0.32-3.75zm13.1 1.34c0.85 0 1.55 1.59 1.9 4.22 0.32 2.33 0.4 4.42 0.16 4.66s-0.44-0.1-0.44-0.78-0.67-1.93-1.5-2.75c-1.87-1.88-1.95-5.35-0.12-5.35zm221.78 0c-1.43 0-2.2 2.67-2.66 9.41-0.41 6.08-0.39 6.09 0.57 1.09 0.52-2.74 1.05-5.69 1.21-6.53 0.16-0.83 0.65-2.07 1.07-2.75 0.42-0.67 0.33-1.22-0.19-1.22zm-159.22 0.19c0.93-0.07 0.74 1.17-0.13 4.57-1.17 4.62-0.41 10.75 1.47 11.96 1.41 0.91 3.72 4.78 3.72 6.25 0 0.56-0.45 1.03-1 1.03s-1-0.45-1-1c0-0.54-0.79-1.87-1.75-2.93-3.8-4.19-4.2-5.12-4.84-11.38-0.62-6-0.52-6.59 1.53-7.69 0.92-0.49 1.58-0.78 2-0.81zm6.91 0.81c1.71 0 1.78 0.38 0.81 4-0.59 2.2-1.44 4-1.88 4-0.43 0-0.78 0.9-0.78 2s0.45 2 1 2 1 0.67 1 1.5c0 1.92 2.12 5.74 3.75 6.79 0.69 0.44 1.25 1.7 1.25 2.78s0.9 2.71 2 3.65c1.1 0.95 2 2.3 2 3 0 0.71 0.61 1.28 1.38 1.28 0.76 0 1.68 0.73 2.03 1.63s0.52 1.75 0.37 1.87c-0.74 0.64-8.78-8.35-8.78-9.81 0-0.92-0.38-1.69-0.84-1.69s-1.47-1.23-2.25-2.74c-0.78-1.52-1.99-3.21-2.69-3.76-3.52-2.77-2.17-16.5 1.63-16.5zm-66.07 0.47c0.18 0 0.37 0.04 0.6 0.13 0.77 0.29 1.93 2.59 2.56 5.09 0.63 2.51 0.95 4.74 0.72 4.97s-0.73-0.78-1.09-2.25c-0.37-1.47-1.33-3.29-2.13-4.09-1.63-1.63-1.86-3.8-0.66-3.85zm73.47 0.13c0.75 0 1.25 0.57 0.94 1.78-0.29 1.17-0.96 2.42-1.5 2.78-1.77 1.17-1.4 9.86 0.47 10.91 0.92 0.51 1.98 2.29 2.34 3.93 0.36 1.65 1.06 3 1.57 3 0.5 0 0.93 0.45 0.93 1 0 1.99-2.07 0.95-3-1.5-0.52-1.37-1.4-2.5-1.97-2.5-0.56 0-1.03-0.67-1.03-1.5 0-0.82-0.45-1.5-1-1.5s-1-1.35-1-3c0-1.64-0.45-3-1-3s-1-1.35-1-3c0-1.64 0.43-3 0.94-3s1.2-0.86 1.53-1.9c0.5-1.58 1.83-2.5 2.78-2.5zm6.75 0.4c1.11 0 2 0.67 2 1.5s-0.36 1.5-0.81 1.5c-2.36 0-3.51 10.34-1.34 12.1 1.17 0.95 2.15 2.44 2.15 3.31 0 2.41-2.76 1.91-3.56-0.65-0.39-1.24-1.15-2.53-1.69-2.88-1.44-0.93-1.38-11.17 0.06-11.66 0.66-0.22 1.19-1.03 1.19-1.81s0.9-1.41 2-1.41zm-64.4 0.5c0.02 0 0.06 0.08 0.12 0.26 0.23 0.68 0.84 1.24 1.35 1.24 0.5 0 0.93 0.9 0.93 2s0.45 2 1 2 1 1.13 1 2.5c0 1.38 0.45 2.5 1 2.5s1 0.63 1 1.41 0.57 1.63 1.25 1.88c0.69 0.24 1.03 0.69 0.75 1-1.02 1.12-3.73-1.9-4.9-5.47-0.67-2.03-1.58-3.83-2.03-4-0.46-0.18-1.03-1.66-1.29-3.32-0.19-1.23-0.26-1.99-0.18-2zm196.15 0.63c-0.14 0.03-0.35 0.28-0.65 0.75-0.51 0.8-1.42 1.05-2.16 0.59-0.88-0.54-1-0.37-0.44 0.53 0.51 0.82 0.4 1.06-0.25 0.66-1.16-0.72-2.6 0.84-3.59 3.84-0.65 1.97-0.64 1.98 0.84 0.07 0.83-1.07 1.5-2.4 1.5-2.94s0.28-0.69 0.63-0.34c0.91 0.91 4.36-1.13 4.34-2.57 0-0.41-0.07-0.62-0.22-0.59zm-125.72 0.87c2.27 0 2.41 1.08 0.75 5.66-1.05 2.91-4.8 4.95-4.78 2.6 0.03-3.56 2.32-8.26 4.03-8.26zm314.78 0.66c7.2-0.02 13.7 1.04 18.85 3.41 16.49 7.56 21.53 46.05 23.12 62.03 0.82 8.21-0.38 17.52-3.68 24.84-1.79 3.95 0.18 4.67 2.4 1.56 4.14-5.77 12.88-7.88 18.1-11.56 7.34-5.18 8.27 4.82 3.47 7.91-7.18 4.61-14.9 4.7-22.76 8-2.93 1.23-6.71 1.22-8.09-1.88-3.42-7.69 3.16-16.55 2.63-24.5-1.11-16.55 0.06-33.33-7.63-47.81-19.59-36.88-84.42-6.71-99.44 13.88-1.96 2.69 4.27-9.7 7.38-12.32 16.24-13.67 44.07-23.49 65.65-23.56zm-306.59 0.34c1.62 0 1.88 0.44 1.31 2.26-0.38 1.23-0.95 3.26-1.25 4.5-0.29 1.23-0.92 2.24-1.4 2.24-0.49 0-0.88 0.9-0.88 2s0.61 2 1.38 2c0.76 0 1.69 1.21 2.06 2.69s1.37 3.19 2.22 3.81c0.85 0.63 1.38 1.98 1.19 3-0.38 1.95-3.85-0.31-3.85-2.5 0-1.53-3.89 0.18-4.22 1.85-0.17 0.9-0.27-2.62-0.18-7.85 0.18-11.25 0.89-14 3.62-14zm-80.97 0.07c1.21-0.06 1.75 0.66 1.75 2.34 0 1.34 0.68 3.11 1.5 3.94 0.83 0.82 1.5 1.75 1.5 2.06 0 0.32-0.47 0.59-1.03 0.59-1.07 0-2.97-4.16-2.97-6.5 0-0.74-0.56-1.56-1.25-1.84-0.74-0.3-0.54-0.55 0.5-0.59zm-74.279 1.22c0.928 0.06 1.53 1.4 2.438 1.71 5.349 1.98 11.109 1.15 16.187 3.04 1.541 3.36 1.705 7.29 4.406 9.96-0.184 0.54-0.806 0.71-1.312 0.79-7.34 0.09-13.416-2.21-19.938-4.82-1.353-0.32-2.235-1.97-1.624-3.25 4.486 1.42 6.094 0.04 0.624-4.72-0.683-0.64-1.824-1.63-1.218-2.65 0.148-0.05 0.305-0.07 0.437-0.06zm170.1 1.71c2.35 0 2.48 1.3 0.34 3.44-1.81 1.81-2.35 8.34-0.78 9.38 0.56 0.37 1.66 2.15 2.44 3.94 0.77 1.78 1.77 3.24 2.18 3.24 0.42 0 0.75 0.9 0.75 2 0 2.94-1.57 2.43-2.97-0.93-0.66-1.61-1.82-3.16-2.56-3.44-0.73-0.28-1.65-2.56-2.03-5.06-0.38-2.51-1.07-4.57-1.56-4.57s-0.88-0.9-0.88-2 0.43-2 0.94-2 1.21-0.9 1.56-2 1.5-2 2.57-2zm-77.79 1.16c0.09 0.02 0.22 0.38 0.41 1.1 0.25 0.96 0.9 1.74 1.44 1.74s1.45 1.35 2.03 3c0.57 1.66 1.37 3 1.78 3s1.28 1.18 1.94 2.63 1.06 2.73 0.9 2.84c-0.59 0.42-3.61-3.34-4.21-5.25-0.35-1.09-1.52-3-2.6-4.25s-1.94-2.99-1.87-3.87c0.04-0.65 0.1-0.96 0.18-0.94zm-46.25 0.03c0.54-0.03 0.97 0.46 0.97 1.22 0 0.87-0.72 1.59-1.59 1.59-1.77 0-1.45-2.16 0.4-2.78 0.09-0.02 0.15-0.02 0.22-0.03zm666.82 0.63c2.01 0.03-1.57 7.27-3.85 7.9-54.03 27.13-120.76 47.18-177.69 72.91-0.22 1.12-1.58 1.66-2.53 1.06-0.49-4.56 3.85-12.2 10.16-12.34 57.67-22.61 115.45-44.32 172.16-68.72 0.8-0.58 1.37-0.82 1.75-0.81zm-508.88 0.18c0.16-0.03 0.32 0.03 0.47 0.16 0.61 0.57-0.99 4.39-2.44 5.84-2.75 2.76-2.78 10.36-0.03 13 1.34 1.29 3.03 5.16 3.03 6.97 0 1.11 0.45 2.03 1 2.03s1 0.45 1 1c0 2.17-1.82 0.83-3.06-2.24-0.72-1.79-1.91-3.63-2.63-4.07-0.71-0.44-1.31-1.41-1.31-2.19 0-0.77-0.63-1.77-1.4-2.21-4.59-2.62-2.07-16.29 3-16.29 0.67 0 1.44-0.56 1.68-1.24 0.16-0.43 0.42-0.7 0.69-0.76zm-119.72 0.63c0.36-0.06 1.08 0.45 2.16 1.5 1.73 1.68 1.75 1.87 0.22 1.87-0.94 0-1.96-0.71-2.28-1.56-0.45-1.15-0.46-1.75-0.1-1.81zm210.69 5.28c1.18-0.06 2.06 0.15 2.06 0.72 0 1.66-4.5 4.21-8.5 4.81-2.44 0.37-4.71 1.11-5.03 1.63-0.72 1.16-6.47 1.24-6.47 0.09 0-0.45 2.23-1.34 4.97-1.97s5.89-2.07 7-3.19c1.15-1.15 4-1.99 5.97-2.09zm-301.06 0.31c2.992 0.05 5.679 6.73 10.187 5.78 1.073-0.38 3.492 0.49 2.375 1.85-8.865 2.75-18.532 2.99-26.844 7.75l-0.094 0.19c-0.132 1.8-3.218 1.01-2.406-0.6 4.828-4.32 13.021-4.55 18.938-6.53 1.164-0.22 2.958-0.73 2.875-2.19-2.12-2.37-4.544-0.33-6.844 0.82-0.008-2.48 0.446-4.95 1.813-7.07zm38.312 0.07c0.24-0.14 0.8 0.49 2.06 1.9 1.24 1.38 3.04 2.79 4 3.13s1.75 1.25 1.75 2.03c0 0.82 1.43 1.69 3.41 2.06 1.87 0.35 3.66 1.32 3.97 2.13 0.91 2.38-6.28 1.3-7.69-1.16-0.44-0.76-1.34-1.4-2-1.41-1.99-0.02-5.69-4.61-5.69-7.03 0-0.99 0-1.55 0.19-1.65zm76.5 0.25c0.04-0.02 0.07-0.01 0.12 0 0.26 0.01 0.68 0.17 1.29 0.5 1.04 0.56 1.9 1.47 1.9 2 0 1.82-2.76 0.95-3.28-1.04-0.24-0.92-0.3-1.38-0.03-1.46zm36.97 0.5c0.67-0.16 1.75 0.74 2.53 2.46 0.63 1.38 1.51 2.5 1.97 2.5s0.84 0.45 0.84 1c0 1.85-2.85 1.03-3.5-1-0.35-1.1-1.05-2-1.56-2s-0.94-0.67-0.94-1.5c0-0.88 0.25-1.37 0.66-1.46zm590.84 0.96c0.83 0 1.5 0.45 1.5 1 0 0.56-0.67 1-1.5 1-0.82 0-1.5-0.45-1.5-1 0-0.54 0.68-1 1.5-1zm-503.78 0.13c0.51-0.02 0.21 2.54-0.78 6.13-1.37 4.91-3.94 5.05-3.94 0.21 0-2.45 0.54-3.74 1.75-4.18 0.96-0.36 2.07-1.13 2.47-1.72 0.2-0.3 0.38-0.44 0.5-0.44zm-175.15 0.34c0.17 0 0.37 0.02 0.59 0.07 0.88 4.14 3.89 1.02 6.09 4.34 4.06-1.1 9.79 9.49 11.66 2.34 0.31 6.45 11.28 1.08 12.59 6.41 3.92-3 4.95 2.36 9.66 1.75 6.85 3.45 15.2 2.86 21.84 6.62 2.16-6.14 3.5 2.65 6.72-0.93 6.94 4.99 16.23 5.73 24.85 6.06 7.55-0.69 14.84 7.16 22.37 1.66 1.54 1.81 7.2 4.38 11.84 3 2.97 4.25 6.42-1.18 10 0.09-3.37 6.55 4.31-0.11 6.79 0.88-1.91 3.96 1.8 2.43 5.12 3.21 10.57 2.4 21.39 3 32 5.13 5.86 3.88 19.96-2.72 20.06 6.75-0.36 0.91-0.82 1.81-1.53 2.5-2.68-5.05-12.2-4.09-18.15-6.19-9.94-1.44-19.94-2.07-29.76-4.31-12.41-1.25-24.49-4.54-36.93-5.59-9.83-2.45-19.96-3.29-29.97-4.72-8.74-2.45-17.73-4-26.5-6.19-9.31-2.74-18.8-4.6-28.03-7.53-8.38-2.93-17.05-4.28-25.53-6.82-2.3-2.18-14.51-1.62-9.85-5.24 4.18 1.61 1.51-3.24 4.07-3.29zm48.71 1.63c0.98-0.07 2.05 0.59 2.38 1.44 0.32 0.85 0.31 1.81-0.03 2.15-0.35 0.35-0.63-0.09-0.63-0.97 0-0.87-0.79-1.78-1.75-2.03-1.64-0.43-1.64-0.48 0.03-0.59zm630.97 3.97c1.11-0.05 1.75 0.67 1.75 1.93 0 1.1-0.22 2-0.5 2-0.27 0-0.5-0.65-0.5-1.43s-0.56-1.63-1.25-1.91c-0.74-0.3-0.54-0.55 0.5-0.59zm-441.62 0.03c0.25 0 0.05 0.63-0.63 1.9-0.59 1.1-1.57 2-2.19 2-0.61 0-0.3-0.9 0.69-2 1.16-1.27 1.87-1.9 2.13-1.9zm-5.06 0.16c0.13-0.01 0.3 0.01 0.46 0.03 1.76 0.13 1.79 0.24 0.28 1.9-1.98 2.19-1.85 2.22-2.03-0.12-0.08-1.16 0.31-1.75 1.29-1.81zm-276.85 1.06c5.545 1.26 10.216 2.67 16.5 2.9 6.429-0.6 12.169 2.66 16.719 6.78 6.88 4.22 0.47 7.28-5.16 5.6-6.66-1.95-13.453-3.22-20.434-3.34-5.997 1.34-8.73-2.95-9.562-8.19-7.242-0.98-4.337 11.58 1.687 9.37 5.405 1.93 11.246 2.4 16.969 2.88 5.54-0.01 10.61 2.45 16.09 2.65 6.6 0.57 12.98-0.93 19.35-2.34 6.86-0.11 12.66 4.78 19.37 6.03 6.83 1.28 13.27 4 19.85 6.25 4.38 3.54-6.73 1.72-7.66 4.13 1.72 3.63 9.73 3.86 13.94 3.4 7.39-2.99 11.29 6.7 18.81 3.75 2.11-0.43 11.1-2 8.97 0.66-5.19 3.89-11.69 3.26-17.88 4.62-4.76 1.21 5.07 0.45-0.78 1.97-3.6 1.48-7.49 1.39-11.28 1.66-5.2-0.98-7.35-6.97-11.65-9.63-7.76-6.97-18.62-6.72-28.22-8.68-5.62-2.32-11.72-2.48-17.57-3.88-7.57-3.37-16.03-4.03-24.215-3.41 2.737-0.25-2.047-7.47-4.063-3.06-4.399 6.22-11.219-0.99-17.093-0.4-5.152-4.04 2.174-1.04 4.906-0.38 2.109 0.22 12.166 2.16 7.469-0.44-4.854-1.35-9.648-3.47-14.782-3.25-3.849-0.31-0.754 1.48-1.968 2.38-5.498-1.85-11.54-0.83-16.719-3.56-3.848-4.68-6.838 2.5-2.844 3.81 5.469-3.15 12.227 0.17 17.625 2.31 3.93 5.27 12.081 1.21 16.375 5.69-11.317 1.42-22.362-2.33-33.093-5.38-7.043-0.16-6.509-7.63-1.5-10.46 5.835-3.11 12.606-3.8 18.781-6.13 5.451 0.46 8.241-3.04 13.062-4.31zm67.779 0.68c0.83 0 1.5 0.45 1.5 1 0 0.56-0.67 1-1.5 1-0.82 0-1.5-0.45-1.5-1 0-0.54 0.68-1 1.5-1zm40 0c0.83 0 1.5 0.6 1.5 1.35s1.18 2.55 2.63 4c3.83 3.83 2.14 3.25-2.06-0.72-3.92-3.69-4.33-4.63-2.07-4.63zm4.41 0.04c0.06-0.01 0.12 0.01 0.19 0.03 0.25 0.06 0.49 0.24 0.68 0.53 0.39 0.58 1.62 1.56 2.72 2.19 1.39 0.78 1.54 1.15 0.5 1.15-2.05 0-5.53-2.75-4.62-3.65 0.15-0.15 0.34-0.25 0.53-0.25zm87.84 0.43c1.29-0.12 3.17 2.26 3.22 4.66 0.02 0.9 0.63 1.9 1.38 2.19 0.74 0.28 1.65 1.91 2 3.62 0.39 1.95 2.66 5.12 6.12 8.5 3.04 2.97 5.53 5.78 5.53 6.25 0 2.76 6.45 5.48 7.25 3.07 0.3-0.9 0.91-0.76 2.16 0.5 1.65 1.65 1.54 1.73-2.1 1.62-5.41-0.16-7.31-0.82-7.31-2.5 0-0.8-0.67-1.71-1.5-2.03-0.82-0.32-1.5-1.23-1.5-2.03s-0.45-1.15-1-0.82c-0.55 0.34-1-0.3-1-1.43 0-1.17-0.65-2.07-1.5-2.07-0.82 0-1.5-0.45-1.5-1 0-0.54-0.59-1-1.31-1s-1.93-1.57-2.69-3.5c-0.75-1.92-1.67-3.5-2.03-3.5s-1.25-1.79-1.97-3.96c-0.72-2.18-1.89-4.09-2.62-4.25-0.92-0.21-1.05-0.75-0.41-1.79 0.21-0.32 0.48-0.5 0.78-0.53zm-163.12 1.72c0.94-0.03 2.03 1.18 3.09 1.07 1.58-0.11 2.28 1.36 3.31 2.21 1.6 0.76 2.33-1.35 3.54-1.9 1.42-0.39 2.92 0.24 4.12 1 2.59 1.86 5.92 1.72 8.88 2.53 1.44 0.46 1.56 3.07-0.19 3.09-1.62 0.03-2.55-1.54-3.94-2.09-1.94-1.06-4.33-0.58-6.22-1.72-0.94-1.48-3.47 0.57-2.03 1.66 1.53-0.24 2.97 0.74 3.81 1.93 2.61 1.2 5.53 1.23 8.31 1.69 2.38-0.07 4.04 1.97 6.19 2.6 0.35 0.15 0.79 0.07 1.07 0.37-2.26 0.22-4.52-0.03-6.76-0.34-1.61 0.04-2.61-1.43-3.93-2.1-2.44-0.27-4.85-0.77-7.19-1.5-2.22-0.33-3.34-2.68-5.47-3.22-1.78-0.07-3.6-0.42-5.15-1.34-1.13-0.74-3.02-1.75-2.32-3.37 0.28-0.39 0.56-0.56 0.88-0.57zm94.87 0.78c0.69-0.17 1.92 0.84 2.69 2.53 0.63 1.38 1.73 2.5 2.47 2.5s1.34 0.68 1.34 1.5c0 0.83-0.18 1.5-0.37 1.5-0.85 0-6.63-6.13-6.63-7.03 0-0.6 0.19-0.92 0.5-1zm83.5 0.03c0.09-0.01 0.19 0 0.28 0 0.95 0.07 2.22 0.99 2.91 2.5 0.63 1.38 1.51 2.5 1.97 2.5s0.84 0.68 0.84 1.5c0 0.83-0.67 1.5-1.5 1.5-0.82 0-1.5-0.66-1.5-1.46 0-0.81-0.9-1.95-2-2.54-1.1-0.58-2-1.72-2-2.53 0-0.91 0.4-1.39 1-1.47zm-87.12 1c0.48 0 1.12 0.9 1.4 2 0.29 1.1 0.46 1.95 0.38 1.91-0.09-0.04-0.72-0.28-1.41-0.56-1.41-0.57-1.73-3.35-0.37-3.35zm-130.91 0.57c0.746 0.03 0.737 0.71 0.344 2.78-0.72 3.79-0.929 4.1-1.781 2.72-0.363-0.59-0.371-1.52-0.032-2.07 0.34-0.54 0.145-1-0.437-1-1.834 0-1.169-1.74 0.875-2.28 0.429-0.11 0.783-0.16 1.031-0.15zm149.1 0.25c0.37-0.2 2.01 1.04 3.93 3.06 2.2 2.31 4 4.63 4 5.16 0 1.34-0.07 1.3-4.25-2.94-2.06-2.09-3.75-4.41-3.75-5.13 0-0.09 0.01-0.12 0.07-0.15zm-6.22 1.22c0.31-0.02 0.77 0.18 1.28 0.68 0.6 0.61 0.92 1.55 0.72 2.1-0.2 0.54-0.95 0.31-1.69-0.5-1.08-1.18-1.01-2.25-0.31-2.28zm15.65 0.96c0.83 0 1.5 0.65 1.5 1.47s0.9 2.07 2 2.75c1.1 0.69 2 1.81 2 2.5 0 1.94-1.24 1.44-4.25-1.72-3.06-3.21-3.51-5-1.25-5zm-92.09 1.04c0.75 0 1.56 0.49 1.94 1.46 0.39 1.03-0.04 1.5-1.38 1.5-1.08 0-1.97-0.67-1.97-1.5 0-0.97 0.66-1.46 1.41-1.46zm5.09 1.96c0.84 0 1.5 0.89 1.5 2 0 2.35-0.1 2.38-1.75 0.5-1.64-1.86-1.57-2.5 0.25-2.5zm115.13 0.29c1.12-0.17 3.37 1.64 3.37 2.97 0 0.55 0.73 1.56 1.63 2.21 0.9 0.66 1.43 1.8 1.18 2.53-0.51 1.56-4.81-2.58-4.81-4.62 0-0.68-0.56-1.41-1.25-1.66-0.68-0.24-0.93-0.79-0.53-1.22 0.11-0.11 0.25-0.19 0.41-0.21zm-220.75 0.62c0.283 0-0.08 0.38-1.063 1.38-1.907 1.92-2.813 2.17-2.813 0.71 0-0.54 0.177-1 0.407-1s1.242-0.33 2.25-0.71c0.643-0.25 1.048-0.38 1.219-0.38zm110.28 0.56c1.47-0.14 2.06 1.48 1.41 4.1-0.34 1.34-1.28 2.43-2.1 2.43-1.97 0-1.86-1 0.28-2.62 1.67-1.27 1.67-1.31 0-1.34-2.12-0.04-2.31-1.6-0.28-2.38 0.25-0.09 0.48-0.17 0.69-0.19zm74.75 0.47c0.88 0.05 2.13 0.72 2.5 1.69 0.35 0.9 0.49 1.79 0.34 1.94-0.41 0.41-3.75-2.2-3.75-2.94 0-0.52 0.38-0.71 0.91-0.69zm64.59 0.06c0.83 0 1.5 0.38 1.5 0.85 0 0.46 1.13 2.15 2.5 3.75 1.38 1.6 2.5 3.29 2.5 3.78s0.79 1.49 1.75 2.22c1.61 1.22 1.61 1.34 0.06 1.37-0.92 0.02-1.96-0.86-2.31-1.97-0.35-1.1-1.5-2.46-2.56-3.03s-1.94-1.7-1.94-2.53c0-0.82-0.67-1.77-1.5-2.09-1.94-0.75-1.94-2.35 0-2.35zm15.5 0c0.55 0 1 0.9 1 2s1.71 3.71 3.81 5.82c2.11 2.1 4.12 4.58 4.47 5.5 0.36 0.92 0.47 1.68 0.25 1.68-1.03 0-8.53-8.48-8.53-9.65 0-0.74-0.45-1.35-1-1.35s-1-0.9-1-2 0.45-2 1-2zm-149.22 0.16c0.15 0.07 0.18 0.59 0.19 1.6 0.03 2.31 1.44 3.01 2.53 1.24 0.8-1.29 3.5-1.29 3.5 0 0 0.56-0.9 1-2 1s-2 0.45-2 1c0 1.43-1.3 1.16-2.81-0.56-0.92-1.04-1-1.97-0.28-3.22 0.45-0.77 0.73-1.13 0.87-1.06zm-122.5 1.97c0.518 0.01 0.718 0.66 0.718 1.87 0 1.1-0.45 2-1 2s-1 0.46-1 1c0 0.56 1.35 1 3 1s2.57 0.68 3 0.82c29.437 9.6 76.278 14.4 101 20.18 1.65 0.39 5.53 1.6 2.25 3.47-0.06-0.35 0.24-1.07-2.4-2.18-2.65-1.12-4.32-1.6-4.22 1.21 0.19 5.84 29.96 13.36 36.37 9.63 1.19-0.69 10.72-3.07 13.57-2.09 3.13 1.08 6.5 1.29 9.65 2.12 50.35 11.06 102.05 15.77 152.59 24.72 3 0.53 18.2 0.7 19.47 0.47 23.41-4.18 46.42-9.02 69.72-16.5 4.18-1.34 5.71 16.2 1.5 16.65-9.44 1.03-18.11 4.69-27.59 6.72-17.19 3.69-34.86 7.38-52.41 6.63-37.08-1.59-73.29-8.41-109.53-14.94-25.03-4.51-54.93-5.43-79.97-11.81-28.59-7.28-59.11-13.28-87.935-22-16.331-4.94-33.26-9.49-50.219-12.78-5.652-1.1-5.87-7.45-0.468-13.06 2.035-2.12 3.239-3.14 3.906-3.13zm265.22 0.06c0.32-0.07 0.81 0.5 1.16 1.41 0.4 1.04 1.62 2.6 2.69 3.47 1.06 0.86 1.75 2.12 1.53 2.78-0.27 0.79-0.97 0.53-2.07-0.75-2.36-2.77-4.09-6.19-3.43-6.84 0.04-0.04 0.08-0.06 0.12-0.07zm-27.06 0.81c0.79 0 7.56 7.25 7.56 8.1 0 1.45-0.76 1.07-3.78-1.88-2.51-2.45-4.79-6.22-3.78-6.22zm-106.44 0.54c0.74 0 1.48 0.41 1.75 1.22 0.25 0.74-0.46 1.24-1.75 1.24s-2-0.5-1.75-1.24c0.27-0.81 1.01-1.22 1.75-1.22zm5.38 0.93c0.31-0.05 0.68 0.29 0.93 0.94 0.44 1.14 0.01 1.59-1.53 1.59-1.17 0-1.71-0.33-1.21-0.74 0.49-0.42 1.18-1.14 1.53-1.6 0.08-0.11 0.17-0.17 0.28-0.19zm142 1.53c0.82 0 1.78 0.45 2.12 1 0.34 0.56-0.05 1-0.87 1-0.83 0-1.79-0.45-2.13-1-0.34-0.54 0.05-1 0.88-1zm-151.25 0.97c0.1 0 0.22 0.01 0.34 0.03 1.48 0.01 1.07 2.09 0.16 2.6-1.82 0.95-2.09-2.56-0.5-2.63zm18.28 0.97c0.09-0.06 0.2 0.12 0.31 0.56 0.64 2.56 2.09 3.45 5.53 3.47 1.77 0.01 2.75 0.57 2.75 1.53 0 0.83-0.33 1.41-0.75 1.32-0.41-0.09-2.44-0.35-4.5-0.56-3.61-0.38-3.77-0.52-3.65-4.07 0.04-1.36 0.16-2.14 0.31-2.25zm12 2.88c3.84-0.02 14.14 1.61 14.81 2.59 0.5 0.73 0.74 0.69 0.75-0.15 0.02-1.82 2.71-1.55 3.44 0.34 0.42 1.08 1.32 1.41 2.84 1.03 1.24-0.31 2.93-0.11 3.75 0.41 1.08 0.68 0.32 0.92-2.69 0.93-2.38 0.01-4.36 0.57-4.65 1.29-0.37 0.91-0.74 0.94-1.35 0.12-0.45-0.62-2.67-1.46-4.96-1.84-3.53-0.59-4.26-0.43-4.66 1.12-0.26 1-0.53 1.28-0.59 0.6-0.08-0.78-1.63-1.26-4.1-1.26-3.88 0-5.28-1.25-2.75-2.43 1-0.47 1-0.69 0-1.16-0.68-0.32-1.25-0.89-1.25-1.28 0-0.21 0.52-0.31 1.41-0.31zm-94.31 1.15c1.28 0.06 1.43 1.54 1.9 2.44 0.78 1.67 2.86 1.3 4.35 1.56 1.14 0.43 3.44 2.54 3.84 0.32 0.16-1.08 0.86-2.77 2.22-2.13 1.71 1.05 1.34 3.36 2.31 4.88 0.92 1.17 0.75 3.44-0.91 3.84-2.21-0.35-4.18-1.46-6.15-2.47-6.14-1.69-12.547-2.06-18.814-3.06-0.923-0.22-3.118 0.52-2.75-1.13 2.973-0.41 5.991 0.21 8.938-0.46 2.266-0.39 2.806-3.38 5.066-3.79zm4.4 0.03c1.76-0.18 1.87 2.92 0.25 3.13-1.76 0.18-2.02-3.03-0.25-3.13zm171.25 0c0.12 0 0.24-0.01 0.35 0 0.51 0.06 0.9 0.33 0.9 0.88 0 0.49 2.14 1.33 4.75 1.88 4.82 1 3.16 1.19-4.47 0.5-3.15-0.29-4.04-0.73-3.62-1.82 0.33-0.85 1.28-1.38 2.09-1.44zm-187.9 0.04c0.077-0.01 0.163-0.01 0.25 0 1.491 0.24 1.059 3.18-0.531 2.56-0.917-0.55-0.877-2.46 0.281-2.56zm246.06 0.5c1.75 0.04 4.4 1.6 5.75 1.9 5.64 0.44 11.23 1.62 16.59 3.44 9.73 0.64 19.5 0.63 29.25 0.62 8.12-0.05 16.24 0.13 24.35 0.32 3.71 0.34-0.73 2.28-2.16 2.53-5.75 1.48-10.7 0.69-16.84 1.75-10 1.72-21.08 0.97-31.57 0.03-6.82-0.95-13.86-1.17-20.4-3.53-2.4-1.25-5.59-2.15-6.63-4.94-0.09-1.65 0.61-2.15 1.66-2.12zm-42.91 2.46c1.11 0 2 0.67 2 1.5 0 0.84-0.89 1.5-2 1.5s-2-0.66-2-1.5c0-0.83 0.89-1.5 2-1.5zm-65.69 0.13c1.11-0.05 1.69 0.37 1.69 1.28 0 1.02-0.91 1.59-2.59 1.59-3.13 0-2.8-2.37 0.4-2.84 0.19-0.03 0.35-0.02 0.5-0.03zm-109.4 0.09c1.33 0.7 3.19-0.08 4.28 1.19 0.99 1.44-1.18 3.29-2.53 2.38-1.55-0.2-2.64-2.21-1.75-3.57zm115.09 0.78c1.1 0 2 0.45 2 1 0 0.56-0.9 1-2 1s-2-0.45-2-1c0-0.54 0.9-1 2-1zm266.63 1.88c3.11 0.1 7.93 6.1 7.65 9.75 1.16 7.91 3.27 15.78 3.63 23.75-2.72 6.9-1.84 14.45-2.53 21.78-0.28 9.7-2.43 19.09-4.75 28.44-2.66 6.89-6.01 13.7-10.53 19.62-4.35 4.43-12.74 2.67-14.07-3.68-2.42-5.46 1.08-1.72 2.6 0.53 7.09-3.01 13.38-9.54 14.84-17.53 2.15-6.66 3.77-13.57 6.31-20.13 0.96-11.75 0.95-23.54 0.47-35.31 1.44-2.58-2.19-15.59-2.5-8.56-4.95-3.37 0.86-12.68-3.4-16.47 0.4-1.59 1.24-2.22 2.28-2.19zm-186.13 0.12c0.83 0 1.5 0.45 1.5 1 0 0.56-0.67 1-1.5 1-0.82 0-1.5-0.45-1.5-1 0-0.54 0.68-1 1.5-1zm-65.22 0.13c0.54 0 0.72 0.29 0.72 0.87 0 0.56-1.23 0.95-2.75 0.91-2.43-0.06-2.52-0.14-0.75-0.91 1.37-0.58 2.25-0.87 2.78-0.87zm69.03 0.59c0.27-0.01 0.56 0 0.88 0 0.43 0.01 0.91 0.04 1.41 0.1 1.98 0.23 3.22 0.71 2.75 1.06-0.48 0.35-1.18 1.03-1.6 1.53-0.42 0.51-0.75 0.41-0.75-0.25 0-0.64-0.9-1.16-2-1.16s-2-0.37-2-0.81c0-0.24 0.52-0.42 1.31-0.47zm-64.09 0.28c0.23-0.01 0.51 0 0.78 0 2 0 3 0.5 3 1.5 0 0.84-0.89 1.5-2 1.5-1.1 0-2.02-0.56-2.03-1.24-0.01-0.84-0.32-0.76-0.97 0.24-0.83 1.29-0.98 1.25-1-0.24-0.01-1.13 0.6-1.65 2.22-1.76zm276.78 0.54c0.21-0.04 0.45-0.01 0.69 0.03 2.65 3.71 6.06 6.82 8.31 10.81 1.09 3.98 4.31 6.8 6.69 10 1.05 3.02 3.33 5.36 5.28 7.81 0.87 2.97 3.39 5.06 4.5 7.91 0.35 2.68 2.48 4.58 3.53 6.97-0.2 0.22-0.43 0.41-0.72 0.53-2.06 0.24-2.76-2.4-3.4-3.91-4.05-7.6-8.85-14.82-14.53-21.31-3.56-3.56-5.36-8.44-8.66-12.19-0.81-1.37-2.65-1.58-3.22-3.09-0.62-1.34 0.06-3.32 1.53-3.56zm-299.03 0.22c0.7-0.01 1.55 0.03 2.53 0.09 3.03 0.19 5.5 0.75 5.5 1.25s1.1 0.9 2.44 0.9 2.72 0.45 3.06 1c0.58 0.94-4.64 1.49-5.59 0.6-0.34-0.32-7.05-1.35-10.16-1.56-0.41-0.03-0.75-0.6-0.75-1.28 0-0.67 0.87-0.99 2.97-1zm-88.47 0.24c1.34-0.26 1.44 1.63 2.57 1.88 3.15 0.14 6.31 0.52 9.34 1.44 1.33 0.56 3.06 0.54 4 1.78 0.92 2.05-2.23 1.87-3.34 1.19-1.92 0.23-2.99-1.82-4.72-2.19-2.43-0.17-4.88-0.35-7.25-0.94-1.83 0.29-2.61-3.03-0.6-3.16zm119.5 0c1.1 0 2 0.45 2 1 0 0.56 1.58 1 3.5 1 1.93 0 3.5 0.45 3.5 1 0 0.56-0.9 1-2 1-1.11 0-2 0.67-2 1.5 0 2.45-18.45 1.38-19.4-1.12-0.51-1.32 0.65-1.46 8.65-1.03 5.09 0.27 8.02 0.27 6.5 0-3.14-0.56-3.77-3.35-0.75-3.35zm76.16 1.19c0.81-0.06 1.68 0.12 2.44 0.57 11.73 3.21 23.91 4.35 36.03 4.9 4.23 0 8.53 0.69 12.72-0.19 1.93-0.55 4.95-2.07 6.4-0.03-2.32 0.54-4.44 3.19-4.4 5.94-1.18 2.9 3.11 2.65 3.62 0.41-0.87-1.57 1.7-5.55 2.72-2.6-0.26 3.65-3.13 6.53-6.25 8.1-3.36 2.5-7.87 0.82-11.44 2.71-2.12 1.48-5.2 1.47-7.28-0.09-8.98-1.84-18.23-2.11-27.12-4.41-2.46-0.83-5.29-1.14-7.32-2.87-2.25-2.34-1.97-5.81-2.71-8.75-0.67-2.25 0.81-3.56 2.59-3.69zm-64.25 2.28c0.86-0.02 2.28 0.01 4.06 0.1 3.56 0.17 6.65 0.79 6.84 1.37 0.5 1.48 3.92 1.34 4.54-0.18 0.37-0.92 0.71-0.95 1.31-0.13 0.45 0.62 6.36 1.72 13.09 2.44 6.74 0.72 12.25 1.67 12.25 2.12s1.19 0.81 2.66 0.81 2.48 0.15 2.25 0.35c-1.85 1.6-20.73 0.33-21.94-1.47-0.56-0.84-3.56-1.31-16.22-2.44-4.26-0.38-7.75-1.05-7.75-1.5 0-0.44-0.78-1-1.75-1.25-0.48-0.12-0.2-0.19 0.66-0.22zm-3 3.82c0.69-0.03 1.57-0.03 2.66 0 3.71 0.08 5.43 0.52 5.43 1.4 0 1.89-9.61 1.77-10.34-0.12-0.33-0.85 0.16-1.2 2.25-1.28zm11.09 0.71c0.55 0 1 0.68 1 1.5 0 0.83-0.45 1.5-1 1.5s-1-0.67-1-1.5c0-0.82 0.45-1.5 1-1.5zm4.1 0c0.49 0 0.9 0.9 0.9 2 0 1.95-1.07 2.62-2.28 1.41-0.8-0.8 0.25-3.41 1.38-3.41zm-244.54 1.41c-0.874 0.11-1.392 0.78-1.125 2.31 5.731 2.9 9.091 8.94 14.938 11.66 3.805 2.65 8.532 3.01 12.937 3.97 5.164 2.72 11.036 3.54 16.781 4.15 7.104 1.82 14.144 4.61 21.594 4.6 3.84 2.2 7.96 4.01 12.31 4.9 1.63 1.13 4.08 2.02 5.91 0.85 3.12-3.56-2.6-6.27-5.66-6.35-4.5 0.02-8.17-2.87-12.15-4.53-4.69-0.51-9.512-0.57-14.16-1.62-4.261-1.32-8.969-1.59-12.781-4.09-1.839-3.53-5.927-5.38-9.907-4.19-3.451-1.78-7.378-4.68-11.406-2.85-4.534 0.45-8.249-2.73-11.5-5.43-0.714-1.39-3.542-3.29-5.375-3.38-0.137-0.01-0.281-0.01-0.406 0zm445.22 1.22c0.9-0.12 1.92 0.46 3.1 2.09 3.84 5-0.06 10.59-2.19 15.32-1.32 5.4-2.74 10.83-4.28 16.22-3.97 2.47-3.66-5.34-3.34-8-2.28-4.84-3.69 3.94-3.63 6.15-0.97 2.05 0.31 4.83-1.44 6.56-4.72-0.42-0.02-7.47 0.38-10.5-0.49-7.37 3.19-14.07 6.65-20.31 1.05-2.48 2.48-7.23 4.75-7.53zm-269.93 0.37c2.24 0 5.28 0.9 6.9 0.85 13.51 1.68 32.3 7.44 44.13 3.91 14.06-1.68 26.21 1.87 39.87 3.21 7.41 0.26 14.44 2.6 21.41 4.94 6.16 1.18 1.25 7.89-3.22 6.38-4.63-1.71-10.37-4.26-14.94-0.79-1.78 2.68-5.27 0.72-7.72 0.44-5.28-0.71 0.86-2.86 3.1-2.28-14.51-5.84-59.18-9.03-92.31-14.06-0.24-2.04 1.03-2.59 2.78-2.6zm241.15 0c0.55 0 1 1.8 1 4s-0.42 4-0.93 4c-0.52 0-1.14 0.79-1.38 1.76-0.24 0.96-0.29 0.17-0.09-1.76 0.2-1.92 0.37-4.51 0.37-5.74 0.01-1.24 0.48-2.26 1.03-2.26zm-296 1c1.01 0.23 1.33 1.61 0.75 2.38-1.52 1.41-2.69-2.4-0.75-2.38zm141.5 0c1.93 0 3.5 0.45 3.5 1 0 0.56 1.35 1 3 1s3 0.45 3 1c0 1.01-0.64 1.14-2.5 0.5-0.55-0.18-3.13-0.64-5.75-1-5.51-0.74-6.39-2.5-1.25-2.5zm16.85 2.54c1.54 0.03 4.65 1.88 4.65 3.12 0 0.74-0.11 1.28-0.25 1.22s-1.15-0.35-2.25-0.62c-2.2-0.55-3.64-2.26-2.9-3.44 0.13-0.22 0.39-0.29 0.75-0.28zm-97.72 3.46c0.82 0 1.21 0.45 0.87 1-0.34 0.56-1.3 1-2.12 1-0.83 0-1.22-0.45-0.88-1 0.34-0.54 1.3-1 2.13-1zm-140.97 0.5c0.28-0.01 0.597 0 0.937 0 2.267 0.04 5.606 0.52 6.313 1.13 0.229 0.2-1.429 0.37-3.688 0.37s-4.402-0.46-4.75-1.03c-0.163-0.26 0.348-0.42 1.188-0.47zm146.34 0.5c0.55 0 1 0.68 1 1.5 0 0.83-0.45 1.5-1 1.5s-1-0.67-1-1.5c0-0.82 0.45-1.5 1-1.5zm170.75 0.1c1.39-0.07 2.25 0.48 2.25 1.4 0 0.83-0.22 1.5-0.5 1.5-0.27 0-0.5-0.42-0.5-0.93s-0.78-1.13-1.75-1.38c-1.31-0.34-1.19-0.5 0.5-0.59zm95.22 2.9c0.75-0.02 1.37 0.73 1.66 1.38 1.27 3.31 1.46 6.99 0.72 10.44-0.25 1.22-1.55 1.71-2.47 2.34-0.99 0.57-1.27 1.73-1.78 2.66-0.32 0.68-1 1-1.69 1.15-0.71 0.18-1.52 0.69-1.41 1.53v0.16c0.07 0.77-1.01 1.92-1.53 0.91-0.56-1.7-0.38-3.53-0.25-5.28 0.32-2.69 0.66-5.45 1.78-7.94 0.34-1.07 1.76-1.38 1.94-2.53-0.03-1.9 0.97-3.9 2.72-4.75 0.11-0.04 0.2-0.06 0.31-0.07zm-243.84 0.22c0.6 0.01 0.87 0.53 0.87 1.66 0 1.44-0.63 2.12-2 2.12-1.11 0-2-0.66-2-1.5 0-0.82 0.18-1.5 0.41-1.5s1.13-0.29 2-0.62c0.28-0.11 0.52-0.16 0.72-0.16zm68.4 7.78c0.71-0.05 0.43 0.25-0.68 1.16-0.9 0.74-1.9 2.02-2.22 2.84-0.33 0.83-0.47 0.37-0.35-1 0.15-1.6 0.93-2.61 2.22-2.84 0.45-0.08 0.8-0.14 1.03-0.16zm-18.4 1.57c0.25 0 0.55 0.04 0.87 0.12 1.1 0.29 2 0.92 2 1.41 0 0.48-0.9 0.9-2 0.9s-2-0.63-2-1.4c0-0.69 0.38-1.05 1.13-1.03zm27.59 0.47c0.33-0.01 0.64 0.01 0.91 0.09 6.78 0.26 13.55 0.92 20.18 2.34 8.17 2.55 16.78 3.06 25.29 3.1 4.14 0.46 8.46-0.42 12.5 0.9-4.66 0.62-9.38 0.75-14.07 1.07-3.85 0.8-8.23-0.19-11.62 2.25 3.17-0.44 6.34-0.86 9.53-1.1 2.23 0.56 5.29-1.44 6.94 0.57-2.86 1.01-6.05 0.22-8.85 1.46-1.89 0.97-4.23 0.46-6.31 0.75-6.36 0.38-12.74 0.19-19.09 0.29-3.55 0.34-4.53-3.45-7.16-4.72 1.74-1.38 5.85-1.06 7.88 0.5 0.59 3.1 4.09 2.79 5.93 0.84 3.98-2.03-0.54-5.53-3.4-4.66-4.65-0.64-9.64 1.1-14.03-1.12-3.05-1.64-5.78 1.53-8.82 1.5-1.6-1.99 1.86-4 4.19-4.06zm65.56 3.4c0.45-0.02 0.85 0.06 1.16 0.28 2.38 1.07-1.6 1.94-2.41 2.04-3.1-0.27-0.66-2.23 1.25-2.32zm105.19 0.32c0.07-0.02 0.15-0.01 0.22 0 0.28 0.02 0.6 0.17 0.91 0.56 0.54 3.37 0.34 6.82 0.4 10.22 0 2.12-0.03 4.24-0.09 6.37-0.28 1.6 0.28 3.43-0.56 4.85-0.49-2.25-0.27-4.54-0.41-6.82 0.44-1.56-1.31-3.89-2.72-2.12-2.68 2.32-5.38 4.69-8.62 6.18-1.4 1.1-2.78-0.48-1.22-1.59 1.28-1.91 3.56-2.31 5.62-2.65 1.62-0.92 1.01-3.35 2.69-4.41 1.84-1.74 2.36-4.35 2.34-6.78-0.3-1.07 0.37-3.58 1.44-3.81zm-140.9 3.31c-0.16 0-0.33 0.03-0.47 0.06-1.76 1.57 3.83 0.32 0.9 0-0.15-0.03-0.28-0.06-0.43-0.06zm159.43 3.93c0.55 0 1 0.9 1 2s-0.45 2-1 2-1-0.9-1-2 0.45-2 1-2zm-319.19 0.69c0.21 0.02 0.41 0.1 0.6 0.19 0.91 0.64 1.8 1.49 2.97 1.47 4.42-0.07 8.88-0.42 13.25 0.22 1.02-0.04 2.87 0.53 2.22 2.12-2.05 0.83-4.2 0.72-6.28 0.85-1.18 0.03-1.74-1.36-2.82-1.57-1.37 0.06-1.56 2.14-1.4 3.32-0.53 1.22 0.97 1.3 1.15 0.21 0.42-1.5 2.62-0.07 1.78 1.19 0.04 1.39 0.36 2.71 0.63 4.03 0.11 1.31 0.66 2.57 0.37 3.91-0.9 1.31-1.9-1.46-3.12-0.78-1.58-0.33-3.18-0.41-4.78-0.56-1.07-0.17-2.5 0.11-3.03-1.22-0.35-1.41-1.21-2.39-2.1-3.35-1.13-2.28-1.56-4.97-2.15-7.53-0.53-1.14 0.63-2.52 1.65-2.47 0.15 0.01 0.3 0.03 0.44 0.1 0.2-0.1 0.42-0.14 0.62-0.13zm-8.21 0.41c1.66 0.03 1.39 3.23 0.65 4.47-1.07 3.17-1.66 7.2 0.75 9.93 0.3 1.65 0.13 4.37-2.09 4.44-15.62-1.14-30.92-7.67-46.53-9.53-2.78-0.92 0.78-3.18 2.19-2 2.75-0.07 5.48 0.85 7.81 2.28 10.15 2.19 25.15 7.04 34.97 5.16 1.32-4.8-0.25-10.03 1.4-14.56 0.32-0.14 0.61-0.2 0.85-0.19zm34.5 3.9c0.32-0.01 0.66-0.02 1 0 11.89 0.64 27.35 0.42 36.34 8.41 6.79 6.03 14.11 5.26 21.13 8.97 8.64 4.57 9.95-7.91 16.81-6.41 22.37 4.9 56.77 9.71 80.28 9.75 4.91 0.01 10.53-0.73 15.87-1.65 7.7 1.18 1.63 1.27-2.9 5.4-4.81 4.38-9.6 9.59-15.82 10.47-32.89 4.65-67.84-5.19-100.24-12.65-14.65-3.38-35.44-14.94-51.38-9.38-16.59 5.79-11.26-12.37-1.09-12.91zm291.34 2.85c0.02-0.02 0.04-0.01 0.06 0 0.06 0.03 0.13 0.16 0.19 0.41 0.25 0.96 0.25 2.53 0 3.5-0.25 0.96-0.47 0.17-0.47-1.76 0-1.26 0.09-2.04 0.22-2.15zm-290.34 0.41c-0.94 0.06-1.1 0.58-1.1 1.74 0 1.87 0.4 2.02 3.75 1.41 5.92-1.07 5.92-1.74 0-2.81-1.26-0.23-2.09-0.38-2.65-0.34zm251.25 1.37c0.01-0.01 0.04-0.01 0.06 0 0.09 0.05 0.18 0.34 0.31 0.87 0.28 1.1 1.01 2.3 1.63 2.69 0.78 0.5 0.63 1.11-0.5 2-0.9 0.71-1.91 1.99-2.25 2.81-0.35 0.83-0.4 0.38-0.13-1 0.27-1.37 0.55-3.85 0.63-5.5 0.05-1.17 0.13-1.79 0.25-1.87zm-273.1 1.63c-0.08 0.01-0.17 0.07-0.25 0.12-1.23 0.91-0.1 2.76 1 2.78 1.06 0.21 2.76 0.05 3-1.53-0.83-1.12-2.22-1.35-3.47-1.37-0.08-0.02-0.19-0.02-0.28 0zm234.35 1.78c0.59-0.07 1.16 0.39 1.34 0.93 0.42 1.67-2.16 2.86-3.22 1.57-0.49-1.18 0.64-2.61 1.88-2.5zm-216.35 1.96c-1.24 0-2.25 0.45-2.25 1 0 1.26 1.06 1.26 3 0 1.22-0.78 1.07-0.98-0.75-1zm208.88 1.41c0.02-0.01 0.04 0 0.06 0 0.12 0.02 0.23 0.24 0.06 0.31-1.28 0-2.07 1.14-3.06 1.78-3.23 1.12-6.68 1.28-10.03 1.76-1.21-0.1-2.43 0.74-3.59 0.12 2.43-0.7 4.95-1.32 7.09-2.72 3.07-0.8 6.25-1.01 9.41-1.19 0.01-0.03 0.04-0.05 0.06-0.06zm6.22 0.69c0.47 0.18 0.69 0.71 0.72 1.19 0.01 1.32-1.64 1.66-2 2.81-0.26 2.09-2.81 3.3-4.66 2.44-1.34-0.26-1.45-2.56 0.03-2.6 2.47-0.39 3.7-2.92 5.91-3.84zm39.37 2.9c0.55 0 1.08 2.92 1.16 6.5s-0.1 6.5-0.38 6.5-0.52-1.23-0.53-2.74c0-1.52-0.28-4.44-0.62-6.5-0.38-2.26-0.23-3.76 0.37-3.76zm-53.72 3.07c0.34 0.19 1.14-0.3 1.1 0.34-0.37 1.08-1.79 0.88-2.66 1.28-0.89 0.32-2.2 0.53-2.75-0.47 1.25-0.87 2.82-1.14 4.31-1.15zm30.57 13.06c0.05-0.06 0.09 0.31 0.15 1.13 0.21 2.61 0.21 6.88 0 9.5-0.2 2.61-0.37 0.47-0.37-4.76 0-3.59 0.1-5.74 0.22-5.87zm40.06 1.28c0.25 0.06 0.33 0.8 0.34 2.35 0.01 1.78-0.42 3.24-0.97 3.24-1.27 0-1.27-3.03 0-5 0.28-0.42 0.48-0.63 0.63-0.59zm-38.63 14.59c0.55 0 1 2.03 1 4.5 0 2.48-0.45 4.51-1 4.5-0.55 0-1-2.02-1-4.5 0-2.47 0.45-4.5 1-4.5zm1.41 11.63c0.28 0.01 0.73 2.12 1.09 5.13 0.41 3.43 1.15 6.25 1.63 6.24 0.48 0 0.87 0.91 0.87 2 0 1.1-0.4 2.01-0.9 2-1.05 0-3.52-13.35-2.82-15.24 0.04-0.09 0.09-0.13 0.13-0.13z"/>
  <metadata>
    <rdf:RDF>
      <cc:Work>
        <dc:format>image/svg+xml</dc:format>
        <dc:type rdf:resource="http://purl.org/dc/dcmitype/StillImage"/>
        <cc:license rdf:resource="http://creativecommons.org/licenses/publicdomain/"/>
        <dc:publisher>
          <cc:Agent rdf:about="http://openclipart.org/">
            <dc:title>Openclipart</dc:title>
          </cc:Agent>
        </dc:publisher>
      </cc:Work>
      <cc:License rdf:about="http://creativecommons.org/licenses/publicdomain/">
        <cc:permits rdf:resource="http://creativecommons.org/ns#Reproduction"/>
        <cc:permits rdf:resource="http://creativecommons.org/ns#Distribution"/>
        <cc:permits rdf:resource="http://creativecommons.org/ns#DerivativeWorks"/>
      </cc:License>
    </rdf:RDF>
  </metadata>
</svg>
