<?xml version="1.0" encoding="UTF-8" standalone="no"?>
<!-- Created with Inkscape (http://www.inkscape.org/) -->
<svg
   xmlns:svg="http://www.w3.org/2000/svg"
   xmlns="http://www.w3.org/2000/svg"
   version="1.0"
   width="611.12927"
   height="563.67639"
   id="svg4371">
  <defs
     id="defs4373" />
  <g
     transform="translate(-40.999996,157.33521)"
     id="layer1">
    <path
       d="M 455.03607,401.25648 C 444.92462,396.25505 430.8719,385.6195 427.93471,380.7453 C 427.10582,379.36979 425.63155,372.73122 424.65854,365.99296 C 423.16184,355.62794 423.2725,352.06255 425.37733,342.837 C 427.94489,331.58315 429.35729,328.41091 434.8858,321.48105 C 440.42753,314.53463 443.31234,308.56614 442.38387,305.96806 C 441.89323,304.59516 438.93363,301.92163 435.80697,300.02688 C 432.68032,298.13214 425.99393,293.12823 420.94834,288.90708 C 407.16418,277.37522 388.39304,266.6888 385.09796,268.49744 C 384.35891,268.90311 380.4725,273.66194 376.46148,279.07263 C 372.45047,284.48331 368.43451,289.60469 367.53713,290.45347 C 366.63974,291.30223 362.12133,296.42538 357.4962,301.83824 C 352.87108,307.25108 346.49688,314.39496 343.33133,317.71349 C 340.16579,321.03203 336.4499,325.68585 335.07382,328.05532 C 333.69775,330.42479 328.73193,336.94641 324.03867,342.5478 C 313.0336,355.68233 308.10787,361.87211 301.34599,371.06398 C 298.32422,375.17166 294.24104,379.9907 292.27226,381.77297 C 290.30349,383.55523 288.69267,385.54117 288.69267,386.18618 C 288.69267,389.3771 282.77718,386.50199 272.94527,378.5325 C 266.95626,373.67796 261.34103,369.69372 260.46698,369.67863 C 259.59294,369.66355 254.40559,365.97415 248.93953,361.47998 C 243.47347,356.98581 237.26168,352.46956 235.13552,351.44386 C 230.89699,349.3991 224.47605,339.22032 224.47605,334.54594 C 224.47605,330.16022 231.47769,318.69726 239.53612,309.88981 C 247.87576,300.77502 269.71906,273.89209 274.26805,267.1446 C 276.00521,264.56786 278.80657,261.07828 280.4933,259.38998 C 284.12755,255.75232 293.75547,243.60514 295.30363,240.70433 C 295.90151,239.58406 298.44664,236.22322 300.95946,233.23581 C 307.17705,225.84395 324.63598,203.35199 333.03273,191.91653 C 336.81692,186.76287 343.86928,177.35858 348.70464,171.0181 C 353.54,164.67761 357.4962,158.59662 357.4962,157.50478 C 357.4962,156.27159 353.19639,154.12682 346.14516,151.84281 L 334.79413,148.16602 L 329.24124,137.74231 C 323.4699,126.90854 314.09097,117.09787 303.21787,110.52096 C 294.53093,105.26644 292.83842,104.91215 287.46501,107.22342 C 280.1794,110.3572 276.80803,116.93993 269.56,142.18357 C 260.44058,173.94491 258.03551,178.34661 240.33667,195.66721 C 234.9264,200.96189 232.96545,201.9531 226.57597,202.62294 C 215.88346,203.74391 203.01695,201.91969 191.1818,197.60476 C 177.47489,192.60741 161.54158,178.7663 158.94236,169.59866 C 157.98488,166.22163 157.2015,162.25139 157.2015,160.77592 C 157.2015,158.05733 166.31771,148.93196 171.7708,146.19199 C 174.70501,144.71767 174.70591,144.62933 171.83453,139.89399 C 169.06461,135.32599 169.04851,134.85509 171.50494,130.25766 C 174.62417,124.41976 181.29819,119.95255 188.43822,118.92351 C 195.04318,117.97159 196.27357,115.32698 192.32066,110.57855 C 190.03355,107.83116 189.50145,105.75944 190.24026,102.47863 C 191.38566,97.392404 198.67356,91.333913 203.64652,91.333913 C 209.69018,91.333913 211.01287,88.687245 207.49536,83.63251 C 203.18395,77.436937 204.71622,72.250429 212.63691,66.229104 C 216.08745,63.605996 219.73458,61.459828 220.74163,61.459828 C 221.7487,61.459828 223.45307,60.517681 224.52911,59.366185 C 226.15164,57.629889 225.92261,56.596287 223.18737,53.310558 C 218.75926,47.991288 218.98714,46.570191 225.24054,40.506852 C 228.18381,37.653048 230.59193,34.037279 230.59193,32.471809 C 230.59193,30.90634 232.0851,25.423657 233.91009,20.288058 L 237.22826,10.950628 L 228.02371,3.2758397 C 206.99753,-14.255852 187.76319,-29.81581 183.70341,-32.577805 C 177.99543,-36.461151 159.92866,-50.358262 150.60612,-58.036513 C 140.68092,-66.211122 139.60187,-66.640955 131.219,-65.759208 C 122.7199,-64.865226 118.02302,-67.189376 102.52542,-79.957573 C 97.261065,-84.294788 89.176651,-90.376187 84.560057,-93.471808 C 76.876676,-98.623824 76.166242,-99.553655 76.166242,-104.45797 C 76.166242,-111.98338 74.76849,-113.71117 59.706222,-124.80471 C 44.937759,-135.68185 40.999996,-139.18362 40.999996,-141.43977 C 40.999996,-142.2719 44.149515,-146.15029 47.99892,-150.05844 C 56.454781,-158.64333 61.863946,-159.54145 67.115872,-153.23256 C 69.642261,-150.19772 71.322978,-149.43172 74.484485,-149.87424 C 77.975162,-150.36283 78.850619,-149.7833 80.410929,-145.95108 C 82.529069,-140.74878 95.447282,-131.36381 100.49,-131.36381 C 102.33222,-131.36381 105.82492,-130.45199 108.25151,-129.33752 C 112.25352,-127.49953 113.28938,-127.54949 119.39826,-129.8751 C 133.95305,-135.41604 151.06655,-136.68018 156.57345,-132.62117 C 160.09544,-130.02518 159.08257,-126.13833 152.76349,-118.00052 C 145.18513,-108.24101 144.12429,-105.05772 147.16529,-101.20184 C 148.48055,-99.534115 149.55666,-96.554718 149.55666,-94.580951 C 149.55666,-90.928002 159.54119,-81.290514 175.701,-69.345307 C 189.28231,-59.306107 214.62355,-39.818183 222.9538,-33.006932 C 239.73907,-19.282452 253.96488,-8.4529024 256.39475,-7.5497002 C 257.76044,-7.0420444 262.17725,-6.5837488 266.2099,-6.5312655 C 271.86409,-6.457653 274.39987,-5.67392 277.29066,-3.1065412 C 279.35243,-1.2754363 283.44938,1.2384271 286.39498,2.4798311 C 289.34058,3.7212351 291.75062,5.2752307 291.75062,5.9331666 C 291.75062,6.591089 294.68313,8.3536328 298.2673,9.8499035 C 301.85148,11.346188 305.46366,13.906791 306.29438,15.540143 C 307.12509,17.173495 309.86887,19.087446 312.39167,19.793357 C 318.31853,21.451762 322.32995,24.598074 322.32995,27.588334 C 322.32995,28.892514 324.73808,31.221443 327.68134,32.763734 C 330.6246,34.306024 333.03273,36.131548 333.03273,36.820471 C 333.03273,37.509395 335.45338,38.476378 338.41197,38.969314 C 342.47548,39.646342 344.72402,41.177932 347.60494,45.231044 C 349.97495,48.565359 352.57756,50.596525 354.47992,50.596525 C 356.24974,50.596525 358.73128,52.334613 360.36232,54.716582 C 364.05107,60.103627 373.80975,67.458137 380.62461,69.987019 C 383.60469,71.092876 390.45649,75.63113 395.8508,80.072048 C 401.24513,84.512953 409.44286,90.766577 414.06799,93.96897 C 418.69311,97.171363 427.75232,104.15193 434.19956,109.48132 C 446.99473,120.05799 450.2396,122.55607 460.18972,129.48975 C 468.00368,134.93485 469.16349,135.79956 492.04531,153.23957 C 501.71603,160.61038 513.03164,168.67921 517.1911,171.17028 C 521.35056,173.66138 527.8869,178.33886 531.71629,181.56469 C 535.54568,184.79052 543.45053,191.21403 549.28263,195.83918 C 558.79424,203.38236 560.39166,204.16436 564.79129,203.43132 C 570.19749,202.53058 572.12509,203.64327 589.24618,217.5476 C 612.67113,236.57142 623.5742,244.87985 626.33312,245.80887 C 629.77473,246.96778 644.94202,259.28172 644.94202,260.91699 C 644.94202,261.51815 646.30188,263.10299 647.96391,264.43883 C 649.62594,265.77468 650.57206,267.46216 650.06641,268.18879 C 649.56076,268.91544 649.99511,271.79214 651.03163,274.58148 C 652.62741,278.87577 652.53348,280.31035 650.41883,283.94214 C 649.04525,286.30118 647.33404,288.23129 646.61609,288.23129 C 644.92813,288.23129 634.57222,297.23422 629.65236,302.97876 C 627.55003,305.43349 624.08357,309.15621 621.9491,311.25147 C 619.81463,313.34673 616.37446,317.26948 614.30427,319.9687 C 612.23407,322.66792 609.97198,324.88056 609.2774,324.88566 C 608.58284,324.89077 603.77365,321.9924 598.59035,318.44485 C 593.40705,314.8973 586.75096,310.54977 583.79906,308.78367 C 580.84716,307.01756 576.27506,303.50396 573.63885,300.97567 C 569.44412,296.95267 567.90754,296.37876 561.33092,296.37876 C 546.57629,296.37876 537.65015,305.01703 533.26763,323.53702 C 532.29558,327.64471 530.91261,333.44979 530.19432,336.4372 C 529.47603,339.4246 528.45377,344.92415 527.92262,348.65841 C 526.16212,361.03556 521.24964,377.48701 516.65229,386.40171 C 509.44844,400.37066 497.21879,406.36782 475.99115,406.34109 C 466.4958,406.32912 464.13178,405.7555 455.03607,401.25648 z M 493.19204,398.22303 C 493.40227,398.03587 494.31778,397.80637 495.22649,397.71302 C 496.13522,397.61966 497.75916,396.47392 498.83522,395.16693 C 499.91132,393.85994 501.456,392.79058 502.26788,392.79058 C 507.12226,392.79058 516.50879,375.1069 516.50879,365.96154 C 516.50879,363.62807 517.11057,361.38855 517.84609,360.98484 C 519.0042,360.34916 520.0042,355.05713 521.58662,341.18989 C 521.79968,339.32276 522.86221,335.10821 523.94781,331.8242 C 525.03338,328.54021 525.59685,324.75037 525.19992,323.40236 C 524.80301,322.05433 525.02808,320.76935 525.70011,320.54683 C 527.59514,319.91934 528.17638,312.2917 526.37036,311.75106 C 524.83858,311.2925 521.18941,317.62711 518.79857,324.89494 C 517.59843,328.54313 513.46162,361.37464 513.49448,366.99024 C 513.51335,370.21164 511.72673,374.71167 508.64237,379.21145 C 507.87448,380.33173 506.84193,382.31768 506.34779,383.62467 C 505.85366,384.93166 504.57117,386.00102 503.49782,386.00102 C 502.42448,386.00102 501.16668,386.87956 500.70274,387.95333 C 499.54462,390.6337 490.18031,392.9783 478.28461,393.5663 C 466.6084,394.14346 458.92777,392.3104 457.61357,388.63295 C 457.09626,387.18539 455.47825,386.00102 454.01803,386.00102 C 450.39319,386.00102 442.94484,378.54491 438.70103,370.66806 C 435.79296,365.27043 435.19553,361.92328 435.19553,351.02823 C 435.19553,340.44289 434.85171,338.41213 433.42332,340.56084 C 432.32974,342.20591 431.65111,349.84494 431.65111,360.50983 C 431.65111,377.75142 431.66162,377.80191 436.03199,381.55748 C 438.96669,384.07931 440.64914,384.76173 441.12855,383.62467 C 442.27019,380.91696 444.94768,381.66345 443.96426,384.41527 C 442.84949,387.53469 446.62472,390.665 457.23391,395.41805 C 464.34772,398.60514 466.89547,398.99952 479.04909,398.79493 C 486.61747,398.66753 492.98181,398.41018 493.19204,398.22303 z M 290.7453,373.99589 C 293.07798,369.63362 297.0106,364.09636 299.48445,361.69086 C 301.95829,359.28537 303.98235,356.74389 303.98235,356.04312 C 303.98235,353.66007 301.28409,354.7582 298.77157,358.1638 C 295.61286,362.44526 293.6744,362.45598 291.49304,358.20401 C 290.17216,355.62935 290.23045,354.35892 291.7437,352.73955 C 292.8281,351.57911 293.27328,350.23704 292.73297,349.75719 C 292.19269,349.27734 291.75062,349.59764 291.75062,350.46896 C 291.75062,351.34029 290.89057,352.08779 289.83941,352.13007 C 287.90656,352.20782 275.82289,366.06409 273.99143,370.30285 C 272.95648,372.69811 281.56995,381.92728 284.84036,381.92728 C 285.7554,381.92728 288.4126,378.35815 290.7453,373.99589 z M 467.58183,377.25473 C 467.58183,376.92538 466.8938,376.27825 466.05287,375.81667 C 465.21193,375.35509 464.5239,375.62455 464.5239,376.41548 C 464.5239,377.20641 465.21193,377.85354 466.05287,377.85354 C 466.8938,377.85354 467.58183,377.58408 467.58183,377.25473 z M 464.5239,369.02711 C 464.5239,367.90683 463.85746,366.99024 463.04292,366.99024 C 462.22838,366.99024 461.95797,367.90683 462.44201,369.02711 C 462.92607,370.14738 463.5925,371.06398 463.923,371.06398 C 464.25349,371.06398 464.5239,370.14738 464.5239,369.02711 z M 476.75564,367.66919 C 476.75564,366.54891 475.7642,365.63232 474.55243,365.63232 C 471.99805,365.63232 470.27375,367.57045 471.70065,368.8377 C 473.52801,370.46063 476.75564,369.71452 476.75564,367.66919 z M 276.78814,357.48485 C 277.44911,357.48485 277.98991,356.56997 277.98991,355.45179 C 277.98991,353.52457 289.07453,338.89481 294.02642,334.28641 C 295.29752,333.10348 296.33752,331.05216 296.33752,329.72791 C 296.33752,328.14562 297.12375,327.58815 298.63096,328.10182 C 300.28789,328.66651 300.92441,327.95309 300.92441,325.53128 C 300.92441,323.68759 301.78446,322.16268 302.83562,322.14258 C 303.88679,322.1225 306.46692,319.62257 308.56925,316.58718 C 310.67158,313.55179 314.11176,309.30957 316.21409,307.16001 C 323.60821,299.59977 325.44148,297.10352 324.75924,295.52454 C 324.38045,294.64785 325.39897,293.62201 327.02267,293.24492 C 328.64633,292.86781 329.9748,291.61697 329.9748,290.46524 C 329.9748,289.31353 331.63224,286.78287 333.65802,284.84157 C 335.68378,282.90027 339.98401,277.66766 343.21406,273.21354 C 346.4441,268.75944 350.96798,263.13632 353.26712,260.71774 C 355.56625,258.29917 357.45834,255.25098 357.47178,253.94399 C 357.48521,252.63699 358.39584,251.56764 359.4954,251.56764 C 360.59498,251.56764 362.71025,249.12057 364.19604,246.1297 C 365.68183,243.13884 368.22237,240.06203 369.84167,239.29236 C 371.46099,238.52268 372.78588,237.06324 372.78588,236.04915 C 372.78588,235.03505 373.85078,233.84241 375.15234,233.39883 C 376.91816,232.79703 377.32134,231.29532 376.74076,227.48242 C 376.31281,224.67197 376.33774,223.47568 376.79613,224.824 C 377.84812,227.91827 381.3641,226.99122 380.71048,223.79192 C 380.44057,222.4708 382.27914,219.79119 384.85918,217.74544 C 387.40757,215.72478 391.28609,211.72434 393.47812,208.85557 C 396.64814,204.70689 397.05065,203.37872 395.44529,202.36445 C 394.02049,201.46428 394.43861,201.2862 396.8671,201.75889 C 399.48627,202.2687 400.30728,201.81661 400.30728,199.86452 C 400.30728,198.45433 402.68703,195.12419 405.59561,192.46422 C 410.2694,188.18992 410.70331,187.206 409.32959,183.99706 C 408.47471,182.00009 407.04276,179.58235 406.14751,178.62432 C 404.03807,176.36696 397.24935,176.36176 397.24935,178.61751 C 397.24935,179.57181 395.88759,181.38813 394.22322,182.65379 C 392.49275,183.96969 391.58367,185.84972 392.1,187.04471 C 392.75125,188.55196 392.31621,188.9004 390.53923,188.2948 C 388.66189,187.65499 388.07554,188.29768 388.07554,190.99523 C 388.07554,192.94227 387.49828,194.38253 386.79274,194.19582 C 384.92086,193.70045 377.37277,202.01809 377.37277,204.57619 C 377.37277,205.77537 376.68474,206.75651 375.84381,206.75651 C 375.00288,206.75651 374.26647,208.43693 374.20737,210.49077 C 374.12132,213.48132 373.87859,213.72554 372.98864,211.71704 C 371.95434,209.38273 371.73,209.36676 369.74924,211.48642 C 368.03531,213.32053 367.97247,214.59056 369.42638,218.01146 C 370.61988,220.81968 370.71779,222.71552 369.71531,223.60585 C 368.71284,224.49616 368.19897,223.96732 368.19897,222.04528 C 368.19897,217.74377 365.34987,216.95517 363.70352,220.80098 C 362.91604,222.64051 361.54125,224.54652 360.64845,225.03657 C 359.75565,225.52662 359.01464,227.2664 359.00176,228.90274 C 358.98675,230.81042 358.55707,231.28922 357.80424,230.23719 C 356.99283,229.10333 355.3469,230.02477 352.47626,233.21994 C 350.19164,235.76285 348.32239,238.48712 348.32239,239.27387 C 348.32239,240.06063 347.68072,240.70433 346.89646,240.70433 C 346.1122,240.70433 344.98937,242.05072 344.4013,243.69631 C 343.81321,245.34189 342.39078,247.52425 341.24032,248.546 C 340.08988,249.56774 339.14859,251.27665 339.14859,252.34359 C 339.14859,253.41052 338.11654,254.28346 336.85514,254.28346 C 335.59375,254.28346 334.5617,255.20006 334.5617,256.32033 C 334.5617,257.44061 333.69763,258.3572 332.64154,258.3572 C 331.58545,258.3572 329.14317,261.41251 327.21424,265.14677 C 325.28531,268.88103 323.05323,271.93633 322.25404,271.93633 C 321.45487,271.93633 320.80099,272.78755 320.80099,273.82792 C 320.80099,274.8683 319.76893,276.07123 318.50753,276.50113 C 317.24614,276.93102 316.21409,278.62589 316.21409,280.26751 C 316.21409,281.90913 315.76136,282.8502 315.20804,282.35878 C 313.04945,280.44167 310.13781,284.50414 311.13109,288.04718 C 311.99338,291.12304 311.81037,291.38915 309.82891,289.94046 C 306.992,287.86632 305.51131,289.01517 305.51131,293.29044 C 305.51131,295.11039 304.83892,296.16997 303.98235,295.69981 C 303.14142,295.23823 302.45009,295.35493 302.44608,295.95914 C 302.44205,296.56336 299.99663,299.41938 297.01177,302.30585 C 292.50361,306.66542 291.72758,308.27476 292.4283,311.81124 C 292.90264,314.20531 292.77149,315.05026 292.1286,313.74188 C 290.48835,310.4037 286.75929,313.48365 282.7352,321.50015 C 281.9854,322.99386 278.54687,326.83872 275.09401,330.04429 C 271.64116,333.24986 268.8161,336.76346 268.8161,337.85229 C 268.8161,338.94112 267.78405,339.83198 266.52266,339.83198 C 265.2367,339.83198 264.2292,341.04375 264.2292,342.59042 C 264.2292,344.10757 263.19715,345.70059 261.93576,346.13048 C 260.67435,346.56038 259.6423,347.57117 259.6423,348.3767 C 259.6423,349.18223 258.15269,351.24951 256.33206,352.97068 C 253.5144,355.63439 253.28199,356.60724 254.7703,359.50829 C 255.73198,361.3828 257.45898,362.9165 258.60806,362.9165 C 259.75716,362.9165 261.93697,364.13304 263.45209,365.61993 C 266.1764,368.29348 266.25871,368.26346 270.89661,362.9041 C 273.47598,359.92351 276.12717,357.48485 276.78814,357.48485 z M 284.22649,329.53448 C 284.29985,327.95258 284.66216,327.63082 285.15022,328.71407 C 285.5919,329.69432 285.53759,330.86552 285.02953,331.31674 C 284.52145,331.76796 284.1601,330.96593 284.22649,329.53448 z M 304.10307,311.88161 C 304.17642,310.29971 304.53873,309.97795 305.0268,311.0612 C 305.46847,312.04145 305.41417,313.21265 304.90611,313.66387 C 304.39803,314.11509 304.03668,313.31307 304.10307,311.88161 z M 351.57145,253.43477 C 350.56244,251.46797 350.0874,249.54746 350.51583,249.16697 C 350.94426,248.78647 352.02131,250.1723 352.9093,252.24659 C 355.00669,257.14598 353.95471,258.08027 351.57145,253.43477 z M 345.50587,251.56764 C 345.50587,249.70051 345.85292,248.93668 346.27707,249.87025 C 346.70122,250.80381 346.70122,252.33146 346.27707,253.26503 C 345.85292,254.19859 345.50587,253.43477 345.50587,251.56764 z M 356.08794,245.34387 C 356.1613,243.76197 356.52361,243.44022 357.01169,244.52346 C 357.45336,245.50371 357.39905,246.67491 356.89099,247.12614 C 356.38292,247.57736 356.02155,246.77533 356.08794,245.34387 z M 369.72794,229.84103 C 369.72794,229.09418 370.41598,228.48312 371.25691,228.48312 C 372.09784,228.48312 372.78588,229.09418 372.78588,229.84103 C 372.78588,230.58788 372.09784,231.19894 371.25691,231.19894 C 370.41598,231.19894 369.72794,230.58788 369.72794,229.84103 z M 379.25646,212.18816 C 379.25646,209.57418 379.57112,208.50482 379.95571,209.81182 C 380.34027,211.11881 380.34027,213.25752 379.95571,214.56451 C 379.57112,215.8715 379.25646,214.80215 379.25646,212.18816 z M 395.72038,186.38782 C 395.72038,185.64097 396.44902,185.0299 397.33959,185.0299 C 398.23015,185.0299 398.53356,185.64097 398.01383,186.38782 C 397.4941,187.13467 396.76546,187.74573 396.39463,187.74573 C 396.02379,187.74573 395.72038,187.13467 395.72038,186.38782 z M 485.62365,366.71865 C 488.13939,364.48436 487.95191,362.2202 485.40652,364.09636 C 484.27799,364.92818 482.90192,365.20669 482.34859,364.71527 C 481.79527,364.22384 481.34254,364.84021 481.34254,366.08496 C 481.34254,368.74708 483.0544,369.00046 485.62365,366.71865 z M 460.06644,355.69873 C 458.87453,354.64017 458.40803,355.19353 458.40803,357.6659 C 458.40803,362.1433 460.55077,364.05835 461.21317,360.17297 C 461.49461,358.52222 460.97858,356.50882 460.06644,355.69873 z M 475.22667,360.77314 C 475.22667,360.55552 474.55061,358.79822 473.72431,356.86803 C 472.39249,353.75699 471.87177,353.55281 469.13741,355.0694 C 464.44653,357.67115 465.25144,360.85413 470.64326,361.02422 C 473.16414,361.10375 475.22667,360.99076 475.22667,360.77314 z M 485.92944,356.64758 C 485.92944,355.61438 485.29768,354.76902 484.52553,354.76902 C 483.75337,354.76902 482.03329,354.39812 480.70311,353.94478 C 478.90031,353.33038 478.28461,353.97383 478.28461,356.4723 C 478.28461,359.3153 478.86481,359.72555 482.10703,359.17511 C 484.20935,358.81818 485.92944,357.68081 485.92944,356.64758 z M 494.49373,353.64573 C 491.78311,351.23837 489.69841,352.27527 491.03406,355.36652 C 491.5722,356.61199 492.91519,357.10315 494.39945,356.59731 C 496.63285,355.83615 496.64189,355.55357 494.49373,353.64573 z M 254.30534,344.65496 C 258.92227,338.47742 259.55759,336.79702 258.15569,334.47061 C 257.23228,332.93825 255.64095,331.6845 254.61937,331.6845 C 252.55797,331.6845 252.33309,325.62131 254.25029,321.73321 C 255.16335,319.88153 254.3082,318.30436 250.88607,315.52841 C 246.47086,311.9469 246.1743,311.89504 243.03167,314.15509 C 241.2354,315.4469 239.76573,317.09488 239.76573,317.81729 C 239.76573,318.53969 238.72566,319.89735 237.45448,320.83431 C 233.9684,323.40383 228.89293,334.50121 229.90658,337.33761 C 231.50605,341.81328 243.69105,351.85604 247.71108,352.0119 C 248.29683,352.03462 251.26423,348.72399 254.30534,344.65496 z M 458.40803,349.93618 C 458.40803,348.77182 457.72,348.19683 456.87907,348.65841 C 456.03814,349.11999 455.3501,350.07265 455.3501,350.77543 C 455.3501,351.4782 456.03814,352.05319 456.87907,352.05319 C 457.72,352.05319 458.40803,351.10054 458.40803,349.93618 z M 470.63977,348.54526 C 470.63977,345.94943 468.85833,345.38065 465.88803,347.0281 C 461.99021,349.19001 462.2472,350.01632 466.81735,350.01632 C 468.91969,350.01632 470.63977,349.35434 470.63977,348.54526 z M 478.28461,346.62154 C 478.28461,345.87469 477.59657,345.26363 476.75564,345.26363 C 475.91471,345.26363 475.22667,345.87469 475.22667,346.62154 C 475.22667,347.36839 475.91471,347.97946 476.75564,347.97946 C 477.59657,347.97946 478.28461,347.36839 478.28461,346.62154 z M 492.04531,345.18349 C 492.04531,344.48071 491.01326,343.90572 489.75186,343.90572 C 487.38745,343.90572 486.71426,345.508 488.43616,347.03727 C 489.65769,348.12215 492.04531,346.89579 492.04531,345.18349 z M 503.28221,344.62817 C 504.3605,342.13253 501.4938,340.40278 499.38435,342.27622 C 497.75232,343.72567 498.92618,346.62154 501.14577,346.62154 C 501.84711,346.62154 502.80849,345.72452 503.28221,344.62817 z M 466.96427,337.34363 C 464.72976,335.35911 464.51372,335.40128 464.40319,337.8436 C 464.3368,339.31063 463.93545,339.74711 463.5113,338.81354 C 462.27576,336.09411 459.937,336.85556 459.937,339.97726 C 459.937,341.81148 460.67272,342.58763 461.98686,342.13976 C 463.11428,341.75553 465.00638,341.9796 466.19151,342.63768 C 469.34972,344.39137 469.98663,340.02786 466.96427,337.34363 z M 477.39507,340.36565 C 479.93634,339.49957 480.83093,333.04241 478.40966,333.04241 C 473.36414,333.04241 470.11216,337.55283 473.18805,340.28461 C 474.42905,341.38679 474.40046,341.38623 477.39507,340.36565 z M 488.30523,334.51864 C 487.74021,333.70672 486.26229,333.04241 485.02093,333.04241 C 483.19938,333.04241 483.09662,333.59453 484.48833,335.90402 C 485.66072,337.84959 486.71207,338.32216 487.77263,337.38025 C 488.63056,336.6183 488.87024,335.33058 488.30523,334.51864 z M 501.21911,336.01778 C 501.21911,334.02068 496.90195,329.63439 495.85312,330.56587 C 494.18626,332.04625 496.64413,337.11615 499.0287,337.11615 C 500.23342,337.11615 501.21911,336.62189 501.21911,336.01778 z M 466.05287,329.72778 C 466.05287,328.65157 465.36483,327.39339 464.5239,326.93181 C 463.68297,326.47022 462.99493,327.35075 462.99493,328.88853 C 462.99493,330.42631 463.68297,331.6845 464.5239,331.6845 C 465.36483,331.6845 466.05287,330.80398 466.05287,329.72778 z M 473.31525,326.81846 C 471.85822,325.52442 468.93707,327.62044 470.02292,329.18082 C 470.66833,330.10828 471.52355,330.08485 472.62161,329.10963 C 473.52181,328.31014 473.83396,327.27912 473.31525,326.81846 z M 476.28623,325.26026 C 475.89858,323.93905 475.5559,324.69125 475.52475,326.93181 C 475.49358,329.17236 475.81075,330.25334 476.22959,329.33399 C 476.6484,328.41465 476.67388,326.58146 476.28623,325.26026 z M 486.15107,324.00459 C 484.08907,322.64357 483.96795,321.86124 485.47874,319.66178 C 486.96174,317.50277 486.88711,316.65891 485.09649,315.33907 C 483.87276,314.43709 482.87151,314.15427 482.87151,314.71059 C 482.87151,315.26691 481.83945,314.96138 480.57806,314.03163 C 478.64087,312.60377 478.28461,312.88191 478.28461,315.82209 C 478.28461,317.73659 478.97264,319.68066 479.81357,320.14224 C 480.6545,320.60382 481.34254,322.35086 481.34254,324.02454 C 481.34254,328.56877 484.43798,330.80011 486.78589,327.94838 C 488.31838,326.08706 488.20096,325.35763 486.15107,324.00459 z M 498.92567,324.87633 C 498.92567,321.96565 494.48299,322.38606 493.8386,325.35773 C 493.44511,327.17244 494.06781,327.72548 496.11113,327.37601 C 497.65911,327.11124 498.92567,325.98639 498.92567,324.87633 z M 508.86395,324.21598 C 508.86395,323.0957 508.17592,322.17911 507.33498,322.17911 C 506.49405,322.17911 505.80601,323.0957 505.80601,324.21598 C 505.80601,325.33626 506.49405,326.25285 507.33498,326.25285 C 508.17592,326.25285 508.86395,325.33626 508.86395,324.21598 z M 474.83662,318.46567 C 475.63635,316.33491 472.62315,315.07845 469.09712,316.07236 C 464.34661,317.41144 465.23328,321.01159 470.169,320.42455 C 472.43288,320.15529 474.5333,319.2738 474.83662,318.46567 z M 495.96141,315.65168 C 495.4254,314.15179 493.98098,312.5818 492.75159,312.16283 C 489.9613,311.21189 489.64364,316.78714 492.35111,319.1917 C 494.83514,321.39783 497.1898,319.089 495.96141,315.65168 z M 506.95252,313.23933 C 505.49549,311.94529 502.57435,314.04131 503.66021,315.60169 C 504.30561,316.52915 505.16082,316.50572 506.2589,315.5305 C 507.15909,314.73101 507.47123,313.69999 506.95252,313.23933 z M 606.71784,314.25758 C 606.71784,313.63499 609.46999,310.47802 612.83372,307.24207 C 618.65237,301.64447 620.23372,299.09459 617.88653,299.09459 C 617.30183,299.09459 614.92669,300.70851 612.60843,302.68107 C 608.72529,305.98514 608.02257,306.13115 603.68416,304.53516 C 601.09411,303.58234 598.62214,303.11613 598.1909,303.49912 C 597.75966,303.88212 595.50468,302.58948 593.17984,300.6266 C 583.323,292.3044 576.35227,286.87337 575.52758,286.87337 C 573.7004,286.87337 568.49367,282.12669 568.49367,280.46098 C 568.49367,279.50668 567.36851,278.7259 565.9933,278.7259 C 564.61811,278.7259 561.90453,277.35101 559.96314,275.67059 C 552.20692,268.957 550.55673,267.86259 548.19003,267.86259 C 546.83483,267.86259 544.81916,266.18218 543.71078,264.12833 C 542.6024,262.07449 540.85802,260.39407 539.83437,260.39407 C 538.81074,260.39407 536.88889,259.01919 535.56362,257.33877 C 534.23834,255.65835 532.27143,254.28346 531.1927,254.28346 C 530.11397,254.28346 528.47898,252.81689 527.55938,251.0244 C 526.61088,249.17555 524.69994,247.8535 523.14313,247.9691 C 521.20508,248.113 519.72899,246.47739 518.11873,242.40173 C 516.86466,239.2276 514.99151,236.6306 513.9562,236.6306 C 510.32561,236.6306 509.27309,232.48582 511.6974,227.73557 C 513.50087,224.20178 514.49558,223.48897 516.03743,224.62545 C 517.61198,225.786 518.03775,225.20474 518.03775,221.89469 C 518.03775,218.59573 517.04931,217.23559 513.45085,215.58295 C 510.92805,214.42431 508.86395,212.86178 508.86395,212.11068 C 508.86395,211.35956 507.65989,210.34393 506.18826,209.85369 C 504.71662,209.36347 500.6918,206.32734 497.24419,203.10675 C 490.27166,196.59332 490.67682,196.74788 485.31818,198.5573 C 481.62271,199.80512 481.54109,200.06294 483.49106,204.32843 C 486.07364,209.97773 485.18161,213.09192 481.70969,210.54745 C 479.81264,209.15715 479.18289,209.14539 478.67304,210.49077 C 477.63288,213.23545 475.992,212.55768 466.34493,205.3986 C 456.81887,198.32932 454.59721,197.46176 453.30477,200.30643 C 452.88062,201.23999 452.45738,200.47616 452.36424,198.60903 C 452.13686,194.05048 448.72308,190.10077 446.62274,191.96614 C 445.52511,192.94097 444.73023,192.29767 444.04756,189.88203 C 443.46284,187.81291 441.98071,186.38719 440.41355,186.3863 C 438.95794,186.38545 435.70287,184.53399 433.18007,182.27194 C 428.6633,178.22201 425.11023,175.21234 414.22793,166.21834 C 411.19771,163.71393 406.90932,160.834 404.69815,159.81849 C 402.48698,158.80297 400.25009,156.98209 399.72728,155.77208 C 399.20447,154.56207 397.91702,153.83036 396.86629,154.14606 C 395.81557,154.46176 393.40502,152.86285 391.50951,150.59291 L 388.06311,146.46575 L 388.64627,150.47131 C 389.57698,156.86433 391.33874,160.58747 393.43315,160.58747 C 394.50181,160.58747 396.9619,162.35643 398.90001,164.51847 C 400.83812,166.68051 403.32369,168.14279 404.42351,167.76797 C 405.57354,167.37603 406.42315,168.04046 406.42315,169.33178 C 406.42315,170.56671 408.48903,172.61802 411.01398,173.89028 C 413.53895,175.16254 416.00256,177.29837 416.48867,178.63657 C 417.07297,180.24501 418.31058,180.80525 420.14016,180.28953 C 422.21868,179.70364 423.31024,180.53475 424.52421,183.62756 C 426.12975,187.71795 429.31514,189.29811 429.40415,186.04834 C 429.42971,185.11477 430.23259,185.57307 431.18832,187.06677 C 434.1323,191.66797 444.15051,199.96695 446.7609,199.96695 C 448.12124,199.96695 449.23424,200.81101 449.23424,201.84265 C 449.23424,202.87428 451.5468,205.28489 454.37326,207.19954 C 457.19972,209.11421 462.532,213.1613 466.22275,216.1931 C 475.59686,223.89348 477.01044,224.93586 481.34254,227.34242 C 483.44487,228.51029 487.2949,231.23498 489.89817,233.39728 C 492.50143,235.55958 497.45704,239.06785 500.91064,241.19344 C 504.36425,243.31902 508.32993,246.60337 509.72328,248.49199 C 511.53527,250.94805 512.59112,251.44517 513.43133,250.23778 C 514.24808,249.06409 515.46226,249.83706 517.41603,252.77451 C 518.96153,255.09814 521.03062,256.99929 522.01398,256.99929 C 522.99736,256.99929 524.92897,258.52694 526.30647,260.39407 C 527.68397,262.2612 529.803,263.78885 531.01543,263.78885 C 532.22785,263.78885 533.97866,265.0481 534.90611,266.5872 C 535.83357,268.12629 537.32316,269.16919 538.21631,268.90479 C 539.10947,268.64038 541.7098,269.97813 543.99483,271.87757 C 556.46136,282.2405 567.65981,290.31771 570.07153,290.68619 C 571.57639,290.91611 574.41712,293.20342 576.38428,295.76909 C 578.35142,298.33476 580.78678,300.43812 581.79616,300.44323 C 582.80553,300.44833 584.18161,301.23099 584.85409,302.1825 C 585.52657,303.13399 587.79688,304.98746 589.89921,306.30131 C 592.00154,307.61517 596.05949,310.1975 598.91687,312.03985 C 604.3056,315.51428 606.71784,316.20007 606.71784,314.25758 z M 501.46052,228.48312 C 501.46052,226.61599 501.80756,225.85216 502.23172,226.78573 C 502.65587,227.71929 502.65587,229.24694 502.23172,230.18051 C 501.80756,231.11407 501.46052,230.35025 501.46052,228.48312 z M 488.40934,226.00444 C 487.73275,224.26774 487.58604,222.48547 488.08329,222.04385 C 489.66823,220.63623 490.7823,222.71183 490.20145,225.99018 L 489.63946,229.16207 L 488.40934,226.00444 z M 493.69499,223.61727 C 493.76835,222.03537 494.13065,221.71361 494.61873,222.79686 C 495.0604,223.77711 495.00609,224.94831 494.49804,225.39953 C 493.98998,225.85075 493.6286,225.04873 493.69499,223.61727 z M 499.05249,221.8758 C 498.39385,220.92933 498.26789,219.78824 498.77255,219.34002 C 500.14094,218.12474 501.63289,219.91211 500.89383,221.88129 C 500.37593,223.26116 500.01579,223.26008 499.05249,221.8758 z M 486.05016,218.18562 C 486.12351,216.60372 486.48582,216.28196 486.9739,217.36521 C 487.41557,218.34546 487.36126,219.51666 486.8532,219.96788 C 486.34513,220.4191 485.98377,219.61707 486.05016,218.18562 z M 496.35729,214.22503 C 495.82387,212.73133 494.94113,209.67602 494.39561,207.43547 C 493.40615,203.3716 493.40976,203.36917 495.88223,206.43359 C 497.24539,208.12311 498.12814,211.17842 497.8439,213.22315 C 497.39905,216.42329 497.19209,216.56276 496.35729,214.22503 z M 489.10809,208.68023 C 489.18145,207.09833 489.54375,206.77657 490.03183,207.85982 C 490.4735,208.84007 490.41919,210.01127 489.91113,210.46249 C 489.40307,210.91371 489.0417,210.11168 489.10809,208.68023 z M 411.66532,170.19256 C 411.66532,168.75369 412.20592,167.87316 412.86666,168.23584 C 413.52739,168.59849 414.06799,169.77576 414.06799,170.85196 C 414.06799,171.92816 413.52739,172.80869 412.86666,172.80869 C 412.20592,172.80869 411.66532,171.63143 411.66532,170.19256 z M 478.6183,304.2191 L 475.22667,301.20691 L 475.22667,304.11342 C 475.22667,305.71201 475.66477,308.03389 476.20023,309.27317 C 477.08792,311.32765 477.38709,311.33698 479.59187,309.37884 C 481.79666,307.42071 481.71079,306.9656 478.6183,304.2191 z M 492.73899,308.70174 C 493.7698,307.22042 490.56455,300.4525 488.83219,300.4525 C 486.43102,300.4525 485.93471,303.0508 487.68441,306.46135 C 489.55005,310.09789 491.24471,310.84904 492.73899,308.70174 z M 537.76675,298.03771 C 539.10932,297.59129 541.04594,296.27157 542.07037,295.105 C 543.09477,293.93845 543.95482,293.46377 543.98158,294.05019 C 544.00832,294.6366 545.57828,294.35864 547.47037,293.43249 C 549.36247,292.50634 552.11461,291.91218 553.58624,292.11215 C 555.1345,292.32254 556.26193,291.61128 556.26193,290.42415 C 556.26193,288.72323 555.41257,288.61552 551.29279,289.79401 C 542.8313,292.21448 536.38536,295.08926 536.38536,296.44248 C 536.38536,297.15428 535.39967,297.73668 534.19494,297.73668 C 532.99021,297.73668 531.56778,298.9588 531.03397,300.4525 C 530.50017,301.94621 529.42176,303.16833 528.63749,303.16833 C 527.85323,303.16833 527.21155,304.28861 527.21155,305.65783 C 527.21155,310.51111 529.41809,309.99723 532.35213,304.46064 C 533.9876,301.37446 536.42418,298.48414 537.76675,298.03771 z M 515.80457,302.21918 C 514.87894,298.94377 514.61063,298.84051 512.3173,300.87727 C 510.02399,302.91402 510.05723,303.30401 512.74947,305.94608 C 516.04951,309.18464 517.33117,307.62117 515.80457,302.21918 z M 504.27705,304.60639 C 504.27705,301.62004 501.97389,299.87793 499.68602,301.13373 C 498.66649,301.69334 498.68451,302.85742 499.73981,304.60865 C 501.78192,307.99752 504.27705,307.99627 504.27705,304.60639 z M 488.98738,295.101 C 488.98738,293.49885 486.00535,291.78497 484.91013,292.75766 C 483.81491,293.73036 485.74469,296.37876 487.54865,296.37876 C 488.33995,296.37876 488.98738,295.80377 488.98738,295.101 z M 521.77946,293.54696 C 521.28718,292.83953 520.23268,292.61845 519.43613,293.05567 C 518.63959,293.49287 518.39065,294.4294 518.88295,295.13683 C 519.37523,295.84426 520.42973,296.06534 521.22628,295.62812 C 522.02282,295.19092 522.27175,294.25439 521.77946,293.54696 z M 628.86051,294.25803 C 631.81099,292.27742 631.73805,292.09915 626.09972,287.51165 C 622.91449,284.92004 619.43087,282.79964 618.35838,282.79964 C 617.28589,282.79964 615.48782,281.27198 614.36269,279.40485 C 612.09613,275.64356 609.77579,274.92963 609.77579,277.99356 C 609.77579,279.08448 613.20015,281.96804 617.38549,284.40146 C 625.74406,289.26126 627.54711,291.68621 624.90463,294.51401 C 622.60033,296.97989 625.04107,296.82195 628.86051,294.25803 z M 500.86872,293.40833 C 499.92371,290.89046 496.63221,290.47285 496.63221,292.87083 C 496.63221,294.05334 497.7216,295.02085 499.05307,295.02085 C 500.38456,295.02085 501.20159,294.29521 500.86872,293.40833 z M 513.45085,293.06413 C 513.45085,291.98793 512.76282,290.72974 511.92189,290.26816 C 511.08096,289.80657 510.39292,290.6871 510.39292,292.22488 C 510.39292,293.76266 511.08096,295.02085 511.92189,295.02085 C 512.76282,295.02085 513.45085,294.14033 513.45085,293.06413 z M 464.26471,283.59608 C 466.93007,280.29987 469.11081,276.99662 469.11081,276.25553 C 469.11081,275.51443 465.89668,273.01733 461.96833,270.70639 C 455.70115,267.0196 453.49948,266.49938 444.00296,266.4615 C 432.14102,266.41416 427.82869,264.63266 427.82869,259.7796 C 427.82869,254.32644 433.48586,249.68443 442.80798,247.48828 C 450.9358,245.5735 451.53341,245.14899 452.36641,240.69871 C 452.8551,238.08783 454.05164,234.64803 455.02536,233.05471 C 456.51799,230.61235 456.22298,229.60888 453.14532,226.65955 C 449.34071,223.01358 447.22096,222.36686 434.96496,221.11286 C 428.59003,220.46058 427.18536,220.77467 424.72917,223.40155 C 423.1634,225.07613 419.87548,228.58496 417.42269,231.19894 C 411.10985,237.92664 407.95211,243.92219 407.95211,249.1806 C 407.95211,252.74985 409.33863,254.8927 414.45023,259.22342 C 418.02419,262.2514 423.35647,266.01981 426.29972,267.59768 C 429.24298,269.17555 437.15539,274.72796 443.88285,279.93638 C 450.6103,285.14479 456.858,289.44739 457.7666,289.4977 C 458.67521,289.54803 461.59936,286.8923 464.26471,283.59608 z M 487.42132,269.15261 C 487.44171,267.24814 488.08518,265.10942 488.85122,264.39992 C 489.61727,263.69041 490.71701,258.49889 491.29506,252.8632 C 492.15225,244.50648 491.91378,242.29783 490.00218,240.88883 C 487.95049,239.37658 487.66485,239.97693 487.71121,245.70388 C 487.79349,255.86903 486.75727,262.23889 484.72827,264.0409 C 483.70704,264.94787 482.87151,266.81134 482.87151,268.18195 C 482.87151,270.94525 479.33006,276.20968 474.07995,281.25085 C 472.18785,283.06765 470.66659,285.53425 470.69937,286.73218 C 470.80218,290.48837 487.37944,273.06089 487.42132,269.15261 z M 499.69015,285.51546 C 499.69015,284.76861 499.04272,284.15755 498.25142,284.15755 C 497.46012,284.15755 496.38745,284.76861 495.86773,285.51546 C 495.348,286.26231 495.99543,286.87337 497.30646,286.87337 C 498.61748,286.87337 499.69015,286.26231 499.69015,285.51546 z M 511.92189,284.91665 C 511.92189,283.84045 511.28138,282.60836 510.49857,282.17868 C 508.68079,281.18091 506.85258,283.72367 508.09947,285.51546 C 509.50544,287.53586 511.92189,287.1573 511.92189,284.91665 z M 522.78336,283.75533 C 520.82095,282.01247 518.8309,283.3595 520.28375,285.44727 C 520.84653,286.25599 522.00743,286.5332 522.86352,286.0633 C 523.90781,285.4901 523.88144,284.73056 522.78336,283.75533 z M 533.32743,285.47285 C 533.32743,283.8472 529.01479,282.10342 527.757,283.22049 C 526.41807,284.40963 528.68914,286.87337 531.12421,286.87337 C 532.33598,286.87337 533.32743,286.24314 533.32743,285.47285 z M 641.82452,283.9015 C 644.90197,280.9678 646.09296,276.01007 643.72027,276.01007 C 642.38685,276.01007 631.6498,267.88179 620.66036,258.55303 C 616.82813,255.29989 609.76482,249.8976 604.96414,246.54792 C 600.16345,243.19824 595.86359,239.59652 595.40885,238.5441 C 594.95413,237.49168 593.60756,236.6306 592.41648,236.6306 C 591.22542,236.6306 589.12386,235.10294 587.74637,233.23581 C 584.8316,229.28501 582.28325,228.81814 582.18726,232.21738 C 582.15036,233.52437 581.18177,232.25679 580.03486,229.40051 C 577.42513,222.90119 576.3457,221.92669 574.54981,224.4487 C 573.21254,226.32668 572.98386,226.18892 572.50721,223.21825 C 572.40209,222.56312 568.53189,218.90314 563.90677,215.08494 C 559.28164,211.26675 554.80941,207.5084 553.96848,206.73305 C 549.64227,202.74425 544.62848,198.93391 537.02483,193.85634 C 534.78802,192.36263 527.70878,186.71567 521.29317,181.30753 C 508.12028,170.20322 504.69525,168.60656 501.74217,172.19332 C 499.81826,174.53007 499.6165,174.52832 496.65653,172.14927 C 493.64174,169.72617 493.57428,169.74873 493.57428,173.18019 C 493.57428,176.9403 497.09839,180.95617 500.39809,180.95617 C 501.50826,180.95617 502.84829,182.48382 503.37594,184.35095 C 503.95975,186.41681 505.42489,187.74573 507.11869,187.74573 C 508.64956,187.74573 510.68579,189.27338 511.64369,191.14051 C 513.67422,195.09849 515.98895,195.53993 516.98379,192.15895 C 517.57568,190.1474 517.71629,190.19952 517.89965,192.49843 C 518.15689,195.72332 532.56268,208.69447 534.62801,207.56083 C 535.41514,207.12878 536.48968,208.29871 537.01587,210.16068 C 537.59532,212.21108 539.06507,213.54608 540.74302,213.54608 C 542.26676,213.54608 544.44247,215.08773 545.57792,216.97198 C 546.71337,218.85622 548.37771,220.17735 549.27646,219.90782 C 550.17521,219.63827 552.1045,221.15192 553.56377,223.27148 C 555.02304,225.39103 557.16277,227.12521 558.31874,227.12521 C 559.47471,227.12521 561.71222,228.65286 563.29103,230.51999 C 564.8698,232.38712 566.98393,233.91477 567.98905,233.91477 C 568.9942,233.91477 570.25356,235.13754 570.78764,236.63204 C 571.32173,238.12654 573.00982,239.94398 574.53899,240.67081 C 578.08317,242.35538 583.64279,246.49651 593.27026,254.62294 C 597.47307,258.17049 601.55167,261.07303 602.33381,261.07303 C 603.11595,261.07303 604.15192,261.98962 604.63596,263.1099 C 605.12002,264.23018 606.83326,265.14677 608.44318,265.14677 C 610.10445,265.14677 612.14608,266.65891 613.16416,268.64339 C 614.15078,270.56652 616.88818,273.02646 619.24726,274.10992 C 621.60634,275.19335 623.53648,276.67518 623.53648,277.40285 C 623.53648,278.13053 624.40409,278.7259 625.46448,278.7259 C 626.52487,278.7259 629.09745,280.55908 631.18133,282.79964 C 635.69534,287.65306 637.67423,287.85793 641.82452,283.9015 z M 565.55645,223.61727 C 565.62981,222.03537 565.99211,221.71361 566.48019,222.79686 C 566.92186,223.77711 566.86755,224.94831 566.35949,225.39953 C 565.85143,225.85075 565.49006,225.04873 565.55645,223.61727 z M 524.27434,195.1011 C 524.34769,193.5192 524.71,193.19744 525.19807,194.28069 C 525.63975,195.26094 525.58544,196.43214 525.07738,196.88336 C 524.56931,197.33458 524.20795,196.53255 524.27434,195.1011 z M 605.18888,272.69543 C 605.18888,270.50367 603.02341,268.88053 601.68507,270.06913 C 600.49189,271.12882 602.13588,274.65216 603.82349,274.65216 C 604.57445,274.65216 605.18888,273.77163 605.18888,272.69543 z M 595.40655,264.93243 C 593.72514,262.80047 592.95715,262.4749 592.95715,263.89408 C 592.95715,266.07309 596.12344,269.5769 597.21583,268.60673 C 597.5679,268.29404 596.75372,266.64062 595.40655,264.93243 z M 477.43901,264.2714 C 478.66879,259.91971 476.80062,257.97314 471.97845,258.58172 C 467.58493,259.1362 466.54919,262.67774 469.90813,265.6609 C 473.52229,268.87072 476.28319,268.36131 477.43901,264.2714 z M 588.30015,259.59881 C 587.36151,258.04115 586.28905,257.03709 585.91692,257.3676 C 584.8468,258.31799 587.01621,262.43094 588.58762,262.43094 C 589.36866,262.43094 589.23939,261.15748 588.30015,259.59881 z M 443.56609,255.3019 C 445.82951,254.36833 447.68677,253.178 447.69334,252.65671 C 447.7074,251.5387 438.42173,254.12557 436.31446,255.8267 C 434.11615,257.60135 438.8157,257.26124 443.56609,255.3019 z M 580.72541,254.49393 C 580.72541,253.86282 579.34933,252.24047 577.66747,250.88868 C 574.30226,248.18392 573.75581,248.97153 576.19229,253.01482 C 577.78779,255.66251 580.72541,256.62102 580.72541,254.49393 z M 454.58561,251.56764 C 455.10534,250.82079 454.80194,250.20973 453.91138,250.20973 C 453.02081,250.20973 452.29217,250.82079 452.29217,251.56764 C 452.29217,252.31449 452.59558,252.92555 452.96641,252.92555 C 453.33724,252.92555 454.06589,252.31449 454.58561,251.56764 z M 462.05461,246.86271 C 464.82042,243.1138 465.23214,240.70433 463.10692,240.70433 C 461.94967,240.70433 456.87907,248.06052 456.87907,249.7394 C 456.87907,251.39763 459.98085,249.67359 462.05461,246.86271 z M 573.08057,249.01807 C 573.08057,247.28164 568.58483,244.24447 567.47435,245.23071 C 566.36388,246.21694 569.78364,250.20973 571.73882,250.20973 C 572.47678,250.20973 573.08057,249.67349 573.08057,249.01807 z M 563.90677,241.52857 C 563.90677,240.4882 562.87471,239.28526 561.61332,238.85536 C 559.04935,237.98156 558.92286,238.20546 560.24794,241.27223 C 561.3942,243.92517 563.90677,244.10119 563.90677,241.52857 z M 469.11081,236.6306 C 469.11081,235.88374 468.42277,235.27268 467.58183,235.27268 C 466.7409,235.27268 466.05287,234.35609 466.05287,233.23581 C 466.05287,232.11554 465.36483,231.19894 464.5239,231.19894 C 462.31172,231.19894 462.64128,236.27754 464.90614,237.08919 C 467.99683,238.19679 469.11081,238.07529 469.11081,236.6306 z M 554.66287,233.79846 C 553.72422,232.2408 552.58298,231.29785 552.12675,231.70304 C 550.86648,232.82232 552.88519,236.6306 554.73878,236.6306 C 555.86954,236.6306 555.84627,235.76226 554.66287,233.79846 z M 545.55916,227.27049 C 545.55916,226.60354 544.52711,225.70613 543.26571,225.27623 C 540.93513,224.48196 540.1344,225.92844 541.99158,227.57784 C 543.4528,228.8756 545.55916,228.69412 545.55916,227.27049 z M 536.82838,220.33564 C 536.38856,218.84194 535.39671,217.61981 534.62426,217.61981 C 533.84837,217.61981 533.95225,218.83526 534.85639,220.33564 C 535.7565,221.82934 536.74835,223.05147 537.06049,223.05147 C 537.37264,223.05147 537.2682,221.82934 536.82838,220.33564 z M 528.74053,214.30518 C 528.74053,213.97583 528.05249,213.3287 527.21155,212.86712 C 526.37062,212.40554 525.68259,212.675 525.68259,213.46593 C 525.68259,214.25686 526.37062,214.90399 527.21155,214.90399 C 528.05249,214.90399 528.74053,214.63452 528.74053,214.30518 z M 429.33124,205.10173 C 429.34837,203.58945 430.16492,203.04314 431.65111,203.54962 C 433.22338,204.08547 433.94456,203.46852 433.94456,201.58762 C 433.94456,198.01793 422.61441,190.50642 418.6269,191.43252 C 417.01614,191.80661 415.28506,193.26884 414.78007,194.68191 C 414.27509,196.09498 413.22025,197.25112 412.43598,197.25112 C 410.52312,197.25112 410.6083,202.30197 412.53902,203.36173 C 413.37995,203.82331 414.1478,202.79002 414.24534,201.06553 C 414.37547,198.76498 414.6089,198.56285 415.12195,200.30643 C 415.50652,201.61342 416.45875,202.68277 417.23802,202.68277 C 418.0173,202.68277 418.65489,203.91319 418.65489,205.41703 C 418.65489,206.92086 419.47446,209.3168 420.47616,210.74133 C 422.25069,213.26492 422.38739,213.25573 425.80114,210.38343 C 427.72816,208.76205 429.31671,206.38529 429.33124,205.10173 z M 421.83354,204.60649 C 421.9069,203.02459 422.26919,202.70283 422.75727,203.78608 C 423.19894,204.76633 423.14464,205.93753 422.63658,206.38875 C 422.12852,206.83997 421.76715,206.03794 421.83354,204.60649 z M 522.62465,209.50364 C 522.62465,208.774 520.73256,207.11367 518.42,205.81401 C 516.10743,204.51435 512.73207,202.20878 510.91917,200.69054 C 509.10629,199.17228 506.5963,197.20035 505.3414,196.30844 C 504.08651,195.41655 502.73982,193.8889 502.34876,192.91366 C 501.95771,191.93844 501.13647,191.55298 500.52381,192.0571 C 498.65626,193.59376 501.72692,197.01622 511.24331,204.00474 C 520.53411,210.82759 522.62465,211.83763 522.62465,209.50364 z M 228.94055,193.70704 C 231.6544,192.50464 234.24186,190.67146 234.69042,189.6333 C 235.13899,188.59513 236.46443,187.74573 237.63587,187.74573 C 238.80728,187.74573 239.76573,186.97566 239.76573,186.03446 C 239.76573,185.09326 241.65782,182.51849 243.97038,180.31273 C 252.74981,171.93878 258.71827,159.95296 260.72371,146.66886 C 261.14653,143.86817 262.03894,141.57669 262.70688,141.57669 C 263.7924,141.57669 265.13614,135.1891 266.16226,125.15096 C 266.36048,123.21191 267.46837,120.61338 268.62422,119.37646 C 269.90841,118.00222 270.38186,115.60021 269.84149,113.20066 C 269.07598,109.80132 269.35851,109.36701 271.94459,109.96763 C 273.82631,110.40466 274.94174,109.97461 274.9584,108.80568 C 274.99792,106.02904 281.43908,101.14149 286.51497,100.03655 C 288.9741,99.501216 291.4156,98.481803 291.94053,97.771167 C 292.9571,96.394909 300.4898,100.10747 303.36672,103.40269 C 304.55167,104.75994 305.35634,104.87641 306.10596,103.7992 C 307.42326,101.90622 302.80905,95.407652 300.14767,95.407652 C 299.07296,95.407652 297.79762,94.49106 297.31356,93.370782 C 296.82952,92.250504 295.37984,91.333913 294.09205,91.333913 C 292.80425,91.333913 291.75062,92.250504 291.75062,93.370782 C 291.75062,95.297443 289.03451,96.057399 284.26859,95.464263 C 283.09672,95.31841 281.72065,95.725376 281.21064,96.368619 C 280.70064,97.011863 278.34164,98.861815 275.96843,100.47962 C 269.91358,104.6072 261.17127,115.10283 261.17127,118.24443 C 261.17127,119.69149 260.13921,121.63616 258.87781,122.56591 C 257.61642,123.49566 256.58437,125.97494 256.58437,128.07544 C 256.58437,130.17593 255.90047,133.49203 255.06462,135.44456 C 254.12589,137.63734 254.05873,141.0258 254.88893,144.30739 C 255.84776,148.0974 255.73556,149.53775 254.49748,149.33268 C 253.48048,149.16422 252.56729,151.43449 252.29179,154.81634 C 252.03321,157.99046 251.16224,160.58747 250.3563,160.58747 C 249.55037,160.58747 249.03821,162.30389 249.2182,164.40171 C 249.44776,167.07741 247.97174,169.81074 244.27336,173.55866 C 235.49106,182.45856 228.95954,187.74573 226.74734,187.74573 C 224.24552,187.74573 219.67939,193.1353 220.80764,194.75659 C 221.93045,196.37008 223.34068,196.18809 228.94055,193.70704 z M 496.76948,190.68936 C 495.94488,189.32094 494.20057,187.41293 492.89328,186.44934 C 489.52112,183.96382 489.64374,187.3545 493.04676,190.69411 C 496.31791,193.9043 498.70498,193.90124 496.76948,190.68936 z M 195.42568,189.93004 C 195.42568,188.2583 183.56826,182.8869 182.32175,183.99397 C 181.11416,185.06645 184.50284,187.79991 189.35915,189.67068 C 195.9195,192.19789 195.42568,192.17678 195.42568,189.93004 z M 381.1952,184.94373 C 383.71799,181.19028 387.33349,176.5842 389.22964,174.708 C 392.00737,171.95949 392.35926,170.76913 391.04083,168.58122 C 390.14084,167.08769 388.24543,165.48218 386.82881,165.01341 C 385.41218,164.54463 383.35407,163.0515 382.25522,161.69533 C 381.15637,160.33915 379.24724,159.22956 378.01272,159.22956 C 376.77819,159.22956 375.06638,157.59033 374.2087,155.58682 L 372.64926,151.94408 L 369.03521,155.24734 C 367.04748,157.06414 364.03322,160.901 362.33688,163.77372 C 360.64052,166.64643 356.19872,171.86145 352.46621,175.36265 C 348.73369,178.86385 345.17384,183.14427 344.55545,184.87468 C 343.51076,187.79798 343.75656,187.9574 348.02463,187.12485 C 350.79663,186.58414 353.03304,186.82497 353.66435,187.73216 C 354.4101,188.80384 355.41425,188.72919 357.16134,187.47219 C 359.02439,186.13176 359.33519,186.11824 358.45728,187.41584 C 356.73478,189.96179 360.99422,190.85623 367.38164,189.28988 C 371.8459,188.19515 373.12609,188.31104 373.8001,189.87093 C 375.14363,192.98046 376.32053,192.19632 381.1952,184.94373 z M 380.55142,174.7324 C 380.62478,173.1505 380.98708,172.82874 381.47516,173.91199 C 381.91683,174.89224 381.86253,176.06344 381.35447,176.51466 C 380.84639,176.96588 380.48504,176.16386 380.55142,174.7324 z M 487.45841,183.13832 C 487.45841,182.09794 486.42635,180.89501 485.16496,180.4651 C 482.60099,179.5913 482.4745,179.81521 483.79958,182.88197 C 484.94584,185.53491 487.45841,185.71094 487.45841,183.13832 z M 177.631,178.9193 C 177.14694,177.79902 176.24085,176.88243 175.61745,176.88243 C 174.99405,176.88243 173.24974,174.28542 171.7412,171.1113 C 168.31774,163.90796 168.32662,163.93431 168.09539,160.29648 C 167.92002,157.53733 167.70231,157.46905 165.45221,159.46741 C 161.91431,162.6095 163.99631,169.24941 170.53486,175.67713 C 176.04481,181.09367 179.19172,182.53147 177.631,178.9193 z M 478.28461,176.86913 C 478.28461,176.11498 476.85061,174.43456 475.09792,173.13487 C 473.34523,171.8352 470.48782,169.70246 468.7481,168.39547 C 464.56981,165.25645 464.26424,165.3852 466.33106,169.41391 C 467.28896,171.28104 468.98847,172.80869 470.10775,172.80869 C 471.22704,172.80869 473.0022,174.03081 474.05253,175.52451 C 476.09326,178.42666 478.28461,179.1229 478.28461,176.86913 z M 238.11932,165.28376 C 239.98899,163.67801 239.68745,163.20964 235.97746,161.95691 C 232.37375,160.74007 231.1288,160.93563 228.45007,163.1393 C 225.74374,165.3657 224.93912,165.48637 223.31796,163.90902 C 222.26054,162.88016 220.19643,162.40519 218.73106,162.85352 C 216.56719,163.51555 216.63333,163.27738 219.08305,161.58561 C 221.79905,159.70993 221.88762,159.15118 219.97264,155.97332 C 217.39362,151.6935 217.89035,151.11132 223.32933,152.03925 C 227.26639,152.71094 229.3654,155.15582 226.00502,155.15582 C 225.16409,155.15582 224.47605,156.07241 224.47605,157.19269 C 224.47605,158.44694 225.91006,159.22956 228.20823,159.22956 C 233.15246,159.22956 234.65349,156.78902 231.12728,154.4835 C 228.46496,152.74281 228.45594,152.57974 230.97416,151.71274 C 234.87357,150.37021 238.23676,151.9449 238.23676,155.11321 C 238.23676,158.07692 240.46272,158.80787 242.14152,156.39542 C 242.70653,155.58348 242.4125,154.2475 241.48814,153.42655 C 240.26657,152.34164 240.46397,151.28964 242.21082,149.57534 C 244.42284,147.40455 244.2905,147.06616 240.5485,145.32488 C 237.31938,143.82226 236.89922,143.13236 238.50651,141.97199 C 239.61954,141.16846 241.90628,140.28627 243.58815,140.01155 C 247.87571,139.31123 248.73452,133.42921 244.54921,133.42921 C 242.85847,133.42921 241.02929,134.06994 240.48433,134.85307 C 239.21313,136.6798 235.17883,133.88551 235.17883,131.1783 C 235.17883,129.75185 235.88446,129.59532 237.93063,130.56789 C 241.1712,132.10815 250.4685,127.58592 250.4685,124.46943 C 250.4685,122.13187 248.63782,122.01912 246.17647,124.2051 C 244.73487,125.48542 243.84316,125.4111 242.10355,123.86562 C 239.05263,121.15519 241.55577,117.22509 244.80679,119.62136 C 247.50794,121.61232 251.99747,120.31332 251.99747,117.5408 C 251.99747,116.43051 250.653,115.20984 249.00975,114.8282 C 246.63015,114.27554 246.20129,113.33831 246.9027,110.22354 C 247.94784,105.58249 244.18351,103.50552 239.46756,106.1212 C 235.2734,108.44746 230.20806,106.76847 231.39555,103.44561 C 232.00109,101.7512 231.60215,100.8393 230.25537,100.8393 C 228.89847,100.8393 228.09965,102.71321 227.9399,106.27095 C 227.80576,109.25836 228.34758,111.70261 229.14396,111.70261 C 229.94034,111.70261 230.59193,112.97327 230.59193,114.52633 C 230.59193,116.95753 229.95414,117.22563 226.00376,116.45506 C 220.40688,115.3633 218.18841,118.64615 221.99718,122.38394 C 223.36055,123.72191 224.47605,126.43728 224.47605,128.41809 C 224.47605,131.14595 225.42175,132.23035 228.37471,132.88859 C 232.08912,133.71655 232.13654,133.84274 229.37814,135.55865 C 227.78575,136.54922 224.9993,137.01512 223.18602,136.59399 C 219.66941,135.77725 218.91205,134.12581 221.42225,132.74799 C 223.40373,131.66038 220.5166,126.63965 217.9097,126.63965 C 214.72001,126.63965 211.7941,131.99019 213.80628,134.14348 C 215.03928,135.46295 215.07827,136.7135 213.94055,138.45029 C 213.05877,139.79639 212.31637,140.36462 212.29081,139.71304 C 212.22682,138.08209 207.65741,141.57924 207.65741,143.25917 C 207.65741,144.00164 209.50591,144.29529 211.76517,143.91172 C 216.8653,143.04584 219.88916,143.99981 219.88916,146.47467 C 219.88916,148.7762 218.06048,148.91483 215.67284,146.79431 C 214.33222,145.60366 213.33087,145.64399 211.54463,146.96058 C 209.61469,148.38309 209.17794,148.36032 209.13989,146.83513 C 209.10934,145.61037 208.54131,145.81441 207.48298,147.4303 C 205.29838,150.7658 206.86671,153.79791 210.77657,153.79791 C 213.79711,153.79791 213.83505,153.93703 211.40373,156.09637 C 208.97238,158.2557 209.0191,158.54108 212.17562,160.81112 C 214.02357,162.1401 215.09842,163.85556 214.56417,164.62327 C 214.02993,165.39099 214.06199,166.69333 214.63542,167.51736 C 216.06049,169.5652 235.26049,167.73906 238.11932,165.28376 z M 225.52303,145.84562 C 222.88253,144.92104 222.89521,144.75513 225.78358,142.43362 C 228.71313,140.07902 228.87747,140.0895 230.47025,142.73267 C 231.3781,144.23925 232.1209,145.81759 232.1209,146.24012 C 232.1209,147.24884 228.99703,147.06206 225.52303,145.84562 z M 230.97416,125.74033 C 227.90622,124.64088 228.77478,121.208 232.1209,121.208 C 234.15951,121.208 235.17883,122.11328 235.17883,123.92382 C 235.17883,126.6683 234.44648,126.98469 230.97416,125.74033 z M 238.54255,115.50476 C 236.66839,113.84027 236.01144,110.34469 237.57279,110.34469 C 240.42808,110.34469 244.11711,113.38349 243.36762,115.1181 C 242.31264,117.55977 240.97696,117.66682 238.54255,115.50476 z M 459.33179,159.59732 C 457.77757,158.21699 456.49518,160.29514 457.77038,162.12763 C 458.73368,163.51191 459.09382,163.51299 459.61172,162.13312 C 459.96582,161.18965 459.83985,160.04854 459.33179,159.59732 z M 209.18638,161.47689 C 209.18638,161.21921 207.81031,159.90239 206.12845,158.5506 C 203.1604,156.16506 203.07051,156.17883 203.07051,159.0191 C 203.07051,161.04011 204.01652,161.94538 206.12845,161.94538 C 207.81031,161.94538 209.18638,161.73456 209.18638,161.47689 z M 453.82113,157.15008 C 453.82113,156.00635 452.61707,154.68959 451.14544,154.22394 C 449.6738,153.7583 446.98335,151.79152 445.16663,149.85335 C 443.34991,147.91517 441.3332,146.79651 440.68506,147.36743 C 439.54978,148.36745 450.33429,158.95684 452.6744,159.13987 C 453.3051,159.1892 453.82113,158.29379 453.82113,157.15008 z M 386.51257,150.7426 C 386.47019,146.93326 380.51753,139.58231 380.46472,143.27408 C 380.44601,144.58107 379.76427,145.65043 378.94972,145.65043 C 378.13519,145.65043 377.84345,144.7832 378.30142,143.72327 C 378.75939,142.66332 377.97412,140.2238 376.55637,138.3021 C 375.09836,136.32585 374.41945,133.78781 374.99345,132.45932 C 375.7924,130.61023 376.27542,130.4944 377.26389,131.91486 C 379.33043,134.88449 380.61777,131.32715 378.91554,127.35084 C 377.3977,123.80524 374.31484,123.73998 374.31484,127.25347 C 374.31484,128.24977 373.28279,129.41664 372.02139,129.84654 C 369.45366,130.72163 368.88866,136.88199 371.25691,138.18191 C 372.09784,138.64349 372.78588,140.25085 372.78588,141.75383 C 372.78588,144.68665 376.12118,148.36626 378.77958,148.36626 C 379.67344,148.36626 381.26416,149.58838 382.3145,151.08208 C 384.83332,154.66413 386.55467,154.52493 386.51257,150.7426 z M 434.64374,143.02844 C 435.12756,142.33318 434.82414,141.38053 433.9695,140.91142 C 433.11485,140.44232 432.41559,141.01115 432.41559,142.1755 C 432.41559,144.56072 433.33306,144.91192 434.64374,143.02844 z M 362.0831,140.89773 C 362.0831,139.77746 361.20396,138.86087 360.12945,138.86087 C 359.05493,138.86087 356.94157,137.58065 355.43306,136.01596 C 353.92457,134.45126 352.26664,133.54732 351.74881,134.00724 C 351.23097,134.46713 353.17234,136.6391 356.06294,138.83383 C 362.27387,143.54951 362.0831,143.48411 362.0831,140.89773 z M 427.82869,136.29032 C 427.82869,135.62337 426.79663,134.72597 425.53524,134.29606 C 424.13821,133.81995 423.24179,134.29392 423.24179,135.50869 C 423.24179,136.60553 424.27384,137.50295 425.53524,137.50295 C 426.79663,137.50295 427.82869,136.95726 427.82869,136.29032 z M 185.02831,131.55038 C 189.83542,126.1997 189.13744,124.58896 183.19443,127.31837 C 179.21988,129.14376 176.41036,133.74148 178.26368,135.38746 C 179.82412,136.7733 180.86788,136.18125 185.02831,131.55038 z M 347.51977,130.76821 C 348.38397,129.52633 335.84513,117.13426 333.72434,117.13426 C 333.16626,117.13426 330.81397,115.75937 328.497,114.07895 C 322.21915,109.52586 318.1853,107.20319 317.05583,107.49116 C 316.50175,107.63244 314.76885,106.34632 313.20493,104.63314 C 311.64101,102.91995 309.8732,101.9502 309.27646,102.47813 C 307.18856,104.32527 309.88526,107.25597 316.4623,110.28747 C 323.40158,113.48594 325.53718,114.96839 333.66136,122.22643 C 336.37829,124.6537 339.24692,126.63965 340.03609,126.63965 C 340.82526,126.63965 342.33033,127.86177 343.38067,129.35547 C 345.5274,132.40839 346.21505,132.64309 347.51977,130.76821 z M 418.65489,129.35547 C 417.75479,127.86177 415.66648,126.63965 414.0142,126.63965 C 412.36191,126.63965 411.01006,125.79788 411.01006,124.76904 C 411.01006,123.74022 409.978,122.13775 408.7166,121.208 C 406.81713,119.80793 406.42078,119.95433 406.40937,122.06017 C 406.39474,124.75802 415.01504,131.97322 418.32643,132.03477 C 419.81872,132.06251 419.89774,131.41797 418.65489,129.35547 z M 384.53351,126.97913 C 385.0554,125.67214 386.38828,123.65927 387.49546,122.50611 C 388.78929,121.1585 389.11388,119.09904 388.40398,116.74156 L 387.29947,113.0737 L 383.25905,117.5709 C 380.36169,120.7958 379.44052,123.0989 380.00292,125.71177 C 380.89703,129.86574 383.1313,130.49073 384.53351,126.97913 z M 351.38034,121.28814 C 351.38034,120.58537 350.6923,119.63271 349.85137,119.17113 C 349.01043,118.70955 348.32239,117.20723 348.32239,115.83266 C 348.32239,113.2229 356.60695,101.48685 362.97189,95.079933 C 365.00585,93.032553 366.67,90.85127 366.67,90.232632 C 366.67,89.086377 373.72105,83.186435 375.09096,83.186435 C 375.50502,83.186435 375.84381,84.103026 375.84381,85.223305 C 375.84381,87.034665 380.11407,87.979488 385.82278,87.43119 C 386.68609,87.348275 388.67517,89.395832 390.24295,91.981325 L 393.09343,96.682216 L 396.59195,93.691711 C 400.23092,90.581167 399.26991,87.260174 394.73084,87.260174 C 393.5516,87.260174 391.93277,85.732522 391.13348,83.865392 C 390.33418,81.998261 388.74737,80.470609 387.60727,80.470609 C 386.46716,80.470609 384.61378,78.942957 383.48864,77.075827 C 382.3635,75.208697 380.58996,73.681045 379.54743,73.681045 C 378.5049,73.681045 374.01183,77.805705 369.56284,82.846957 C 365.11386,87.888209 359.54996,93.846052 357.19862,96.086608 C 354.84726,98.327164 352.92026,100.92417 352.91638,101.85774 C 352.91248,102.7913 352.22127,103.55513 351.38034,103.55513 C 350.5394,103.55513 349.85137,105.01152 349.85137,106.79154 C 349.85137,108.88593 348.77232,110.27855 346.79343,110.73815 C 343.09504,111.5971 342.87892,114.71085 346.2048,119.2189 C 348.68912,122.58628 351.38034,123.66226 351.38034,121.28814 z M 402.20341,118.15064 C 401.28158,116.47135 400.1151,112.86491 399.61125,110.13632 C 399.10739,107.40773 397.6818,104.82991 396.44327,104.40782 C 393.7559,103.49195 393.45434,106.58425 395.84425,110.55027 C 396.75332,112.05884 397.07005,113.6724 396.5481,114.13596 C 396.02614,114.59951 395.20212,113.63059 394.71694,111.98278 C 393.78991,108.83442 389.58947,107.76308 389.62538,110.68417 C 389.68133,115.23235 391.70768,118.49217 394.47895,118.49217 C 396.1228,118.49217 398.53259,119.43786 399.83404,120.5937 C 402.96174,123.37149 404.3076,121.98379 402.20341,118.15064 z M 225.40413,112.2705 C 224.89368,111.08914 224.47605,109.86702 224.47605,109.55467 C 224.47605,109.24234 223.444,108.98678 222.18261,108.98678 C 219.41794,108.98678 219.22679,110.57118 221.72391,112.78894 C 224.33666,115.10938 226.49911,114.80476 225.40413,112.2705 z M 380.43071,110.18442 C 380.43071,109.43757 379.74267,109.20416 378.90174,109.66574 C 378.06081,110.12732 377.37277,111.11603 377.37277,111.86288 C 377.37277,112.60973 378.06081,112.84314 378.90174,112.38156 C 379.74267,111.91998 380.43071,110.93127 380.43071,110.18442 z M 257.34885,107.62887 C 257.34885,106.50859 255.80077,105.39673 253.90867,105.15808 C 251.26098,104.82411 250.4685,105.39328 250.4685,107.62887 C 250.4685,109.86445 251.26098,110.43362 253.90867,110.09966 C 255.80077,109.86101 257.34885,108.74915 257.34885,107.62887 z M 203.25939,102.83195 C 205.05246,99.430862 205.22438,98.123477 203.8786,98.123477 C 200.91422,98.123477 196.49579,103.25035 197.4857,105.54142 C 198.87662,108.76057 200.5471,107.97664 203.25939,102.83195 z M 404.69032,104.15542 C 404.99867,102.74223 406.24018,100.94355 407.44922,100.15838 C 408.71465,99.336596 409.22773,97.759244 408.65829,96.441308 C 407.74998,94.339123 407.36797,94.327052 403.98818,96.293839 C 401.27074,97.875169 400.30728,99.668565 400.30728,103.1455 C 400.30728,108.17742 403.64497,108.94648 404.69032,104.15542 z M 254.24257,95.887294 C 251.03699,93.805545 246.46592,93.469394 245.24383,95.225542 C 244.79382,95.872234 242.70058,96.108484 240.59222,95.750525 C 234.46567,94.71039 231.67284,96.200564 233.63772,99.461239 C 235.39796,102.38233 243.38385,103.33003 245.12725,100.82475 C 245.73347,99.953591 247.26195,100.18607 249.31172,101.46116 C 252.25026,103.28913 252.74517,103.21133 254.80664,100.59746 C 256.84826,98.008734 256.79251,97.543255 254.24257,95.887294 z M 264.2292,99.524002 C 264.2292,97.705716 263.49575,97.100765 261.93576,97.632415 C 260.67435,98.062317 259.6423,99.265251 259.6423,100.30563 C 259.6423,101.34599 260.67435,102.19722 261.93576,102.19722 C 263.1977,102.19722 264.2292,100.99492 264.2292,99.524002 z M 236.7078,92.012869 C 236.7078,90.892591 236.01976,89.976 235.17883,89.976 C 234.3379,89.976 233.64986,90.892591 233.64986,92.012869 C 233.64986,93.133147 234.3379,94.049739 235.17883,94.049739 C 236.01976,94.049739 236.7078,93.133147 236.7078,92.012869 z M 354.45191,77.754784 C 355.33813,77.754784 356.40777,76.957295 356.82893,75.982599 C 357.25621,74.993658 359.54002,74.330032 361.99629,74.481059 C 365.15785,74.675444 366.60717,74.041095 367.1406,72.229422 C 367.95987,69.447059 364.60758,66.184768 362.25572,67.475681 C 361.43606,67.925585 360.36097,67.712461 359.86662,67.002082 C 359.37225,66.29169 357.19821,67.166987 355.03539,68.947184 C 352.87256,70.727367 351.52061,72.784062 352.03107,73.517593 C 352.54153,74.251137 352.25991,75.235122 351.40527,75.704226 C 350.55062,76.173331 349.85137,75.55358 349.85137,74.326977 C 349.85137,73.100388 348.99132,72.353821 347.94016,72.667933 C 346.8495,72.993846 346.24683,74.837498 346.53644,76.962143 C 347.00917,80.430157 346.81037,80.574218 343.63468,79.064776 C 340.38206,77.518778 340.26916,77.638641 341.17775,81.673286 C 341.89931,84.877526 341.58361,85.902261 339.87486,85.902261 C 338.56485,85.902261 337.61963,87.164984 337.61963,88.914981 C 337.61963,91.48107 338.74791,90.877111 345.23011,84.841242 C 349.41588,80.943693 353.56568,77.754784 354.45191,77.754784 z M 288.69267,87.394309 C 288.69267,86.290339 281.8868,81.95823 274.6428,78.451216 C 273.11998,77.713978 271.87404,76.486086 271.87404,75.722558 C 271.87404,74.959031 270.49797,73.571095 268.8161,72.638263 C 264.34788,70.160004 265.08137,72.893713 269.96283,76.912049 C 275.30898,81.312923 286.04445,88.403333 287.54595,88.525097 C 288.17665,88.576236 288.69267,88.067385 288.69267,87.394309 z M 218.36019,76.843271 C 218.36019,75.595091 219.50269,73.45263 220.8991,72.082252 C 224.40781,68.638924 222.3394,67.400928 217.64343,70.133619 C 213.97304,72.269494 212.57258,76.235754 214.7926,78.207417 C 216.61857,79.829104 218.36019,79.163157 218.36019,76.843271 z M 329.9748,71.483901 C 329.9748,70.363623 329.28676,69.824681 328.44582,70.286262 C 327.60489,70.747844 326.91685,72.042085 326.91685,73.162363 C 326.91685,74.282641 327.60489,74.821583 328.44582,74.360001 C 329.28676,73.898419 329.9748,72.604179 329.9748,71.483901 z M 264.2058,71.304697 C 264.15193,68.961686 261.38375,66.614575 259.73901,67.517356 C 258.39471,68.255232 258.39866,68.955413 259.75528,70.407157 C 261.67341,72.459792 264.24426,72.978271 264.2058,71.304697 z M 334.5617,68.08313 C 334.5617,65.783369 334.98902,65.515996 336.67659,66.759871 C 338.31351,67.966418 339.0046,67.825453 339.73452,66.136128 C 342.02943,60.824746 339.4398,59.843287 334.5617,64.175654 C 331.33472,67.041611 330.45114,70.965219 333.03273,70.965219 C 333.87366,70.965219 334.5617,69.668276 334.5617,68.08313 z M 256.58437,65.835716 C 256.58437,64.084484 251.92661,58.744003 250.39929,58.744003 C 248.45926,58.744003 243.27885,55.01057 236.7388,48.899134 C 233.74167,46.098439 230.4445,43.80696 229.41175,43.80696 C 225.83192,43.80696 227.64446,47.218269 233.01929,50.596525 C 235.9899,52.463655 241.64724,56.848383 245.59117,60.340351 C 252.22332,66.212497 256.58437,68.392531 256.58437,65.835716 z M 299.40871,63.15722 C 299.41599,61.850228 301.82412,58.530186 304.76009,55.779339 C 307.69606,53.028506 310.15254,49.667672 310.21893,48.310818 C 310.28869,46.884996 310.66511,46.560197 311.11082,47.541221 C 312.25518,50.059932 314.10971,49.626201 318.36854,45.84383 C 320.47087,43.9767 323.30474,42.449048 324.66602,42.449048 C 326.20022,42.449048 326.94519,41.545696 326.62579,40.0727 C 326.25255,38.351437 324.64105,37.696352 320.78004,37.696352 C 317.33113,37.696352 315.58452,38.295491 315.83184,39.393743 C 316.04207,40.327309 315.12031,41.091135 313.78347,41.091135 C 311.1153,41.091135 305.64296,46.243464 305.56219,48.831659 C 305.5342,49.728113 304.63476,50.950234 303.56339,51.547485 C 298.43448,54.40672 293.90219,65.533567 297.86648,65.533567 C 298.70741,65.533567 299.40141,64.464211 299.40871,63.15722 z M 319.27202,62.75821 C 319.27202,60.868294 320.12565,60.110158 321.94771,60.381863 C 324.03697,60.693422 324.52694,59.962417 324.18329,57.046611 C 323.94122,54.992768 324.45725,53.312351 325.33002,53.312351 C 326.20278,53.312351 326.91685,54.228942 326.91685,55.34922 C 326.91685,57.319403 330.12177,58.160833 331.83398,56.640175 C 333.05434,55.556343 329.48675,49.252137 327.68134,49.302162 C 326.84041,49.325464 323.91625,52.04478 321.18323,55.345092 C 316.24478,61.308598 314.8182,65.533567 317.74305,65.533567 C 318.58399,65.533567 319.27202,64.284654 319.27202,62.75821 z M 353.12522,60.885812 C 356.23905,57.470593 355.46713,56.028177 350.52561,56.028177 C 347.70423,56.028177 346.79343,56.75428 346.79343,59.003541 C 346.79343,61.831258 346.6912,61.854737 344.73336,59.476787 C 342.20463,56.405432 340.57505,58.339154 342.29284,62.37278 C 343.81835,65.95486 349.17375,65.219713 353.12522,60.885812 z M 342.20653,48.569745 C 342.20653,45.770543 338.65188,44.175159 334.5617,45.138638 C 331.65233,45.82395 330.83963,46.812443 331.15938,49.276851 C 331.39043,51.057659 332.36613,52.946461 333.32761,53.474214 C 335.47269,54.651633 342.20653,50.932065 342.20653,48.569745 z M 287.8469,45.504352 C 288.89859,42.693934 298.55013,36.43481 303.98235,35.040342 C 315.86663,31.989615 319.12475,28.632012 313.92201,24.797198 C 310.57096,22.327209 303.94182,25.154546 297.77289,31.684817 C 295.00226,34.617733 291.82578,37.017396 290.71403,37.017396 C 289.60229,37.017396 288.69267,37.933987 288.69267,39.054265 C 288.69267,40.174543 287.66062,41.091135 286.39923,41.091135 C 284.9722,41.091135 284.10577,42.373602 284.10577,44.485917 C 284.10577,48.378822 286.52482,49.037356 287.8469,45.504352 z M 271.87404,37.072351 C 271.87404,34.611867 280.18177,28.931758 289.6641,24.909049 C 297.61357,21.536618 299.02242,20.427842 298.33301,18.086487 C 297.86284,16.489663 296.25189,15.290789 294.57644,15.290789 C 290.65408,15.290789 284.10577,19.210011 284.10577,21.557571 C 284.10577,22.591947 283.34272,23.438267 282.41008,23.438267 C 280.06127,23.438267 273.46164,29.176141 273.42943,31.246266 C 273.41488,32.179831 272.37096,32.943657 271.10955,32.943657 C 269.83542,32.943657 268.8161,34.150692 268.8161,35.659483 C 268.8161,37.153187 269.50414,38.375309 270.34508,38.375309 C 271.18601,38.375309 271.87404,37.788976 271.87404,37.072351 z M 261.98202,22.652035 C 266.11694,19.232199 269.74752,17.093486 270.04998,17.89934 C 271.13159,20.781157 273.40522,19.296008 273.52372,15.630267 C 273.59011,13.576424 273.99146,12.659833 274.41561,13.593398 C 275.47384,15.922572 278.81435,15.722497 281.70311,13.156924 C 285.12153,10.120957 284.67529,7.4109968 280.6656,6.8561944 C 276.61309,6.2954714 270.97429,8.9935221 266.05309,13.847993 C 264.11297,15.761808 260.18278,19.540391 257.31931,22.244824 C 254.45587,24.949271 252.54573,27.546279 253.07456,28.015954 C 254.35037,29.149051 253.52687,29.644947 261.98202,22.652035 z M 241.87809,24.046693 C 242.40022,22.838259 242.1439,22.293193 241.27719,22.768924 C 240.44589,23.22521 239.76573,24.173549 239.76573,24.876324 C 239.76573,26.829586 240.86165,26.399169 241.87809,24.046693 z M 247.41056,15.932226 C 247.41056,14.870366 248.34226,14.335633 249.50308,14.731247 C 250.77923,15.166173 251.94857,14.24559 252.50037,12.371589 C 252.99799,10.681544 253.86137,9.7039686 254.41898,10.199186 C 254.97658,10.694417 257.64896,9.5983773 260.35757,7.7635382 C 263.0662,5.9287127 266.34783,4.4274856 267.65011,4.4274856 C 270.23139,4.4274856 272.40243,0.85373039 271.02428,-1.1267041 C 268.47943,-4.7836994 251.99747,0.59846992 251.99747,5.0864808 C 251.99747,6.2177444 251.44184,7.1433115 250.76275,7.1433115 C 249.59139,7.1433115 244.35263,16.459898 244.35263,18.543045 C 244.35263,19.083019 245.04066,19.147153 245.88159,18.685571 C 246.72253,18.22399 247.41056,16.984989 247.41056,15.932226 z M 241.29469,1.7918038 C 241.29469,1.0890295 240.60666,0.13637215 239.76573,-0.32520961 C 238.9248,-0.78679137 238.23676,-0.21179673 238.23676,0.95255929 C 238.23676,2.1169153 238.9248,3.0695727 239.76573,3.0695727 C 240.60666,3.0695727 241.29469,2.4945781 241.29469,1.7918038 z M 235.71544,-3.0787583 C 235.22243,-4.2197854 233.44091,-5.8083941 231.7565,-6.6090196 C 230.07209,-7.4096314 229.01488,-7.5454227 229.40718,-6.910775 C 229.79946,-6.2761272 230.54893,-4.6875049 231.07266,-3.3805137 C 231.59641,-2.0735225 233.05697,-1.0041661 234.31837,-1.0041661 C 235.74736,-1.0041661 236.27395,-1.7861338 235.71544,-3.0787583 z M 224.55724,-11.617115 C 223.50868,-11.927534 220.30931,-14.007341 217.44755,-16.238908 C 213.73123,-19.136816 212.24432,-19.700173 212.24432,-18.210258 C 212.24432,-17.062943 213.51156,-15.767019 215.06042,-15.330423 C 216.60927,-14.893827 219.51979,-12.983135 221.52822,-11.084433 C 223.95334,-8.7917967 225.39553,-8.2066856 225.82182,-9.3424847 C 226.17486,-10.283115 225.60579,-11.30671 224.55724,-11.617115 z M 218.36019,-29.520342 C 218.36019,-30.267194 217.63154,-30.878254 216.74098,-30.878254 C 215.85042,-30.878254 215.54701,-30.267194 216.06673,-29.520342 C 216.58646,-28.773489 217.3151,-28.162429 217.68594,-28.162429 C 218.05678,-28.162429 218.36019,-28.773489 218.36019,-29.520342 z M 213.0088,-33.59408 C 212.48908,-34.340932 211.37582,-34.951993 210.53489,-34.951993 C 209.69396,-34.951993 209.43114,-34.340932 209.95087,-33.59408 C 210.47059,-32.847228 211.58385,-32.236167 212.42478,-32.236167 C 213.26571,-32.236167 213.52853,-32.847228 213.0088,-33.59408 z M 204.59948,-38.815269 C 204.59948,-39.446373 203.22341,-41.068726 201.54155,-42.420514 C 198.17634,-45.125273 197.62989,-44.33767 200.06637,-40.294376 C 201.66187,-37.64669 204.59948,-36.68818 204.59948,-38.815269 z M 183.19394,-43.730656 C 183.19394,-44.824658 181.81787,-46.373806 180.13601,-47.17321 C 177.78777,-48.289346 177.07808,-48.205889 177.07808,-46.813607 C 177.07808,-44.817706 180.04543,-41.741558 181.97077,-41.741558 C 182.64351,-41.741558 183.19394,-42.636653 183.19394,-43.730656 z M 196.95465,-45.649034 C 196.95465,-47.385465 192.4589,-50.422641 191.34843,-49.436402 C 190.23796,-48.450164 193.65772,-44.457384 195.61289,-44.457384 C 196.35086,-44.457384 196.95465,-44.993624 196.95465,-45.649034 z M 174.02014,-51.166804 C 174.02014,-52.768951 171.03812,-54.482828 169.94289,-53.510141 C 168.84767,-52.537441 170.77745,-49.889035 172.58141,-49.889035 C 173.37272,-49.889035 174.02014,-50.46403 174.02014,-51.166804 z M 185.64667,-56.310837 C 184.09244,-57.691169 182.81005,-55.613019 184.08526,-53.780529 C 185.04855,-52.396245 185.4087,-52.395172 185.92659,-53.775043 C 186.28069,-54.718507 186.15473,-55.859616 185.64667,-56.310837 z M 166.3753,-55.902648 C 166.3753,-57.098019 161.50831,-60.752339 159.91628,-60.752339 C 159.00674,-60.752339 159.8492,-59.530217 161.7884,-58.036513 C 165.3286,-55.309607 166.3753,-54.822686 166.3753,-55.902648 z M 177.07808,-62.110252 C 177.07808,-62.857104 176.39004,-63.468165 175.54911,-63.468165 C 174.70818,-63.468165 174.02014,-62.857104 174.02014,-62.110252 C 174.02014,-61.3634 174.70818,-60.752339 175.54911,-60.752339 C 176.39004,-60.752339 177.07808,-61.3634 177.07808,-62.110252 z M 157.2015,-62.709064 C 157.2015,-63.038412 156.51347,-63.685539 155.67254,-64.147121 C 154.83161,-64.608703 154.14357,-64.339239 154.14357,-63.548309 C 154.14357,-62.757379 154.83161,-62.110252 155.67254,-62.110252 C 156.51347,-62.110252 157.2015,-62.379716 157.2015,-62.709064 z M 169.43323,-67.541903 C 169.43323,-68.288756 168.7452,-68.899816 167.90427,-68.899816 C 167.06334,-68.899816 166.3753,-68.288756 166.3753,-67.541903 C 166.3753,-66.795051 167.06334,-66.183991 167.90427,-66.183991 C 168.7452,-66.183991 169.43323,-66.795051 169.43323,-67.541903 z M 125.70456,-75.499178 C 123.26679,-77.270222 122.79481,-78.555433 123.7447,-80.835952 C 125.16531,-84.246582 123.95035,-88.282815 121.85009,-87.130015 C 121.08359,-86.709265 120.85226,-85.796191 121.33607,-85.10094 C 123.07739,-82.598646 114.8009,-83.899132 112.09697,-86.552684 C 108.78457,-89.803365 106.74558,-90.037999 106.74558,-87.168484 C 106.74558,-86.013471 108.80534,-84.027523 111.32283,-82.755267 C 113.8403,-81.483012 115.90441,-79.9274 115.90973,-79.298347 C 115.92883,-77.036376 121.34233,-72.089459 123.19752,-72.63868 C 124.24013,-72.947334 125.09319,-72.415684 125.09319,-71.457215 C 125.09319,-70.047905 125.45877,-70.044686 127.0044,-71.440444 C 128.53715,-72.824565 128.27975,-73.628286 125.70456,-75.499178 z M 161.53357,-72.716991 C 161.25326,-73.322729 158.09977,-76.143603 154.5258,-78.985606 C 149.92219,-82.64639 148.02769,-83.512969 148.02769,-81.957996 C 148.02769,-80.750811 148.71043,-79.76312 149.54488,-79.76312 C 150.37933,-79.76312 152.90118,-77.929937 155.14898,-75.689381 C 158.93006,-71.920534 162.71828,-70.156904 161.53357,-72.716991 z M 143.4408,-87.151497 C 143.4408,-87.480845 142.75276,-88.127972 141.91183,-88.589554 C 141.0709,-89.051136 140.38286,-88.781671 140.38286,-87.990741 C 140.38286,-87.199811 141.0709,-86.552684 141.91183,-86.552684 C 142.75276,-86.552684 143.4408,-86.822149 143.4408,-87.151497 z M 103.36104,-90.891474 C 100.90611,-94.175179 97.571781,-95.707733 97.571781,-93.5524 C 97.571781,-91.748983 101.93388,-87.910597 103.98336,-87.910597 C 104.91671,-87.910597 104.65602,-89.159348 103.36104,-90.891474 z M 128.15112,-92.543932 C 128.15112,-93.722804 130.50699,-94.814933 134.267,-95.379118 C 140.63223,-96.334206 143.04947,-100.13181 137.29215,-100.13181 C 135.47913,-100.13181 133.48145,-101.5352 132.45983,-103.5266 C 130.50274,-107.34139 129.57058,-107.63886 126.92796,-105.29188 C 125.50092,-104.0245 125.09319,-104.22705 125.09319,-106.2034 C 125.09319,-109.24247 120.85699,-113.71094 117.97586,-113.71094 C 116.84481,-113.71094 115.91939,-114.52527 115.91939,-115.52054 C 115.91939,-117.71873 104.7192,-125.93216 101.72167,-125.93216 C 98.929289,-125.93216 91.455913,-120.21654 91.455913,-118.08092 C 91.455913,-116.58388 93.428755,-115.85446 96.391572,-116.25605 C 97.003847,-116.33903 98.498425,-114.73098 99.712839,-112.6826 C 100.92727,-110.6342 105.39615,-106.539 109.64371,-103.58216 C 113.89126,-100.62531 117.70737,-97.417237 118.12395,-96.453119 C 118.54052,-95.488987 119.93501,-94.700162 121.22279,-94.700162 C 122.51058,-94.700162 123.56422,-93.783571 123.56422,-92.663293 C 123.56422,-91.543014 124.59628,-90.626423 125.85768,-90.626423 C 127.11907,-90.626423 128.15112,-91.489309 128.15112,-92.543932 z M 128.27184,-98.208099 C 128.3452,-99.79 128.7075,-100.11176 129.1956,-99.028509 C 129.63727,-98.048259 129.58294,-96.877059 129.07488,-96.425838 C 128.56682,-95.974618 128.20545,-96.776642 128.27184,-98.208099 z M 119.37561,-105.16945 C 118.33325,-107.14447 117.76148,-109.01001 118.105,-109.31511 C 119.02443,-110.13167 122.31599,-104.26696 121.75218,-102.81675 C 121.48741,-102.13571 120.41795,-103.19442 119.37561,-105.16945 z M 104.45214,-110.99512 C 104.97186,-111.74197 105.70051,-112.35303 106.07134,-112.35303 C 106.44217,-112.35303 106.74558,-111.74197 106.74558,-110.99512 C 106.74558,-110.24826 106.01694,-109.6372 105.12639,-109.6372 C 104.23583,-109.6372 103.93241,-110.24826 104.45214,-110.99512 z M 94.513847,-98.047173 C 94.513847,-99.141162 92.965768,-100.76863 91.073672,-101.66376 C 89.181574,-102.55888 86.795331,-104.26079 85.770907,-105.44579 C 84.11447,-107.3619 83.902953,-107.30542 83.859699,-104.93551 C 83.832957,-103.46986 85.703174,-100.89484 88.015737,-99.213226 C 92.968536,-95.611729 94.513847,-95.33443 94.513847,-98.047173 z M 141.91183,-114.3899 C 141.91183,-115.51018 143.31984,-117.80166 145.04074,-119.48207 C 146.76164,-121.16249 149.16976,-123.50523 150.39212,-124.68816 C 153.17995,-127.38605 153.2594,-130.0059 150.55337,-130.0059 C 149.41969,-130.0059 147.2493,-127.55814 145.73029,-124.56644 C 144.21128,-121.57473 142.04268,-118.4446 140.91117,-117.6106 C 138.51021,-115.8409 138.15973,-112.35303 140.38286,-112.35303 C 141.22379,-112.35303 141.91183,-113.26962 141.91183,-114.3899 z M 89.828633,-127.20738 C 91.65558,-128.23408 91.685656,-128.80281 90.008012,-130.59811 C 88.470498,-132.24343 87.496255,-132.38962 85.901664,-131.21429 C 81.239217,-127.7777 84.650266,-124.29722 89.828633,-127.20738 z M 61.321927,-137.66898 L 56.4159,-141.1308 L 59.590785,-144.94465 C 61.336972,-147.04226 62.300023,-149.42764 61.73088,-150.24549 C 59.643366,-153.2453 54.801249,-151.64142 51.018279,-146.69709 C 47.613789,-142.24746 47.409427,-141.33915 49.261587,-138.88909 C 50.626726,-137.08329 53.017174,-136.12108 56.117078,-136.12964 C 58.734792,-136.13685 60.87657,-135.67855 60.87657,-135.1112 C 60.87657,-134.54384 62.080632,-134.10833 63.552262,-134.1434 C 65.551494,-134.19104 64.987626,-135.08237 61.321927,-137.66898 z M 78.352618,-137.99951 C 78.813464,-138.66174 78.166024,-139.95868 76.913891,-140.88161 C 75.661743,-141.80453 74.637274,-142.22927 74.637274,-141.82548 C 74.637274,-141.4217 74.219637,-140.12475 73.709206,-138.9434 C 72.715286,-136.64306 76.827061,-135.80725 78.352618,-137.99951 z M 69.285889,-144.94294 C 69.285889,-146.04275 68.081827,-147.14856 66.610196,-147.40026 C 64.732854,-147.72135 63.934504,-146.98816 63.934504,-144.94294 C 63.934504,-142.89772 64.732854,-142.16453 66.610196,-142.48562 C 68.081827,-142.73732 69.285889,-143.84311 69.285889,-144.94294 z"
       id="path4433"
       style="fill:#000000" />
  </g>
</svg>
