<?xml version="1.0" encoding="utf-8"?>

<!DOCTYPE svg PUBLIC "-//W3C//DTD SVG 1.1//EN" "http://www.w3.org/Graphics/SVG/1.1/DTD/svg11.dtd">
<svg version="1.1" id="Layer_1" xmlns="http://www.w3.org/2000/svg" xmlns:xlink="http://www.w3.org/1999/xlink" x="0px" y="0px"
	 viewBox="0 0 2591.198 1362.1" enable-background="new 0 0 2591.198 1362.1" xml:space="preserve">
<g>
	<path d="M126.6,836.841c235.992-250.115,483.558-360.197,502.302-371.955c103.936-65.201,109.36-37.683,127.395-74.058
		c97.996-197.646,334.874-337.332,571.23-315.855c105.052,9.546,153.569,31.331,190.888,44.314c8.006,2.785-0.752-4.76,9.597-7.182
		c223.408-52.277,175.723-47.359,449.354-77.97c696.305-77.894,769.371,310.2,299.335,658.433
		c-7.453,5.522-15.584,10.176-22.749,16.03c-11.371,9.291-21.986,19.488-34.36,27.558
		c-431.78,281.63-371.713,195.474-414.162,261.32c-7.186,11.147,5.387,6.446,2.493,11.382c-3.627,6.187-6.561-6.556-14.722,6.252
		c-157.428,247.048-519.9,315.429-704.214,228.294c-1.519-0.718-3.104-0.698-4.701-0.173
		c-219.999,72.289-605.424,108.475-754.047,90.07c-56.923-7.049-51.806-12.25-80.086-15.281
		C72.072,1298.93-106.061,1083.421,126.6,836.841z M1716.202,1025.792c-3.276-2.282-6.502-0.561-7.75,1.844
		c-6.167,11.884-107.359,96.508-224.955,140.251c-70.315,26.156-198.429,38.163-218.465,28.711
		c-9.53-4.496-22.256,1.937-22.313,3.678c-0.428,13.107,218.111,18.935,335.198-66.954c13.593-9.971,130.278-76.604,138.141-107.672
		c7.428-4.345,16.978-5.603,21.66-15.064C1730.097,1012.241,1714.187,1021.33,1716.202,1025.792z M1652.61,419.061
		c-11.792,0.425-15.728,9.779-18.023,10.449c-9.261,2.701-12.432,14.897-23.585,19.931c-15.255,6.886-2.473,3.159-51.921,46.665
		c-21.531,18.944-24.821,12.037-47.146,33.314c-17.751,16.918-8.924,9.904-58.251,37.277c-12.984,7.205-24.587,16.689-38.286,22.818
		c-5.78,2.586-11.624,5.318-16.823,9.232c-18.244,13.735-28.978,13.702-40.407,18.889c-2.07,0.939-59.019,39.063-162.728,63.274
		c-26.321,6.145-53.662,7.076-79.494,15.779c-4.14,1.395-8.423,2.345-13.351,0.572c-11.408-4.105-12.594,7.053-18.667,7.146
		c-14.131,0.217-248.151,29.426-380.269-55.14c-4.792-3.068-6.499,4.003-3.28,5.574c20.183,9.849,17.682,21.107,84.878,42.92
		c5.665,1.839,11.418,5.097,17.061,4.954c11.55-0.293,22.568,2.64,33.763,4.058c55.772,7.065,36.7,11.605,144.044,13.452
		c231.969,3.993,492.351-122.538,601.464-230.496c22.095-21.861,66.076-54.589,70.836-70.848
		c5.826-0.461,46.446-55.561,50.443-60.888c5.178-6.899,26.187-53.774,34.552-61.956c4.726-4.623,1.818-5.817-4.029-12.944
		c-0.594,0.053-1.187,0.107-1.78,0.16c-0.689,10.744-28.579,53.54-28.572,53.574c1.787,8.444-7.752,10.411-20.781,27.617
		c-5.48,7.237,5.659,7.82-3.307,13.988c-18.543,12.756-11.05,20.435-21.932,24.293c-1.431,0.507-2.352,1.831-1.753,3.292
		C1657.317,411.019,1653.621,414.748,1652.61,419.061z M565.213,867.939c-23.314,31.788-18.38,99.924,23.025,126.285
		c14.121,8.991-0.077,3.281,33.25,25.9c11.884,8.066,63.269,30.394,74.742,32.641c109.426,21.433,99.672,11.481,166.913,7.957
		c9.744-0.511,19.312-3.573,29.23-0.719c2.674,0.77,6.093,0.167,8.438-2.025c5.092-4.76,0.386,1.445,84.733-16.025
		c403.141-83.498,729.35-259.337,729.435-271.573c0.088-12.757,11.484-15.07,18.996-20.951c2.199-1.722,5.046,0.863,1.183,3.552
		c-5.173,3.601-9.777,7.772-13.682,14.677c3.513-1.241,135.269-64.572,256.592-210.264c33.453-40.17,46.866-83.901,47.578-84.903
		c22.227-31.248-2.024-94.225-30.644-117.319c-95.094-76.735-222.678-48.458-222.03-42.469c0.801,7.397,32.128-2.545,31.596,5.778
		c-0.307,4.795-9.587,0.553-13.543,4.479c55.372,1.751,108.069,11.874,153.154,47.207c-0.687-2.974-3.894-3.6-3.022-6.558
		c0.887-3.011,6.828-2.4,9.468,2.083c3.678,6.244-3.09,4.632,0.712,12.844c1.744,3.767,38.779,47.898,30.051,84.095
		c-1.357,5.627,1.919,11.551,0.884,17.034c-2.272,12.042-15.327,38.489-17.075,38.984c-7.672,2.174-2.6,8.467-6.292,12.99
		c-0.268,0.328-21.447,26.199-21.45,26.622c-0.073,10.902-17.002,18.144-42.096,49.516
		c-87.072,108.856-394.8,273.697-526.193,311.777c-4.985,1.445-120.577,40.088-123.937,43.682
		c-5.434,5.814-16.339,2.573-23.924,5.934c-10.405,4.61-20.67,9.134-32.141,10.178c-1.072,0.098-2.598,0.077-2.608,1.581
		c-0.016,2.25,2.926-0.515,3.393,2.467c-17.861-4.848-35.268,10.445-49.285,9.879c0,0-138.543,37.81-183.964,37.915
		c-3.687,0.009-7.957-0.247-9.949,4.45c-1.612,3.803-3.537,0.189-12.781,0.775c-68.791,4.357-26.914,0.005-69.121,5.315
		c-104.042,13.09-183.775-14.316-249.561-79.482c-8.06-7.984-2.635-3.309-14.192-30.674c-5.17-12.242-2.926-27.327-4.749-38.508
		c-2.63-16.133,7.431-29.846,10.857-44.902c1.467-6.445,4.888-12.398,9.366-17.453c11.392-12.863,46.985-59.94,46.985-59.94
		c33.698-33.188,28.427-26.623,27.282-35.042c-0.81-5.951-18.467,9.519-20.556,12.292c-26.689,35.421-28.6,32.245-41.47,48.374
		c-63.122,79.104-67.161,165.06,22.848,207.279c7.797,3.657,16.832,5.808,21.266,14.083c5.744,10.718,33.124,13.1,67.199,24.42
		c49.852,16.562,26.691,8.985,51.185,10.687c53.441,3.713,61.602-4.561,61.753,1.322c0.247,9.678-123.517,4.421-127.483-7.787
		c-1.888-5.812-23.655-7.934-35.713-11.695c-40.256-12.555-26.485-20.732-43.466-25.325c-20.526-5.552-38.564-24.914-39.589-25.704
		c-96.719-74.553,38.787-236.126,81.2-256.561c3.929-1.893,2.477-6.938,0.867-9.898c-6.088-11.195-76.545,67.518-100.544,100.879
		c-6.888,9.575-9.46,21.644-16.244,31.477c-3.827,5.547-7.822,11.18-7.055,18.543L565.213,867.939z M1790.237,755.436
		c24.618-10.518,24.118-17.397,36.071-21.325c21.499-7.064,34.474-20.787,60.715-40.655c3.272-2.477,7.917-2.428,11.267-5.719
		c3.839-3.771,42.017-33.473,42.017-33.473c2.62-3.143,4.44-6.767,7.554-9.835c94.215-92.833,88.207-100.629,88.207-100.629
		c14.029-6.28,16.074-24.37,23.345-32.794c10.533-12.204,11.098-16.509,7.812-24.128c-0.642-1.49,3.698-17.032,6.543-16.176
		c4.309,1.297-1.598,7.519,1.315,10.19c1.253-3.099,2.04-6.228,3.671-8.828c3.299-5.258,1.796-11.561,4.06-16.891
		c6.474-15.24,12.213-30.476,7.541-47.507c-3.297-12.019,5.68-14.468,0.558-16.737c-9.752-4.322-6.205-16.294-13.025-22.235
		c-0.361-0.315-0.435-1.587-0.114-1.964c6.554-7.713-0.701-14.604-4.668-15.864c-6.985-2.218-7.605-7.988-11.34-11.421
		c-122.273-112.369-294.489-55.81-309.198-59.095c-1.295-0.289-2.783-0.125-3.064,1.825c-2.534,17.579,36.921-3.739,87.183-2.815
		c2.937,0.054,89.032-3.034,137.457,19.146c179.225,82.089,72.17,183.83,59.314,225.309
		c-9.138,29.484-96.144,116.496-120.075,133.235c-13.114,9.173-6.863,11.621-12.563,14.831
		c-45.294,25.508-37.661,25.491-65.347,46.18c-5.413,4.045-9.913,9.5-17.03,12.053c-0.228-7.147,45.562-40.341,48.618-42.456
		c90.132-62.361,270.716-254.812,167.345-337.586c-1.905-1.526-5.493-3.497-2.648-5.666c7.989-6.088-4.881-6.551-8.27-9.538
		c-46.145-40.66-136.785-51.099-151.355-44.067c-7.419,3.58-12.669-5.114-18.402-5.307c-49.296-1.669-93.452,7.037-92.231,12.1
		c0.759,3.144,3.029,6.014,7.76,4.332c21.47-7.636,86.401-5.258,109.292-3.66c9.689,0.676,68.936,14.505,74.606,20.181
		c8.025,8.033,19.088,11.202,32.744,18.382c7.979,4.195-3.715,3.545,3.671,8.912c5.54,4.026,11.938,6.716,16.743,11.934
		c50.904,55.278,31.036,56.051,41.327,75.063c0.14,0.258-0.197,0.894-0.465,1.233c-4.552,5.745-13.675,60.522-31.246,78.524
		c-16.141,16.538-22.399,43.539-43.903,63.129c-4.706,4.287-28.311,32.38-29.132,33.38c-2.689,3.279-7.09,3.082-10.022,6.691
		c-127.729,157.182-538.833,332.97-734.393,380.756c-3.859,0.943-4.163,5.978-7.933,5.809c-12.838-0.577-24.731,3.62-36.546,7.488
		c-7.535,2.467-17.49-0.14-22.127,9.403c0,0-30.604,6.439-30.608,6.44c-62.119,12.267-64.244,16.496-75.132,18.84
		c-221.966,47.802-366.905,19.292-377.934,1.096c-7.983-13.168-18.682-2.772-57.975-36.458
		c-14.068-12.061-17.843-6.869-31.677-28.282c-14.646-22.67-22.393-53.184-14.685-85.876
		c13.539-57.418,102.422-169.164,142.484-190.52c4.037-2.152,2.572-7.583,0.769-10.465c-1.752-2.801-4.148,0.754-5.778,2.173
		c-104.514,90.977-85.636,75.756-120.382,124.709c-29.184,41.117-44.097,103.511-43.065,107.723
		c8.186,33.38,6.112,34.153,11.694,36.805c0.625-12.348-7.731-25.081-0.781-25.399c1.521-0.07,1.849,1.307,2.005,2.343
		c0.914,6.075,3.895,11.179,7.284,16.122c2.919,4.257-8.692,9.893,0.124,19.018c8.109,8.393,21.79,12.056,19.334,15.921
		c-1.731,2.724-13.167-3.884-15.928-4.396c1.393,3.348,1.221,6.493,4.458,8.089c18.314,9.028,21.748,24.916,31.15,27.972
		c13.38,4.349,68.997,40.943,77.73,43.274c20.372,5.439,115.63,11.614,116.633,11.664c30.414,1.524,29.308-5.232,41.041-2.984
		c-1.26,16.672-93.24,2.806-96.224,3.318c-23.453,4.025-87.467-10.575-88.314-14.563c-1.738-8.182-9.413-8.632-15.074-11.323
		c-9.579-4.554-16.791-12.738-26.791-16.614c-28.391-11.006-27.054-22.523-38.232-28.882
		c-18.733-10.658-40.178-49.782-39.687-78.613c0.935-54.82,64.208-147.361,107.993-185.396
		c58.383-50.716,57.127-51.86,66.886-56.928c2.73-1.418,5.039-2.307,4.486-5.664c-3.073-18.654-19.47,7.026-24.587,9.909
		c-51.218,28.853-91.729,86.76-101.38,94.133c-5.804,4.434-6.294,14.682-16.092,14.551c-0.386-0.005-1.205,2.01-1.122,3.026
		c0.489,6.003-34.893,45.926-38.918,60.565c-3.907,14.209-14.819,25.952-14.324,41.633c0.046,1.464-0.957,3.082-1.79,4.434
		c-8.453,13.724-2.456,34.404-2.665,36.082c-2.847,22.874,10.526,31.34,14.044,37.791
		c155.59,285.298,996.789-54.99,1280.586-221.412C1784.82,761.022,1788.011,758.781,1790.237,755.436z M669.798,1103.114
		c-1.822-10.463-11.1-7.673-16.089-8.992c-85.868-22.698-52.024-15.948-90.035-32.946c-13.727-6.139-23.349-18.053-34.788-27.335
		c-13.278-10.774-27.949-21.12-31.903-39.757c-1.772-8.351-4.309-0.458-14.319-13.483c-6.888-8.963-14.397-46.244-2.992-76.734
		c36.81-98.404,114.781-177.853,197.018-234.86c19.996-13.861,2.551-9.923,23.233-122.377c0.351-1.908,1.893-4.29-0.258-5.707
		c-1.013-0.667-148.603,84.458-159.255,102.832c-0.187,0.323-0.794,0.407-1.21,0.592c-15.93,7.082-43.644,31.336-50.868,33.099
		c-5.533,1.35-5.179,8.513-9.474,10.181c-7.383,2.868-36.075,26.7-39.555,32.057c-2.264,3.484-7.412,3.273-10.596,6.699
		c-2.135,2.297-80.802,74.161-80.802,74.161c-4.803,3.402-11.115,16.55-17.131,22.344c-38.369,36.951-58.889,80.56-73.399,100.294
		c-3.317,4.51-2.537,10.41-4.143,15.233c-6.469,19.43-23.045,34.714-13.691,106.947c4.386,33.873,23.698,45.987,34.758,67.115
		c30.583,58.423,236.167,96.127,275.117,91.993c8.251-0.876,123.605,5.065,130.378-1.004c6.551-5.87-3.456,1.349,132.325-10.974
		c263.732-23.934,780.488-182.743,1134.809-417.196c104.242-68.977,407.355-295.437,407.875-408.114
		c0.057-12.327,7.149-24.431,1.478-37.112c0,0-1.707-30.766-1.707-30.769c0.118-9.045-8.083-16.144-9.385-25.364
		c-0.714-5.052-6.356,1.782-8.037-6.51c-2.867-14.143-15.531-22.095-21.453-34.28c-7.64-1.746-10.45-8.798-15.479-13.484
		c-10.059-9.373-24.04-13.994-32.495-25.655c-13.789-19.022-143.611-44.437-181.077-44.808c-1-0.01-152.732-1.309-159.176-3.22
		c-2.149-0.637-6.483,3.463-10.568,3.097c-46.489-4.164-255.299,34.608-269.489,39.417c1.079,3.452,3.729,4.651,5.788,6.298
		c126.892,101.52,55.828,82.334,146.535,70.278c17.935-2.384,49.901-1.129,73.962-3.51c22.847-2.261,79.075,11.89,101.547,18.195
		c52.661,14.774,51.475,22.794,81.003,46.835c7.069,5.755,28.964,27.576,30.899,39.462c3.163,19.42,11.489,16.757,12.088,30.158
		c0.377,8.429,0.432,16.858,3.842,24.813c0.678,1.582,0.466,3.399-0.914,4.432c-6.651,4.979-2.777,9.231-5.252,26.574
		c-0.928,6.507-5.375,11.745-6.513,17.999c-4.159,22.852-32.453,52.458-31.336,65.294c0,0-11.26,9.316-27.442,34.654
		c-5.329,8.344-13.343,14.011-18.817,22.196c-20.038,29.961-38.447,29.049-51.601,53.671
		c-8.332,15.593-175.12,133.95-202.664,141.897c2.112-4.063,7.261-3.989,8.646-9.002c-10.396,5.325,1.502-1.712-49.415,28.945
		c-4.235,2.55-10.505,2.868-10.682,9.935c-0.003,0.109-118.368,61.149-138.833,68.833
		c-542.031,203.53-139.148,67.544-466.075,161.157c-10.412,2.981-21.261,2.391-31.673,5.529
		c-46.011,13.865-246.672,62.349-390.888,44.393C675.696,1097.042,672.244,1097.15,669.798,1103.114z M794.197,994.577
		c7.989,23.859,25.146,24.185,104.906,25.004c50.525,0.519,80.621-2.828,142.799-16.773
		c567.902-127.365,868.217-406.024,834.696-431.138c-4.938-3.7-16.684,17.972-28.079,28.013
		c-18.112,15.959-93.42,97.932-112.394,99.67c7.306-9.994,36.308-29.964,57.206-51.663c56.927-59.11,8.822-1.016,74.975-89.479
		c7.44-9.95,3.257-27.361-2.104-19.991c-38.662,53.141-134.128,146.438-149.425,149.062
		c0.961-1.102,169.141-152.532,142.316-185.757c-51.907,68.012-113.483,128.761-139.13,148.535
		c4.098-10.152,14.832-13.521,52.1-54.836c64.03-70.982,40.704-48.186,78.506-99.636c4.46-6.07,4.016-12.13,1.198-18.627
		c-4.967-11.451-15.272,17.306-41.791,43.549c-10.924,10.81-10.426,21.513-99.702,102.868c-2.086,1.901-3.707,4.694-7.108,5.033
		c-2.287-5.41,5.995-8.209,13.638-15.778c166.598-164.984,119.847-171.879,116.706-166.431
		c-34.108,59.157-81.088,112.343-89.273,115.773c-4.006-7.515,103.815-117.323,79.996-144.423
		c-24.021,43.904-54.601,82.81-90.468,117.64c0.509-1.002,107.834-131.883,77.821-142.423c-7.672-2.694-11.634,31.895-21.21,36.95
		c-5.309,2.803-0.501,11.778-8.31,12.514c-4.098,20.354-90.664,99.765-122.499,141.124c-4.618,6-86.125,65.608-87.126,66.327
		c-10.165,7.306-22.378,11.246-31.713,19.876c-10.391,9.605-24.128,9.989-34.926,18.064
		c-94.708,70.829-315.637,132.419-427.262,147.173c-168.733,22.303-317.864-16.955-343.372-44.333
		c-1.765-1.894-5.937-4.328-7.05-3.587c-7.864,5.235-13.377-8.451-19.582-9.784c-3.08,39.349,145.34,68.238,160.807,81.121
		c-19.995,1.208-123.568-32.853-154.47-53.129c0.804,20.975,6.011,23.763,29.698,36.378c33.235,17.7,169.212,43.051,104.447,34.441
		c-75.039-9.976-124.917-35.394-124.917-35.394c0.985,25.722,14.74,35.481,73.182,46.905c32.589,6.37,72.662,10.771,72.662,10.771
		c23.59,9.221-88.546-3.358-128.709-19.173c-1.517-0.597-2.774-3.237-4.635-1.076c-1.134,1.316-2.578,17.764,26.768,27.368
		c27.354,8.952,102.1,18.918,114.069,21.767c-6.243,3.424-7.162,2.548-60.669-4.701c-58.211-7.887-71.309-19.02-68.554-11.145
		c1.987,5.679,3.32,11.558,9.658,15.047c22.488,12.378,97.888,21.568,132.393,23.014c2.08,0.087,5.289-0.671,6.283,3.151
		c-31.783,5.979-127.787-14.167-128.787-14.338c-1.744-0.298-3.75-1.526-5.136,0.306c-1.118,1.478,0.319,8.746,5.771,8.94
		c7.379,0.263,9.837,8.482,18.283,11.437c26.786,9.372,87.458,12.399,117.385,14.117c113.733,6.529-80.531,9.417-128.415-10.029
		c-0.182-0.074-0.631,0.511-1.552,1.299c7.747,13.252,8.699,25.164,57.45,30.712c6.826,0.777,49.945,6.456,94.874,2.487
		c4.403-0.389,29.83-3.681,30.523,0.426c1.397,8.268-72.294,5.896-87.072,5.817C844.453,1003.475,819.447,1000.672,794.197,994.577z
		 M737.93,427.189c-15.093,5.001-58.087,26.93-59.587,27.693c-3.774,1.921-8.055,1.113-11.601,3.728
		c0,0-147.77,70.766-302.927,185.959c-30.753,22.832-41.767,26.781-55.431,40.833c-35.244,36.243-31.167,24.354-74.304,62.964
		c-61.56,55.1-157.936,167.921-180.879,225.41c-17.113,42.882-40.848,153.348,16.856,220.156
		c66.357,76.829,148.182,93.091,189.88,105.151c492.931,142.565,2090.5-371.264,2293.472-989.448
		c48.581-147.967-134.328-241.422-261.794-254.534c-266.887-27.454-498.02,1.779-755.426,70.668
		c11.749,7.928,5.741,5.061,78.333-13.021c1.8-0.448,4.101-0.096,6.223,3.255c-21.763,6.666-44.225,9.695-65.799,19.369
		c39.429,19.761-28.34,3.752,211.997-34.652c130.719-20.888,487.485-38.908,600.253,28.325c3.343,1.993,8.32,0.311,10.098,3.206
		c5.04,8.206,14.286,9.853,21.23,14.982c2.961,2.187,5.769,5.575,10.675,3.072c1.851-0.944,4.235,2.735,3.4,3.89
		c-2.431,3.36,0.802,3.944,1.988,5.332c31.012,36.311,108.483,98.664,33.573,262.468c-15.741,34.423-54.753,79.845-67.348,91.617
		c-9.81,9.169-15.062,21.766-24.31,31.332c-634.428,656.189-2463.21,1061.874-2215.368,405.165
		c82.413-218.373,501.874-458.096,577.743-481.605c2.959-0.917,8.91-11.194,7.19-12.656
		c-8.943-7.608-417.177,226.086-480.605,317.871c-5.255,7.604-13.617,12.008-20.647,17.771c-3.556,2.915-6.466-1.632-4.948-3.675
		C313.701,661.497,733.005,441.2,733.005,441.2C734.377,437.093,735.872,433.027,737.93,427.189z M1586.923,151.461
		c60.938,37.096-6.017,15.442,187.889-10.486c282.856-37.822,420.859,4.942,421.86,4.986
		c32.929,1.441,205.401,64.036,188.367,203.971c-38.245,314.214-1086.159,893.245-1768.797,882.742
		c-218.706-3.366-334.667-60.263-336.46-73.743c-1.2-9.017-9.652-6.718-18.951-12.185c-16.287-9.575-23.525-27.42-36.702-39.806
		c-4.405-20.787-22.323-37.109-19.898-60.165c0.042-0.402-0.18-1.009-0.489-1.246c-14.134-10.805,4.968-100.844,13.661-114.594
		c8.397-13.281,42.375-73.31,71.562-101.417c0.005-0.005,77.28-77.125,77.28-77.125c0.233-22.223,245.66-193.443,337.518-238.223
		c5.041-2.457,4.256,0.34,10.816-24.031c5.276-19.603-194.911,101.919-198.895,105.572
		C470.629,637.02,204.044,762.34,137.418,1022.41c-14.256,55.647,0.136,98.74,34.126,139.664
		c145.585,175.285,629.139,92.038,850.371,48.351c12.605-2.489,6.666-12.713,76.529-21.387
		c39.542-4.909,298.775-91.855,375.772-122.005c143.857-56.33,408.843-192.449,433.184-207.817
		c270.796-170.968,36.271-7.163,356.908-248.203c48.875-36.742,114.584-108.122,156.761-177.465
		c117.02-192.394-29.976-329.439-237.749-333.992c-23.386-0.512-46.1-6.776-69.855-5.234c-14.715,0.955-30.084-0.714-45.138-1.503
		c-171.337-8.981-454.603,46.836-432.54,44.477c-12.752,1.364-23.128,10.814-36.463,10.814
		C1595.46,148.112,1591.117,148.422,1586.923,151.461z M1619.691,352.511c-0.095-2.113,42.913-59.762,43.775-60.776
		c12.126-14.277,17.847-32.237,28.424-47.343c2.139-3.054-28.648-27.246-30.898-29.001c-5.471-4.265-2.006,3.333-8.703,18.817
		c-29.036,67.133-106.736,141.198-168.372,190.631c-5.225,4.191-7.164,10.563-12.298,14.442
		c-136.101,102.818-319.285,174.208-524.004,177.406c-78.659,1.229-207.812-36.943-214.369-41.131
		c-8.719-5.568-26.141-6.811-26.649-0.191c-0.391,5.103,5.533,3.99,12.972,8.201c83.122,47.048,282.102,54.754,238.752,61.083
		c-1.126,0.164-154.265-12.864-244.984-57.133c-11.804-5.76-8.325,3.76-10.896,15.724c-2.594,12.073,11.179,15.354,33.921,25.661
		c1,0.453,46.325,23.853,77.006,26.481c54.949,4.707,96.429,20.026,156.764,15.751c10.965-0.777,21.277,3.219,32.047,2.502
		c478.812-31.886,721.824-394.065,696.626-425.07c-0.864-1.063-2.601-2.064-3.268-0.118c-2.358,6.879-9.204,10.941-11.206,17.883
		c-2.8,9.711-8.624,17.88-14.944,25.094c-25.764,29.406-10.134,14.952-42.935,57.118
		C1624.937,350.49,1623.002,352.22,1619.691,352.511z M728.46,485.666c3.9-0.648,6.515-2.359,9.242-0.733
		c1.694,1.01,4.221,1.624,2.857,4.474c-3.556,7.429-12.717-5.859-14.108,1.399c-0.702,3.663-5.707,7.802-1.089,11.188
		c56.305,41.275,307.275,98.871,541.028-11.516c131.8-62.242,290.323-172.955,341.983-307.031
		c2.026-5.259,3.619-5.465-45.495-31.461c-5.718-3.026-2.764,1.183-10.029,16.095c-117.218,240.608-535.175,389.607-756.833,308.776
		c-6.995-2.551-13.351-6.298-20.766-8.385c-9.793-2.756-20.741-3.841-28.741-11.576c-1.001-0.967-6.186-3.087-7.32-0.441
		C735.24,465.674,731.227,474.871,728.46,485.666z M1347.878,121.116c4.959-13.869,22.406-31.121,9.177-32.423
		c-14.898-1.466-15.656-2.335-15.441,0.696c1.019,14.303-38.585,57.505-39.587,58.444c-23.572,22.113-45.347,44.044-94.362,75.39
		c-77.214,49.379-283.727,106.21-349.812,48.809c-4.621-4.014-40.764,39.769-35.926,40.997c4.485,1.138,6.967,5.017,11.08,6.66
		c140.456,56.112,314.411,5.076,434.315-74.347c107.956-71.51,126.575-135.193,133.062-141.731
		c7.435-7.495-9.522-13.372-10.811-5.654c-1.464,8.766-7.965,14.864-11.848,22.312c-1.76,3.376-3.494,8.648-10.537,10.37
		c3.955-5.036,5.683-9.028,6.979-13.106c3.039-9.559,24.139-23.897,0.168-26.511c-4.165-0.454-6.778,0.118-8.681,5.169
		C1362.018,105.843,1357.113,115.122,1347.878,121.116z M801.546,1030.541c-0.693-3.072-80.473-102.806-105.906-260.714
		c-1.74-10.806-11.82,5.652-22,15.491c-4.304,4.16-4.496,10.488-8.74,14.537c-35.346,33.718-54.959,91.258-53.971,92.263
		c5.549,5.645,1.375,11.85,1.616,17.66c0.878,21.15,8.335,22.544,11.6,32.883c1.931,6.115,4.713,11.604,8.291,16.912
		c2.852,4.232,8.785,6.288,9.627,11.349c1.839,11.054,13.807,8.912,16.928,11.13c13.534,9.618,32.409,24.078,49.524,26.85
		c25.507,4.132,29.028,11.826,41.532,14.559c11.989,2.62,24.363,3.007,36.223,6.553
		C791.004,1031.432,796.134,1031.261,801.546,1030.541z M1892.711,585.761c8.302-9.901,14.537-19.45,24.961-24.59
		c0.564-0.278,1.105-0.918,1.334-1.514c6.355-16.547,19.73-18.023,23.737-31.324c4.855-16.115,10.334-13.705,21.387-43.662
		c10.147-27.502,1.203-18.047,1.133-34.168c-0.16-36.61-27.943-60.194-29.356-64.42c-5.002-14.964-27.417-12.078-30.273-25.821
		c-0.927-4.461-68.122-18.523-69.124-18.744c-13.986-3.09-27.382,0.088-42.293,0.013
		C1844.592,416.329,1877.494,496.765,1892.711,585.761z M1795.965,366.914c-2.741,2.784-65.764,108.734-92.001,128.507
		c-1.125,0.848-120.159,132.552-215.389,175.491c-39.647,17.877-104.622,56.148-175.175,79.926
		c-69.437,23.401-210.503,61.071-283.569,60.778c-19.996-0.08-54.521,3.447-54.521,3.447c-7.592-4.931-16.45-3.454-24.074-2.729
		c-29.032,2.762-91.923-10.725-96.89-10.723c-21.903,0.011-41.605-8.766-62.083-14.244c-4.745-1.269-9.54-0.979-14.269-2.678
		c-17.575-6.314-70.248-34.247-71.377-34.708c-0.07,5.44-1.168,11.187,5.291,13.261c17.649,5.669,173.259,144.9,623.569-6.047
		c1-0.335,162.318-68.699,237.105-125.104c187.798-141.641,221.818-243.723,224.539-247.033
		C1801.69,379.501,1801.017,372.542,1795.965,366.914z M1778.849,341.613c-5.609,6.992-39.165,152.855-342.424,324.63
		c-35.059,19.859-76.393,32.62-95.258,41.319c-7.123,3.285-13.33,8.495-21.127,10.872c-8.277,2.523-16.664,5.127-24.385,8.946
		c-46.243,22.876-245.792,62.886-357.273,57.585c-59.229-2.817-184.517-26.304-232.401-61.738
		c-7.365-5.449-6.033,12.245,4.042,15.839c15.567,5.554,28.954,15.556,44.728,20.545c130.302,41.214,230.419,53.722,396.38,20.501
		c142.198-28.463,290.809-89.442,398.331-165.577c32.063-22.703,19.923-9.415,35.43-21.734c1.001-0.795,99.35-89.8,138.346-140.527
		c10.561-13.739,20.597-20.741,60.253-89.104c4.553-7.849,4.071-11.957-1.32-17.457
		C1781.072,344.593,1780.18,343.27,1778.849,341.613z M1088.261,738.375c4.877,2.807,8.928-2.864,14.091-3.773
		c79.361-13.977,102.77-12.211,178.74-41.297c19.783-7.574,154.444-65.532,158.179-68.217
		c21.358-15.352,88.102-57.002,94.834-66.066c9.898-13.327-0.962,1.109,26.214-19.46c10.119-7.659,17.901-18.367,30.314-23.053
		c10.776-4.068,46.95-49.785,54.805-50.663c1.345-0.15,2.982-2.994,3.392-4.843c0.299-1.349,129.636-146.244,100.633-157.996
		c-3.867-1.567-3.121,3.289-3.793,5.38c-6.674,20.744-56.073,88.744-56.976,89.747c-9.169,10.179-21.794,17.775-26.105,32.027
		c-0.522,1.724-2.542,3.336-4.262,4.296c-6.411,3.581-10.495,9.374-14.93,14.88c-37.775,46.889-136.433,119.074-161.975,130.483
		c-7.269,3.247-10.573,10.796-17.177,14.13c-5.276,2.664-67.379,38.604-86.058,45.664c-86.909,32.852-81.24,31.229-82.395,34.994
		c-1.215,3.964-3.533,3.779-6.951,2.725c-6.608-2.038-17.532,4.048-19.865,10.636c-1.417,4.002-3.967,2.233-4.103-0.054
		c-0.572-9.625-6.186-1.347-19.494,3.379c-61.459,21.825-217.001,49.886-285.432,41.191c-36.63-4.654-34.872,1.754-51.094-0.738
		c-0.002,0-81.669-11.886-81.669-11.886c-37.573-9.925-107.539-34.155-122.961-49.818c-3.633-3.69-6.192-1.388-6.103,3.282
		c0.481,25.27,207.717,89.292,304.01,70.293C1030.247,738.072,1058.748,740.034,1088.261,738.375z M1568.122,567.861
		c30.339-23.787,129.413-105.787,145.028-141.226c4.545-10.314,46.451-65.476,52.082-83.536c1.198-3.844,1.854-7.886,4.772-11.288
		c1.987-2.316-0.726-5.009-2.769-5.993c-5.326-2.564-1.899,6.17-8.774,13.729c-8.135,8.945-28.153,46.025-28.516,46.367
		c-14.555,13.707-44.977,57.076-52.38,66.429c-45.829,57.897-206.782,182.122-302.985,217.064
		c-13.678,4.968-27.29,10.217-40.579,16.303c-174.222,79.793-406.733,78.343-430.388,68.992c-9.56-3.779-21.576-4.168-32.267-4.428
		c-28.141-0.684-80.878-14.99-119.875-29.425c-47.635-17.632-53.244-41.458-52.488-21.892c0.367,9.481,1.555-1.602,20.179,13.407
		c90.978,73.324,387.913,66.475,484.25,28.386C1204.413,740.356,1404.026,696.516,1568.122,567.861z M1716.739,266.491
		c-10.67,9.266-84.794,201.406-373.543,334.178c-246.836,113.502-435.83,101.258-633.722,33.666
		c-2.879-0.983-5.889-5.859-8.146-2.984c-2.403,3.061,3.722,2.79,4.873,5.404c6.345,14.422,72.838,33.152,87.563,36.695
		c280.036,67.392,545.555-44.381,617.76-96.074c1.001-0.716,143.773-85.582,191.377-138.81
		c42.574-47.604,48.25-45.011,58.116-60.256C1719.414,288.068,1731.385,272.82,1716.739,266.491z M1415.924,458.92
		c62.426-37.43,220.607-176.664,233.091-250.256c0.696-4.102-5.916-8.538-7.26-4.388c-2.863,8.845-10.778,14.646-13.866,23.364
		c-48.755,137.603-436,450.265-827.177,343.73c-14.179-3.862-17.594-8.006-45.551-14.146c-38.842-8.529-38.987-24.341-43.108-10.464
		c-1.749,5.889,192.623,97.182,419.279,37.52C1350.686,526.54,1403.663,466.272,1415.924,458.92z M1562.772,306.792
		c17.589-13.53,15.597-25.598,25.841-34.856c15.584-14.083,33.955-53.106,39.892-74.828c1.927-7.051-9.409-14.013-9.666-9.362
		c-1.272,23.061-63.894,116.18-68.574,114.016c-0.212-0.098-1.102,0.79-1.369,1.361c-13.825,29.636-347.703,375.134-820.275,223.382
		c-11.516-3.698-3.247-9.869-7.483-11.575c-2.487-1.001-14.64,18.319,24.149,26.081c1.074,0.215,113.758,35.859,206.392,38.204
		C1309.257,588.269,1531.161,331.11,1562.772,306.792z M1232.905,373.426c146.214-60.598,297.434-241.656,265.248-250.084
		c-3.088-0.809-9.836-5.935-10.19,2.8c-1.041,25.702-35.364,57.304-37.952,60.55C1284.896,393.82,988.91,458.262,860.242,415.743
		c-8.429-2.785-17.369-4.983-26.071-6.888c-11.71-2.565-21.741-8.682-32.885-12.274c-25.941-8.362-22.428-19.315-31.119-8.1
		c-1.246,1.608-1.803,3.668,0.707,4.461c9.338,2.951,16.198,10.468,25.304,13.659c18.625,6.526,16.827,10.931,25.263,11.846
		c18.692,2.026,32.509,10.119,42.041,11.048c23.794,2.317,100.412,13.262,134.024,7.665
		C1026.554,432.322,1102.855,427.325,1232.905,373.426z M1124.085,436.516c14.485-6.535,49.82-11.311,63.574-19.001
		c25.08-14.022,106.944-44.939,126.092-61.446c3.756-3.238,168.484-113.759,211.828-211.258c3.95-8.886,4.595-8.281-4.437-12.396
		c-11.076-5.047-3.198,6.764-16.208,24.279c-11.848,15.952-58.265,101.025-192.665,188.834c-7.778,5.081-14.656,11.778-24.067,14.22
		c0,0-58.009,34.947-181.384,71.104c-149.81,43.904-311.325,5.166-340.593-23.592c-1.532-1.506-3.24-3.113-5.075-0.517
		c-9.687,13.701,9.072,16.913,10.556,17.666C884.523,481.666,1070.069,460.887,1124.085,436.516z M1074.287,473.383
		c1.001,0.209,224.121-44.08,350.486-171.071c106.198-106.724,109.085-128.258,119.953-144.034
		c7.842-11.382,7.297-11.579-2.044-16.357c-3.459-1.769-4.718-1.23-5.579,2.569c-12.358,54.56-184.256,239.398-348.94,286.413
		c-224.368,64.052-252.581,42.17-294.553,41.619c-22.488-0.295-110.16-19.982-127.461-36.651
		c-15.751-15.176-22.822,0.914-17.738,3.287c101.617,47.438,172.713,48.401,278.47,40.793
		C1042.758,478.808,1058.489,475.635,1074.287,473.383z M1401.639,190.949c7.159-9.078,12.453-0.205,13.602-6.569
		c0.552-3.057,2.64-4.892,5.035-6.192c4.231-2.297,2.839-7.311,1.351-8.091c-10.136-5.315,47.15-59.062,29.494-62.137
		c-3.872-0.674-10.695-3.914-11.126-0.859c-4.147,29.404-130.352,225.337-431.99,270.689c-37.038,5.569-43.337,6.959-54.151,1.549
		c0,0-15.954,3.291-38.502-1.853c-18.454-4.21-1.64,3.505-34.941-4.864c-12.183-3.062-23.349-9.174-36.123-10.64
		c-30.99-3.557-43.333-28.304-48.131-16.387c-0.885,2.199-4.244,5.245,0.163,6.787c11.711,4.099,21.392,12.942,33.845,14.98
		c21.935,3.591,41.513,15.319,63.663,18.027c1.111,0.136,2.392,0.38,3.222,1.041c6.114,4.87,8.342-1.299,24.217,1.543
		C1081.911,416.732,1323.709,289.781,1401.639,190.949z M1272.933,321.65c32.809-27.038,62.338-24.141,178.875-153.698
		c13.02-14.475,30.341-49.833,25.807-51.654c-5.673-2.278-16.519-6.866-13.951-0.954c3.848,8.858-7.35,13.088-7.936,16.448
		c-1.808,10.37-12.529,16.912-12.155,28.291c0.203,6.133-96.618,100.671-103.272,104.163c0,0-58.595,40.136-70.107,47.614
		c-194.098,126.072-427.84,101.036-477.313,51.306c-1.692-1.7-4.701-5.145-7.781-0.233c-2.457,3.919-4.299,7.191,0.355,10.592
		c1.483,1.083,2.982,3.115,4.451,3.093c12.692-0.185,19.963,14.29,33.314,12.198c0.83-0.13,1.937,1.083,2.82,1.789
		c19.495,15.595,58.486,16.971,95.998,21.641C1071.284,430.824,1255.519,336.002,1272.933,321.65z M808.119,328.448
		c9.119,2.535,14.227,11.021,23.171,13.665c12.251,3.622,66.098,23.947,94.01,23.255c5.25-0.13,11.094-1.276,15.646,0.564
		c29.714,12.014,25.532,0.218,33.402,1.865c24.249,5.073,33.142-5.104,63.996-6.064c19.741-0.614,60.207-19.293,103.485-28.7
		c42.295-9.193,95.248-44.032,131.18-67.604c134.768-88.41,139.599-143.765,154.055-158.794c4.484-4.662-4.244-5.916-10.531-7.026
		c-5.609-0.99-14.172,26.219-21.026,35.775c-133.874,186.664-420.909,271.193-579.506,190.129
		C811.504,323.215,810.146,323.864,808.119,328.448z M1666.271,1135.952c65.224-51.807,124.537-130.569,118.123-134.467
		c-9.859-5.993-19.847,31.48-47.354,60.311c-24.868,26.065-137.849,117.52-176.52,128.264c-3.297,0.916-6.911,1.624-9.634,3.506
		c-10.298,7.117-22.156,10.813-33.435,15.705c-131.245,56.919-232.046,30.738-273.855,33.853
		c-14.055,1.047-4.697-1.715-34.745-8.002c-40.693-8.513-43.477-17.406-56.02-11.12c-1.382,0.693-3.624,0.715-3.468,2.721
		c0.169,2.163,89.695,27.119,120.532,26.494C1313.26,1252.337,1483.484,1281.137,1666.271,1135.952z M1768.524,997.358
		c-4.474,1.729-11.022,0.758-12.771,5.602c-4.448,12.326-15.636,19.871-20.988,31.526c-1.904,4.146-5.754,8.082-9.708,10.479
		c-45.734,27.742-114.433,125.637-329.476,173.031c-79.974,17.624-147.305,1.564-148.307,1.554
		c-27.695-0.27-27.537-13.392-45.021-9.292c-10.22,2.397,17.848,18.119,29.851,16.21c10.963-1.743,19.269,1.744,28.187,4.814
		c74.337,25.593,304.127-31.201,393.858-117.124c47.573-45.552,42.63-25.638,75.883-63.135c9.143-10.31,13.96-24.015,25.328-32.65
		c0.68-0.517,1.077-1.493,1.439-2.328C1759.727,1009.288,1763.361,1002.99,1768.524,997.358z M991.48,280.055
		c61.695-5.92,55.838-8.4,78.064-13.19c108.097-23.298,233.623-123.476,234.397-142.604c0.386-9.553,12.301-10.777,12.895-16.566
		c1.227-11.957,16.119-17.737,11.076-21.19c-2.012-1.378-4.811-2.106-6.648,0.626c-115.004,171.038-372.714,205.6-424.055,176.352
		c-2.38-1.355-19.108-1.791-24.292-5.628c-4.517-3.343-10.195,2.565-4.038,6.102C898.726,281.103,958.213,283.247,991.48,280.055z
		 M880.274,245.263c3.399,3.643,7.694,1.937,11.252,3.595c12.722,5.926,26.332,10.301,40.492,9.116
		c22.358-1.87,45.371,3.809,67.08-5.595c25.181,0.768,48.308-9.774,72.742-13.355c13.554-1.986,25.486-10.062,38.451-14.478
		c130.212-44.354,191.938-135.839,188.767-138.862c-2.966-2.826-12.66-1.621-14.706,1.998
		c-77.582,137.22-365.215,181.177-385.956,152.866C891.72,231.437,893.417,233.245,880.274,245.263z M901.498,227.486
		c95.747,29.228,311.384-46.97,370.134-141.619c-23.356-7.919-26.44,25.229-83.282,61.047
		c-121.754,76.723-257.26,78.556-264.407,76.362C916.542,221.005,907.149,214.875,901.498,227.486z M931.436,202.263
		c45.952,19.727,181.515-25.754,232.627-58.963c1.003-0.652,101.361-64.175,72.597-57.393c-9.852,2.323-22.249-1.43-27.699,11.52
		c-0.64,1.52-21.342,20.53-71.54,46.989c-29.494,15.546-99.48,35.158-131.573,44.382c-15.059,4.328-30.576,2.821-45.838,4.416
		c-5.221,0.546-6.347-8.248-11.708-4.027C942.784,193.533,937.202,197.801,931.436,202.263z M1662.144,1053.509
		c-1.003,0.502-73.374,36.317-79.154,41.969c-15.299,14.961-33.688,15.904-56.587,29.645
		c-67.625,40.579-152.104,36.532-176.474,45.691c-1.944,0.731-4.348,1.409-5.984,0.021c-4.41-3.743-6.75-3.203-37.852,7.065
		c-1.702,0.562-4.101,0.828-4.598,3.897c1.005,0.178,158.947,13.872,335.798-108.206
		C1646.029,1067.559,1655.417,1062.181,1662.144,1053.509z M967.885,177.011c112.958,1.161,229.464-78.995,227.18-84.536
		c-1.529-3.711-21.592,1.802-30.699,8.703c-20.46,15.504-109.837,64.475-167.232,62.721
		C984.871,163.524,982.66,166.885,967.885,177.011z M1395.09,1149.511c40.098-2.618,180.779-55.03,191.894-70.45
		C1523.916,1104.223,1458.705,1124.59,1395.09,1149.511z M1126.726,107.493c-0.306-0.51-0.612-1.02-0.918-1.529
		c-36.608,10.231-72.103,23.294-105.615,41.61c3.061,2.318,47.434-9.821,48.983-10.264
		C1099.696,128.58,1062.269,139.005,1126.726,107.493z M1206.95,1258.422c-1.008-0.728-38.262-12.568-54.264-12.733
		c-1.774-0.018-1.935-1.633-2.811-2.59c-7.897-8.619-36.679-11.67-36.98-5.54C1112.646,1242.622,1199.894,1262.375,1206.95,1258.422
		z M1824.329,655.468c1.001-0.765,27.035-19.595,33.218-28.814c5.08-7.574,30.059-20.631,20.062-26.732
		c-3.272-1.997-0.527,0.33-17.378,16.774C1847.597,629.024,1835.162,641.531,1824.329,655.468z M869.939,1027.921
		c0.805-7.554-20.988,0.446-51.716-4.872c-7.444-1.289-4.786,8.377,4.084,8.116C868.33,1029.808,869.438,1032.63,869.939,1027.921z
		 M462.045,1211.597c-1.008-0.261-41.638-11.771-42.522-7.172c-1.144,5.956,24.878,5.274,34.593,7.57
		C456.582,1212.577,459.324,1213.655,462.045,1211.597z M1798.182,984.208c-16.25,1.074-15.888,9.92-12.21,11.735
		c2.393,1.181,6.154,2.17,6.657-0.261C1793.542,991.277,1797.564,988.634,1798.182,984.208z M1597.752,977.66
		c10.737-3.038,20.733-7.893,30.066-14.093C1617.109,966.727,1608.376,974.035,1597.752,977.66z M2235.377,560.099
		c0.488,0.509,0.975,1.018,1.463,1.527c5.546-5.854,13.2-9.691,16.834-16.846C2247.765,549.728,2241.571,554.914,2235.377,560.099z
		 M1643.258,186.728c-0.481-5.887-6.132-6.428-8.261-10.055c-0.751-1.28-6.225,1.057-2.368,3.81
		C1635.752,182.712,1638.746,185.193,1643.258,186.728z M665.88,1222.579c-0.011,0.637-0.021,1.275-0.032,1.912
		c5.304,1.99,10.305-0.072,15.314-1.912C676.069,1222.579,670.974,1222.579,665.88,1222.579z M1267.174,1265.37
		c-15.824-6.688-12.626-0.105-9.754-0.03C1260.67,1265.424,1263.923,1265.37,1267.174,1265.37z"/>
	<path d="M1812.195,737.988c-8.83,4.622-14.587,10.676-20.326,16.751C1774.465,762.177,1797.274,736.41,1812.195,737.988z"/>
	<path d="M1671.989,604.114c-1.324-1.072-3.052-1.257-0.107-4.194c31.777-31.674,17.601-18.081,44.032-42.444
		c4.716-4.347,6.539,0.889,3.442,3.335C1714.511,564.637,1691.061,589.273,1671.989,604.114z"/>
	<path d="M906.84,927.948c-11.208-3.616-15.459,1.436-15.871-4.284c-0.222-3.087,1.849-3.834,4.45-3.813
		C921.681,920.063,912.517,929.78,906.84,927.948z"/>
	<path d="M1732.571,578.467c-0.56,1.642,2.129,0.062-17.717,16.555c-2.243,1.864-5.992-0.373-3.076-3.132
		C1727.04,577.449,1730.446,572.707,1732.571,578.467z"/>
	<path d="M927.359,952.542c-2.704-0.511-6.29,0.25-6.088-3.941c0.172-3.58,3.221-3.446,5.721-3.217c3.462,0.317,9-0.698,8.973,3.814
		C935.939,953.291,930.183,951.154,927.359,952.542z"/>
	<path d="M1666.967,653.414c2.167-11.296,17.457-13.337,12.58-7.509C1676.427,649.633,1673.529,653.828,1666.967,653.414z"/>
	<path d="M890.47,891.41c2.614,0.721,7.155-1.063,7.254,3.715c0.082,3.969-3.959,2.708-6.424,3.145
		c-3.492,0.619-6.248-0.777-6.322-4.356C884.905,890.393,888.265,891.875,890.47,891.41z"/>
	<path d="M1694.696,707.326c-9.287-0.193,7.566-15.719,7.205-7.542C1701.692,704.512,1696.863,704.813,1694.696,707.326z"/>
	<path d="M1690.393,674.524c-4.542,0.311-2.99-5.875,4.099-7.867C1697.253,665.881,1698.729,671.209,1690.393,674.524z"/>
	<path d="M887.626,872.891c-2.103,0.058-3.665-0.956-3.51-3.194c0.222-3.197,3.312-2.825,5.236-3.225
		C891.891,865.943,894.582,872.701,887.626,872.891z"/>
	<path d="M72.914,1087.098C78.65,1038,48.731,962.765,204.503,800.672c5.324-5.54,7.531-0.132,4.288,3.681
		c-91.477,107.53-148.187,178.583-121.563,318.884c2.27,11.96,10.828,20.239,18.155,29.19c15.548,18.994,5.491,17.804,26.254,33.931
		c35.099,27.262,108.429,83.396,152.99,86.593c17.194,1.233,14.571,8.174,48.704,12.738
		c309.622,41.412,711.062-57.47,558.477-22.653c-116.237,26.528-243.518,30.922-282.201,34.195
		c-181.67,15.369-250.724,5.507-336.939-19.682c-13.681-3.997-28.348-6.738-40.401-14.425
		c-18.015-11.489-39.285-17.877-54.232-34.143c-2.439-2.655-5.648-4.345-8.661-5.439c-38.078-13.832-71.223-65.464-83.837-78.211
		C77.033,1136.735,71.095,1099.583,72.914,1087.098z"/>
	<path d="M2519.619,258.911c-0.086,0.39,4.523,41.537-2.75,71.341c-1.991,8.16-3.543,16.737-3.271,25.058
		c0.615,18.834-46.608,102.241-54.376,96.078c-4.371-3.468,4.413-3.211,31.243-54.435c23.793-45.425,18.886-77.899,23.684-112.124
		c0.776-5.536-3.414-9.332-3.12-15.046c0.734-14.271,1.786-28.94-4.361-42.551c-28.21-62.47-38.436-60.921-52.026-73.16
		c-32.79-29.528-27.146-18.527-46.925-33.442c-16.774-12.648-63.188-18.807-56.546-27.946c2.872-3.954,2.099,1.722,22.205,7.433
		c9.477,2.692,13.083-7.316,18.773,3.64c4.79,9.223,51.451,27.272,68.588,47.09c4.833,5.589,11.456,8.919,16.772,13.931
		c7.715,7.274,33.339,42.237,39.124,58.533C2520.445,234.052,2522.523,245.725,2519.619,258.911z"/>
	<path d="M147.921,905.453c-29.614,71.544-34.458,78.221-34.091,86.815c0.603,14.116-11.99,44.555-10.717,82.685
		c2.821,84.511,59.564,109.831,71.904,125.181c11.666,14.511,23.991,13.827,34.456,23.523
		c-31.209-0.647-38.974-22.997-64.984-40.966c-30.031-20.746-45.569-70.678-47.093-104.607c-1.167-25.981,4.397-50.728,9.558-75.66
		c4.701-22.712-12.306,6.299,34.462-90.804C142.639,909.081,143.508,905.961,147.921,905.453z"/>
	<path d="M51.444,1096.608c0.366-14.5-2.843-26.384-2.838-38.618c0.011-26.287,14.838-102.384,23.663-99.097
		c5.602,2.086-8.853,29.028-15.189,64.074c-5.84,32.3-2.916,85.376,16.977,132.596c18.952,44.985,49.406,69.729,90.225,89.875
		c2.811,1.387,8.876,5.018,6.799,8.109c-2.919,4.343-10.649-5.417-16.065-6.431c-26.322-4.929-86.111-62.069-97.256-117.235
		C55.375,1118.073,49.327,1106.92,51.444,1096.608z"/>
	<path d="M2075.128,65.348c-18.178-3.511-181.959,5.388-194.046,14.451c-5.612,4.208-10.067-2.837-2.778-5.628
		c21.304-8.156,199.787-20.236,200.652-9.2c0,0,143.234-7.714,182.383,4.581c5.889,1.85,2.272,5.904-1.256,5.106
		c-54.503-12.327-145.763-7.742-146.765-6.984c-6.94,5.255-9.213,3.534-37.826,3.801c-2.004,0.019-4.917,0.52-5.484-1.724
		C2069.313,67.004,2072.935,67.647,2075.128,65.348z"/>
	<path d="M2525.673,360.981c-3.236-0.491-2.395-3.489-2.004-5.598c29.803-160.869-24.959-175.247-72.262-224.185
		c-4.792-4.957-8.596-11.263-16.8-11.308c-5.588-0.03-6.454-8.605-2.326-6.87c5.501,2.312,11.948,1.594,16.576,7.073
		c16.102,19.063,26.298,16.672,39.684,34.995c16.958,23.211,32.615,26.462,42.759,67.748
		C2542.566,268.695,2534.378,362.301,2525.673,360.981z"/>
	<path d="M2266.746,656.462c-5.894-2.609-10.379,5.408,115.527-109.724c1-0.915,53.209-56.126,65.407-76.777
		c6.116-10.354,5.575-12.852,8.86-11.5C2481.64,468.796,2272.085,655.203,2266.746,656.462z"/>
	<path d="M2489.152,355.617c-0.541,4.704,0.042,15.616-5.226,14.72c-3.551-0.605-2.665-5.783-1.212-13.94
		c20.749-116.536-27.703-164.499-40.623-185.097c-10.627-16.944,35.563,17.093,47.255,85.788
		C2498.998,313.799,2495.241,302.666,2489.152,355.617z"/>
	<path d="M951.136,1246.519c-35.644-2.205,184.672-42.534,263.447-70.783c3.147-1.128,7.196-2.707,7.897,0.081
		C1224.842,1185.22,952.136,1246.291,951.136,1246.519z"/>
	<path d="M1637.424,113.756c-4.153-10.646,225.261-49.034,225.565-39.561c0.137,4.257-5.558,2.958-8.974,3.22
		C1750.062,85.375,1637.424,113.756,1637.424,113.756z"/>
	<path d="M2072.242,790.257c-7.974-4.49,13.642-11.073,61.945-41.216c51.06-31.864,70.226-47.757,116.38-81.801
		c12.885-9.505,2.459,11.419-85.96,67.005C2143.287,747.648,2081.523,785.457,2072.242,790.257z"/>
	<path d="M1917.351,886.379c0,0,71.681-39.075,100.017-61.05c65.287-50.633,17.312,10.004-95.133,61.246
		c-1.979,0.902-3.461,0.799-5.068-0.4L1917.351,886.379z"/>
	<path d="M1625.8,1025.919c41.89-16.278,81.629-37.001,122.282-59.532c-2.977,11.195-111.545,61.307-121.63,61.307
		C1626.235,1027.102,1626.017,1026.511,1625.8,1025.919z"/>
	<path d="M294.94,1268.897c-12.001-4.445-25.994-5.026-36.627-14.51c-5.253-4.685-17.58-4.721-14.687-10.807
		c2.44-5.135,20.318,7.854,21.319,8.43C282.601,1262.164,315.846,1262.025,294.94,1268.897z"/>
	<path d="M1868.957,913.751c-0.826,8.775-186.853,81.026-5.855,0.291C1864.698,913.331,1867.036,911.238,1868.957,913.751z"/>
	<path d="M2284.463,89.151c13.95,6.156,27.585,0.862,27.008,5.846c-0.671,5.793-13.04,3.422-15.618,2.807
		c-18.436-4.4-19.809-2.606-19.431-6.513C2276.76,87.795,2280.342,89.329,2284.463,89.151z"/>
	<path d="M2480.061,393.318c-1.261,2.691-6.159,23.349-12.266,20.741c-3.657-1.562-1.856-4.251,7.7-23.231
		C2476.674,388.485,2480.454,388.896,2480.061,393.318z"/>
	<path d="M201.288,1264.613c15.544,7.734,17.481,7.99,16.361,10.632c-2.169,5.12-14.724-2.538-19.724-4.986
		c-1.303-0.638-1.393-2.308-0.826-3.678C197.741,1265.033,199.296,1265.213,201.288,1264.613z"/>
	<path d="M2441.942,450.411c1.397-1.907,2.994,1.685,2.509,2.84c-7.92,18.873-8.624,20.139-11.237,18.824
		C2426.058,468.476,2441.209,451.411,2441.942,450.411z"/>
	<path d="M1917.166,886.175c-1.275,7.35-25.758,15.123-33.284,16.803c11.513-7.786,22.001-13.157,33.474-16.593
		C1917.351,886.379,1917.166,886.175,1917.166,886.175z"/>
	<path d="M2292.59,77.568c6.34-6.097,22.022-0.723,17.838,3.931C2308.641,83.487,2307.663,82.617,2292.59,77.568z"/>
	<path d="M2035.876,75.775c-2.293-0.303-5.97,0.967-5.761-2.7c0.234-4.11,4.387-3.127,7.036-3.122
		c2.297,0.004,6.572-1.622,6.389,2.361C2043.342,76.623,2038.714,75.096,2035.876,75.775z"/>
	<path d="M2048.585,70.229c5.976-0.766,11.97-3.008,17.898,0.257C2060.513,70.748,2054.504,74.277,2048.585,70.229z"/>
	<path d="M276.326,807.916c0.673,5.267-19.971,30.185-23.597,33.889c-10.26,10.478-15.155,24-22.205,36.322
		c-4.746,8.296-84.686,92.741-51.339,213.099c5.137,18.542,12.247,12.938,23,36.311c8.358,18.168,18.381,22.116,78.694,60.345
		c59.616,37.792,150.973,47.901,150.973,47.901c29.883,31.986,372.468,5.088,491.811-21.572c3.612-0.807,7.907-0.727,7.414,3.03
		c-0.524,3.993-19.928,2.219-61.923,10.417c-130.065,25.389-246.613,27.869-373.669,28.056
		c-12.077,0.018-75.306-10.938-81.212-15.502c-4.671-3.611-40.199-7.728-41.208-7.914c-10.286-1.897-117.596-39.632-116.979-46.982
		c1.343-16.012-14.864-5.429-36.493-26.386c-55.594-53.867-77.048-100.733-38.35-208.198
		c17.887-49.672,72.492-120.592,76.329-127.485c4.479-8.047,9.481-13.987,18.915-15.166L276.326,807.916z"/>
	<path d="M1766.164,123.358c12.705,4.593,25.886-0.286,38.887-2.806c35.003-6.783,179.26-21.42,320.359-8.016
		c124.057,11.785,107.231,21.601,102.532,21.213c-16.843-1.392-17.143-6.213-23.882-5.478c-13.889,1.515-20.305-6.046-54.067-8.219
		c-282.971-18.214-517.617,26.542-531.165,39.905c-5.294,5.222-11.169,1.041-10.805-2.259c0.97-8.791,135.592-31.407,149.648-33.286
		C1760.173,124.077,1762.681,123.789,1766.164,123.358z"/>
	<path d="M276.487,808.079c1.596-52.788,422.408-321.621,427.393-307.014c1.254,3.674-2.688,4.114-5.462,5.357
		c-110.061,49.31-362.705,234.476-408.568,290.738c-3.87,4.748-7.5,9.054-13.525,10.753
		C276.326,807.916,276.487,808.079,276.487,808.079z"/>
	<path d="M2243.561,602.6c3.994-5.94,9.806-9.579,14.888-13.931c16.083-13.776,29.087-30.476,43.458-45.867
		c123.548-132.315,116.299-170.016,117.662-240.376c0.186-9.577-6.612-21.111-3.95-25.443c1.739-2.829,4.729-3.613,5.675,0.491
		c8.505,36.886,9.556,43.915,0.343,96.367c-12.115,68.969-138.891,202.236-170.123,226.907
		C2249.48,602.352,2247.2,604.308,2243.561,602.6z"/>
	<path d="M2434.938,399.491c-2.413-15.481,36.438-154.45-88.105-238.345C2301.077,130.323,2490.824,206.442,2434.938,399.491z"/>
	<path d="M149.125,1004.731c0,0-5.955,31.426,0.516,66.707c4.703,25.646,13.804,60.187,32.967,77.936
		c16.563,15.34,14.004,30.785,55.513,42.947c4.176,1.224,7.598,5.069,12.535,4.074c3.013-0.607,4.747,10.728-21.534,0.83
		c-26.463-9.966-32.369-19.546-60.704-54.652c-32.941-40.813-25.35-121.724-25.384-123.218
		C142.915,1013.989,149.099,1010.52,149.125,1004.731z"/>
	<path d="M960.18,1211.019c31.807-5.752,278.973-77.135,288.601-79.936c9.979-2.903,25.217,1.667-82.841,28.79
		c-107.001,26.859-148.505,41.666-171.393,48.503C950.363,1221.573,953.924,1212.15,960.18,1211.019z"/>
	<path d="M2386.398,400.092c10.97-39.081,23.044-65.687,4.25-123.592c-5.121-15.777-27.704-52.692-34.727-58.203
		c-20.968-16.456-8.547-0.388-23.726-14.27c-5.874-5.373,10.649-4.908,15.647-0.43
		C2455.552,300.104,2374.874,441.131,2386.398,400.092z"/>
	<path d="M1786.483,916.744c-25.681,1.53,182.093-106.937,235.718-149.818c1.664-1.33,3.919-4.688,6.121-1.5
		c4.953,7.169-58.782,41.13-235.369,147.103C1790.621,913.929,1788.389,915.497,1786.483,916.744z"/>
	<path d="M2308.485,155.967c27.437,13.975,60.301,38.811,60.301,38.811c7.852,3.655,52.265,68.191,44.644,72.071
		c-2.865,1.459-4.328-1.6-5.405-3.859c-23.364-49.002-43.935-75.735-128.967-113.041
		C2267.709,144.971,2273.612,138.205,2308.485,155.967z"/>
	<path d="M2045.635,758.345c2.875-12.017,63.677-52.273,74.198-58.88c58.691-36.856,78.868-57.544,104.487-85.728
		c1.92-2.112,4.274-4.444,6.201-2.338c2.922,3.193-20.524,24.205-26.75,30.926c-27.936,30.161-117.018,78.461-151.005,113.278
		C2050.879,757.535,2050.828,757.486,2045.635,758.345z"/>
	<path d="M1584.309,1004.664c32.679-22.176,55.24-23.972,126.266-59.085c46.834-23.152,44.127-22.47,45.427-19.954
		C1758.321,930.109,1589.571,1006.355,1584.309,1004.664z"/>
	<path d="M184.511,1021.96c2.605,0.93,2.789,2.979,2.108,4.144c-7.099,12.154,25.603,88.499,33.517,100.52
		c8.736,13.269,20.039,14.394,16.868,19.239c-2.652,4.051-17.445-4.122-25.659-22.575
		C191.367,1078.412,177.256,1047.286,184.511,1021.96z"/>
	<path d="M2291.709,137.666c-10.41-6.233-21.401-6.151-38.916-10.228c-3.917-0.912-3.55-4.36-0.014-5.197
		c4.972-1.178,33.802,3.186,45.766,11.633c8.062,5.692,26.165,1.906,24.558,8.675C2321.237,150.41,2298.615,141.8,2291.709,137.666z
		"/>
	<path d="M182.317,1011.288c1.576-12.893,3.33-32.519,7.623-31.288c3.062,0.878,2.165,2.145-2.245,30.972
		c-0.368,2.403,1.49,6.624-2.879,6.306C180.895,1016.994,183.751,1012.591,182.317,1011.288z"/>
	<path d="M2381.683,426.363c-2.48,13.414-6.393,9.341-15.683,27.64c-1.911,3.763-6.555,2.173-4.733-0.775
		C2367.208,443.61,2373.541,434.28,2381.683,426.363z"/>
	<path d="M2056.434,415.169c-0.03,5.488-3.088,4.01-4.11,1.387c-24.334-62.453-37.191-71.124-58.615-82.085
		c-40.161-20.547-29.71-25.77-24.468-20.768C1991.592,335.029,2030.092,326.479,2056.434,415.169z"/>
	<path d="M506.02,907.657c-1.943,24.017-7.749,47.442,5.093,69.501C494.986,982.083,494.638,912.151,506.02,907.657z"/>
	<path d="M534.441,899.241c1.746,11.613-9.723,21.747-1.331,34.323C518.231,930.047,527.568,912.941,534.441,899.241z"/>
	<path d="M812.384,1086.417c-3.617-0.382-3.462-4.057-0.041-4.442C852.147,1077.505,838.462,1089.173,812.384,1086.417z"/>
	<path d="M2057.318,438.972c-1.415,5.987-6.787,3.178-5.713-0.964c3.468-13.368,0.702-18.697,5.602-17.281
		C2062.085,422.137,2059.737,428.733,2057.318,438.972z"/>
	<path d="M579.179,1012.509c-0.268,6.489-11.298,0.08-15.027-4.767c-1.856-2.412-0.818-6.902,4.046-3.925
		C576.979,1009.192,578.282,1009.385,579.179,1012.509z"/>
	<path d="M1749.063,777.028c-1.128,5.91-6.252,0.464-13.878,8.724c-5.841,6.328-12.185-5.018,9.607-10.465
		C1746.69,774.813,1748.396,774.835,1749.063,777.028z"/>
	<path d="M511.287,878.055c1.61,15.17-8.443,18.391-7.255,11.339C504.797,884.857,506.382,880.777,511.287,878.055z"/>
	<path d="M1937.928,302.539c16.443-9.419,20.798,10.505,13.42,4.684C1947.666,304.318,1942.505,305.688,1937.928,302.539z"/>
	<path d="M537.296,888.268c-8.6-1.82,14.749-26.484,4.088-3.252C540.62,886.682,539.353,888.056,537.296,888.268z"/>
	<path d="M2082.687,425.443c0.404-2.641-1.2-6.307,3.207-6.377c5.356-0.085,2.837,12.056-1.223,12.247
		C2081.149,431.48,2083.367,427.382,2082.687,425.443z"/>
	<path d="M2051.414,455.886c-3.588-0.07-1.827-7.334,1.313-7.483C2056.596,448.219,2055.257,455.961,2051.414,455.886z"/>
	<path d="M1423.401,525.788c-15.946,0.977,29.135-26.027,48.374-39.545c60.002-42.16,105.542-92.185,124.344-110.702
		c9.637-9.49,10.819-14.828,13.964-12.196c1.918,1.605,1.002,3.418-0.323,4.792c-45.774,47.467-84.377,87.222-180.271,154.914
		C1427.657,524.344,1425.334,524.94,1423.401,525.788z"/>
	<path d="M1058.37,649.787c-1.909-0.73-5.688,0.956-5.841-2.652c-0.132-3.084,3.408-2.439,5.457-2.763
		c130.839-20.675,79.688-11.283,145.641-30.267C1290.392,589.13,1165.57,643.921,1058.37,649.787z"/>
	<path d="M1561.201,382.789c-10.763,13.883-143.761,128.638-148.046,119.208c0,0,119.928-94.15,139.541-117.382
		C1553.54,383.616,1560.131,376.95,1561.201,382.789z"/>
	<path d="M718.759,608.128c-4.763-1.751-2.335-7.319,1.9-5.136c1.267,0.653,96.686,31.745,148.257,44.16
		C878.979,649.575,875.254,665.65,718.759,608.128z"/>
	<path d="M1106.808,622.959c-2.407-0.452-4.924,0.154-5.224-2.168c-0.269-2.076,2.129-1.977,3.585-2.379
		c124.738-34.358,21.207-1.834,122.026-35.558c37.116-12.415,38.202-12.904,39.371-9.834
		C1269.125,579.739,1121.129,620.05,1106.808,622.959z"/>
	<path d="M1409.82,502.469c-2.001,7.233-116.62,59.963-127.779,64.418c-5.268,2.103-6.388-2.274-1.773-4.363
		C1411.856,502.947,1408.163,495.785,1409.82,502.469z"/>
	<path d="M1387.965,542.381c-17.259,21.575-106.43,45.199-135.252,66.509c-2.378,1.758-8.933-0.416-2.332-4.531
		C1259.178,598.875,1387.724,542.304,1387.965,542.381z"/>
	<path d="M998.569,632.836c30.262,0.756,57.333-8.427,84.998-14.08c1.848-0.378,4.733-2.991,5.764,0.642
		c0.876,3.087-1.989,4.525-4.441,5.058c-113.717,24.73-107.5,9.816-98.529,8.501C990.911,632.29,995.522,633.777,998.569,632.836z"
		/>
	<path d="M992.719,657.41c-3.598,7.676-9.158,2.952-33.081,1.85c-41.139-1.895-48.157,0.221-56.465-3.852
		c-5.454-2.674-1.647-7.412,2.192-5.917C924.929,657.11,927.121,650.854,992.719,657.41z"/>
	<path d="M1580.426,364.339c-1.261-0.602-3.783-0.528,0.131-4.973c49.505-56.214,45.012-54.718,47.84-52.507
		c2.011,1.573,0.226,3.346-0.966,4.641c-15.348,16.672-27.707,35.963-44.799,51.103
		C1581.957,363.201,1581.214,363.722,1580.426,364.339z"/>
	<path d="M1025.885,653.484c2.558,0.489,5.578-0.613,5.767,2.153c0.16,2.345-2.595,3.06-4.659,3.033
		c-11.785-0.151-17.863,6.321-19.805,0.502C1006.101,655.917,1007.222,656.453,1025.885,653.484z"/>
	<path d="M1664.334,247.312c-3.742,10.811-7.98,21.34-16.282,29.636C1653.228,266.917,1656.034,255.641,1664.334,247.312z"/>
	<path d="M1672.374,233.128c-0.435,1-3.636,13.194-5.348,8.761c-1.37-3.553,1.37-6.469,1.673-9.801
		C1668.891,229.976,1672.108,228.83,1672.374,233.128z"/>
	<path d="M1492.982,275.311c-6.632,22.562-140.916,141.873-258.193,177.176c-1.635,0.492-4.063,1.632-4.921-0.556
		c-0.97-2.473,1.765-3.308,3.382-4.329c0,0,47.3-9.1,136.651-70.136C1464.66,312.737,1413.464,343.818,1492.982,275.311z"/>
	<path d="M941.173,519.459c-0.695-0.497-1.771-0.806-2.611-0.705c-80.424,9.612-199.263-39.222-195.654-48.029
		c1.187-2.896,3.385-1.319,5.172-0.413c62.137,31.509,113.224,38.085,129.338,40.541c4.789,0.73,82.491,7.481,101.24,5.181
		c30.555-3.749,30.859,4.998,20.776,5.201C951.515,522.198,948.273,524.543,941.173,519.459z"/>
	<path d="M1283.956,460.454c-4.897,0.153-5.257-4.259-0.751-6.054c100.359-39.967,163.483-104.621,228.139-165.863
		c40.384-38.248-74.811,101.171-199.473,160.391C1302.653,453.307,1292.887,456.863,1283.956,460.454z"/>
	<path d="M1032.108,513.408c1.671-4.017,4.65-3.415,6.91-4.003c12.829-3.34,25.088-8.372,37.663-12.415
		c23.561-7.574,25.352-2.796,60.694-10.005c44.838-9.146,87.495-32.681,89.668-23.89c1.293,5.231-13.044,6.33-16.189,7.351
		c-137.624,44.683-86.936,15.676-162.699,42.871C1042.784,515.244,1037.906,513.467,1032.108,513.408z"/>
	<path d="M933.276,539.536c-7.802,6.906-173.253-27.296-181.467-41.142c-1.454-2.451-0.443-4.903,2.827-3.118
		c30.667,16.738,174.107,41.946,175.115,41.889C930.768,537.107,931.869,538.548,933.276,539.536z"/>
	<path d="M1073.677,528.32c-7.74-2.095-104.124,19.75-104.798,12.823c-0.403-4.143,143.411-26.461,144.219-20.6
		C1113.78,525.489,1106.271,524.911,1073.677,528.32z"/>
	<path d="M1263.951,472.647c-19.625,7.983-107.84,39.764-109.719,34.638c-2.37-6.464,74.43-22.388,102.291-38.753
		C1268.012,461.783,1270.034,470.173,1263.951,472.647z"/>
	<path d="M1530.175,271.354c7.401-13.479,37.481-37.15,60.332-93.496c3.379-8.331,20.41-10.553-32.068,67.045
		c-5.588,8.261-14.453,12.896-20.643,22.491C1536.505,269.397,1533.987,271.244,1530.175,271.354z"/>
	<path d="M1505.78,260.75c3-8.483,6.797-13.653,12.143-17.966c5.015-4.046,37.645-46.281,49.497-69.838
		c0.753-1.496,1.224-3.222,3.309-2.596c7.537,2.265-23.659,46.267-29.699,49.128c-4.767,2.258-5.636,8.403-8.392,12.715
		C1525.838,242.829,1516.106,250.679,1505.78,260.75z"/>
	<path d="M1911.624,323.525c5.939-9.202,6.834-1.325,9.051,2.5c2.159,3.725,16.328,2.844,15.361,13.011
		c-0.046,0.481,0.67,1.287,1.217,1.535c12.907,5.852,20.935,18.481,33.665,24.422c9.827,4.586,31.191,32.657,34.191,41.054
		c33.888,94.847-90.57,201.091-130.898,241.826c-29.533,29.831-3.051,13.607-30.464,30.852
		c-40.837,25.69-89.162,67.983-92.305,64.635c-4.762-5.072,97.281-72.341,98.48-73.714
		c72.407-82.912,211.248-187.848,124.019-294.326c-3.314-4.045-44.76-41.588-88.123-47.757c-14.688-2.09-28.159-12.309-50.115-9.15
		c-1.12,0.161-2.316,0.099-3.435-0.096c-2.472-0.43-6.841,1.239-6.821-2.153C1825.508,305.952,1910.978,324.525,1911.624,323.525z"
		/>
	<path d="M580.317,971.916c-17.096-18.125-24.698-62.96-17.948-78.184c1.589-3.583,5.431-3.476,4.667,1.291
		C559.945,939.23,582.041,956.603,580.317,971.916z"/>
	<path d="M1992.129,454.846c-3.036,0.387-2.605-2.515-2.845-4.446c-2.821-22.663-12.125-42.954-22.807-62.764
		c-1-1.855-4.867-4.003-1.498-6.011C1972.875,376.916,2001.396,453.665,1992.129,454.846z"/>
	<path d="M2023.631,418.724c-3.09-0.392-2.992-2.392-3.544-3.714c-5.467-13.098-12.094-25.396-22.865-35.053
		c-3.078-2.76-3.857-7.281-7.161-9.998c-1.057-0.869-1.886-2.477-1.052-3.671c3.921-5.614,23.044,23.407,24.044,24.261
		C2021.735,397.955,2023.069,407.947,2023.631,418.724z"/>
	<path d="M2027.811,435.393c-1.157,9.368-3.768,32.967-9.392,32.085c-3.92-0.615-1.617-2.885,1.995-21.716
		c3.479-18.139-7.146-19.058-0.166-22.182C2026.022,420.996,2026.654,430.105,2027.811,435.393z"/>
	<path d="M591.672,981.523c15.594,13.398,16.895,14.689,14.888,17.033c-3.851,4.499-24.61-13.992-22.049-17.845
		C586.086,978.341,589.589,979.733,591.672,981.523z"/>
	<path d="M1958.051,346.821c6.899,2.625,15.932-0.68,20.555,7.691c3.166,5.732-4.014,9.469-6.156,5.485
		C1969.198,353.946,1964.087,350.195,1958.051,346.821z"/>
	<path d="M1688.192,779.906c-0.073,0.098-16.267,13.173-16.267,13.173c-3.353,2.583-5.62-1.03-2.568-3.326
		C1685.397,777.684,1685.912,776.396,1688.192,779.906z"/>
	<path d="M884.265,1044.477c1.82,0.171,3.581-0.335,3.936,1.444c0.423,2.127-1.477,2.589-2.973,2.95
		c-14.834,3.577-15.894,3.788-16.576,1.465C867.367,1045.961,883.264,1044.778,884.265,1044.477z"/>
	<path d="M1951.275,335.794c-0.481,2.775-2.14,3.835-4.031,3.093c-3.216-1.262-7.846-1.178-8.618-5.503
		C1937.584,327.544,1948.183,328.965,1951.275,335.794z"/>
	<path d="M2016.75,478.567c-1.471,1.825-0.077,5.656-3.542,6.469c-4.405,1.033-3.669-7.887,1.815-8.972
		C2016.406,475.79,2016.925,476.956,2016.75,478.567z"/>
	<path d="M1925.864,346.195c5.703,1.464,5.163,8.95,2.342,8.37C1924.346,353.773,1920.64,346.385,1925.864,346.195z"/>
	<path d="M1991.478,471.171c-5.892-0.902-3.129-8.078,0.914-8.806C1996.746,461.58,1993.395,466.956,1991.478,471.171z"/>
	<path d="M565.037,868.113c10.805,6.625-3.247,13.632-0.943,3.074c0.24-1.098,0.715-2.144,1.102-3.231
		C565.213,867.939,565.037,868.113,565.037,868.113z"/>
	<path d="M1174.34,264.86c-6.32,0.098-10.93,4.716-16.557,6.732C939.894,349.65,848.87,292.385,852.12,286.634
		c3.701-6.549,27.662,15.206,58.841,16.738c69.286,3.405,9.758,9.757,91.648-0.006c82.57-9.844,91.704-16.563,184.269-47.3
		c1.593-0.529,4.159-2.688,5.221,0.482C1193.617,261.071,1180.45,265.293,1174.34,264.86z"/>
	<path d="M990.357,333.725c-13.372-3.089-28.52,1.253-42.857-0.871c-95.462-14.14-55.946-12.489-102.34-25.292
		c-7.311-2.017-4.319-7.143,1.7-5.075c42.969,14.759,22.265,10.409,44.531,15.118c23.354,4.939,95.054,15.879,135.506,2.723
		c9.411-3.061,27.355-2.88,37.923-5.824c5.436-1.514,6.561,2.748,1.254,4.959c-13.702,5.709-12.652-0.818-50.94,9.434
		C1007.447,330.955,999.897,333.734,990.357,333.725z"/>
	<path d="M1080.462,315.085c-1.365-0.55-3.727,0.7-3.786-1.85c-0.043-1.856,1.687-2.658,3.266-3.036
		c72.167-17.292,78.266-26.364,79.798-21.702c0.847,2.58-1.911,3.23-3.859,3.728c-12.407,3.171-23.379,9.939-35.413,14.048
		C1107.444,310.72,1094.125,313.751,1080.462,315.085z"/>
	<path d="M1338.862,133.263c-4.462,10.903-10.561,20.413-20.942,26.331c-3.948,2.251-3.135,7.301-7.124,9.633
		c-12.579,7.355-39.674,34.263-39.674,34.263c-5.204-10.191,47.456-41.544,63.056-66.891
		C1335.073,135.145,1336.014,132.749,1338.862,133.263z"/>
	<path d="M1337.074,162.734c9.855,11.979-27.761,36.038-59.292,60.742c-1.187,0.93-2.911,1.353-5.659-0.029
		c12.488-14.354,54.984-35.869,64.961-60.7L1337.074,162.734z"/>
	<path d="M1242.98,223.065c-1.03,1.503-1.729,3.795-3.142,4.388c-12.865,5.399-37.544,28.871-40.242,23.261
		c-1.217-2.532-1.264-1.499,29.847-21.583c4.244-2.74,7.324-8.155,13.714-5.885L1242.98,223.065z"/>
	<path d="M1236.858,247.941c17.468-11.732,17.746-15.878,20.587-12.363C1263.245,242.756,1196.463,275.071,1236.858,247.941z"/>
	<path d="M1337.084,162.747c9.982-3.557,20.6-19.986,26.302-28.02c5.176,4.569-13.759,25.45-18.802,28.86
		c-3.201,2.165-5.096,0.103-7.507-0.85C1337.074,162.734,1337.084,162.747,1337.084,162.747z"/>
	<path d="M1243.157,223.245c1.27-6.374,4.716-6.509,20.285-17.821c1.6-1.162,3.405-3.546,5.11-1.307
		c1.431,1.879-1.32,3.079-2.643,4.005c-7.475,5.233-13.136,13.275-22.928,14.943C1242.98,223.065,1243.157,223.245,1243.157,223.245
		z"/>
	<path d="M1208.939,263.723c7.831,2.381-7.424,11.169-13.771,11.958C1183.639,277.114,1207.848,264.356,1208.939,263.723z"/>
</g>
</svg>
